<?xml version="1.0" encoding="utf-8" standalone="no"?>
<!DOCTYPE svg PUBLIC "-//W3C//DTD SVG 1.1//EN"
  "http://www.w3.org/Graphics/SVG/1.1/DTD/svg11.dtd">
<svg xmlns:xlink="http://www.w3.org/1999/xlink" width="993.920098pt" height="859.105pt" viewBox="0 0 993.920098 859.105" xmlns="http://www.w3.org/2000/svg" version="1.1">
 <metadata>
  <rdf:RDF xmlns:dc="http://purl.org/dc/elements/1.1/" xmlns:cc="http://creativecommons.org/ns#" xmlns:rdf="http://www.w3.org/1999/02/22-rdf-syntax-ns#">
   <cc:Work>
    <dc:type rdf:resource="http://purl.org/dc/dcmitype/StillImage"/>
    <dc:date>2025-03-18T14:31:42.326444</dc:date>
    <dc:format>image/svg+xml</dc:format>
    <dc:creator>
     <cc:Agent>
      <dc:title>Matplotlib v3.8.2, https://matplotlib.org/</dc:title>
     </cc:Agent>
    </dc:creator>
   </cc:Work>
  </rdf:RDF>
 </metadata>
 <defs>
  <style type="text/css">*{stroke-linejoin: round; stroke-linecap: butt}</style>
 </defs>
 <g id="figure_1">
  <g id="patch_1">
   <path d="M 0 859.105 
L 993.920098 859.105 
L 993.920098 0 
L 0 0 
z
" style="fill: #ffffff"/>
  </g>
  <g id="axes_1">
   <g id="patch_2">
    <path d="M 49.480625 481.332862 
L 882.708466 481.332862 
L 882.708466 24.8575 
L 49.480625 24.8575 
z
" style="fill: #ffffff"/>
   </g>
   <g id="matplotlib.axis_1">
    <g id="xtick_1">
     <g id="line2d_1">
      <path d="M 73.786936 481.332862 
L 73.786936 24.8575 
" clip-path="url(#pa28a81f736)" style="fill: none; stroke: #cccccc; stroke-width: 0.8; stroke-linecap: round"/>
     </g>
     <g id="text_1">
      <!-- 2024-09-01 -->
      <g style="fill: #262626" transform="translate(43.098811 496.922237) scale(0.12 -0.12)">
       <defs>
        <path id="ArialMT-32" d="M 3222 541 
L 3222 0 
L 194 0 
Q 188 203 259 391 
Q 375 700 629 1000 
Q 884 1300 1366 1694 
Q 2113 2306 2375 2664 
Q 2638 3022 2638 3341 
Q 2638 3675 2398 3904 
Q 2159 4134 1775 4134 
Q 1369 4134 1125 3890 
Q 881 3647 878 3216 
L 300 3275 
Q 359 3922 746 4261 
Q 1134 4600 1788 4600 
Q 2447 4600 2831 4234 
Q 3216 3869 3216 3328 
Q 3216 3053 3103 2787 
Q 2991 2522 2730 2228 
Q 2469 1934 1863 1422 
Q 1356 997 1212 845 
Q 1069 694 975 541 
L 3222 541 
z
" transform="scale(0.015625)"/>
        <path id="ArialMT-30" d="M 266 2259 
Q 266 3072 433 3567 
Q 600 4063 929 4331 
Q 1259 4600 1759 4600 
Q 2128 4600 2406 4451 
Q 2684 4303 2865 4023 
Q 3047 3744 3150 3342 
Q 3253 2941 3253 2259 
Q 3253 1453 3087 958 
Q 2922 463 2592 192 
Q 2263 -78 1759 -78 
Q 1097 -78 719 397 
Q 266 969 266 2259 
z
M 844 2259 
Q 844 1131 1108 757 
Q 1372 384 1759 384 
Q 2147 384 2411 759 
Q 2675 1134 2675 2259 
Q 2675 3391 2411 3762 
Q 2147 4134 1753 4134 
Q 1366 4134 1134 3806 
Q 844 3388 844 2259 
z
" transform="scale(0.015625)"/>
        <path id="ArialMT-34" d="M 2069 0 
L 2069 1097 
L 81 1097 
L 81 1613 
L 2172 4581 
L 2631 4581 
L 2631 1613 
L 3250 1613 
L 3250 1097 
L 2631 1097 
L 2631 0 
L 2069 0 
z
M 2069 1613 
L 2069 3678 
L 634 1613 
L 2069 1613 
z
" transform="scale(0.015625)"/>
        <path id="ArialMT-2d" d="M 203 1375 
L 203 1941 
L 1931 1941 
L 1931 1375 
L 203 1375 
z
" transform="scale(0.015625)"/>
        <path id="ArialMT-39" d="M 350 1059 
L 891 1109 
Q 959 728 1153 556 
Q 1347 384 1650 384 
Q 1909 384 2104 503 
Q 2300 622 2425 820 
Q 2550 1019 2634 1356 
Q 2719 1694 2719 2044 
Q 2719 2081 2716 2156 
Q 2547 1888 2255 1720 
Q 1963 1553 1622 1553 
Q 1053 1553 659 1965 
Q 266 2378 266 3053 
Q 266 3750 677 4175 
Q 1088 4600 1706 4600 
Q 2153 4600 2523 4359 
Q 2894 4119 3086 3673 
Q 3278 3228 3278 2384 
Q 3278 1506 3087 986 
Q 2897 466 2520 194 
Q 2144 -78 1638 -78 
Q 1100 -78 759 220 
Q 419 519 350 1059 
z
M 2653 3081 
Q 2653 3566 2395 3850 
Q 2138 4134 1775 4134 
Q 1400 4134 1122 3828 
Q 844 3522 844 3034 
Q 844 2597 1108 2323 
Q 1372 2050 1759 2050 
Q 2150 2050 2401 2323 
Q 2653 2597 2653 3081 
z
" transform="scale(0.015625)"/>
        <path id="ArialMT-31" d="M 2384 0 
L 1822 0 
L 1822 3584 
Q 1619 3391 1289 3197 
Q 959 3003 697 2906 
L 697 3450 
Q 1169 3672 1522 3987 
Q 1875 4303 2022 4600 
L 2384 4600 
L 2384 0 
z
" transform="scale(0.015625)"/>
       </defs>
       <use xlink:href="#ArialMT-32"/>
       <use xlink:href="#ArialMT-30" x="55.615234"/>
       <use xlink:href="#ArialMT-32" x="111.230469"/>
       <use xlink:href="#ArialMT-34" x="166.845703"/>
       <use xlink:href="#ArialMT-2d" x="222.460938"/>
       <use xlink:href="#ArialMT-30" x="255.761719"/>
       <use xlink:href="#ArialMT-39" x="311.376953"/>
       <use xlink:href="#ArialMT-2d" x="366.992188"/>
       <use xlink:href="#ArialMT-30" x="400.292969"/>
       <use xlink:href="#ArialMT-31" x="455.908203"/>
      </g>
     </g>
    </g>
    <g id="xtick_2">
     <g id="line2d_2">
      <path d="M 190.347702 481.332862 
L 190.347702 24.8575 
" clip-path="url(#pa28a81f736)" style="fill: none; stroke: #cccccc; stroke-width: 0.8; stroke-linecap: round"/>
     </g>
     <g id="text_2">
      <!-- 2024-10-01 -->
      <g style="fill: #262626" transform="translate(159.659577 496.922237) scale(0.12 -0.12)">
       <use xlink:href="#ArialMT-32"/>
       <use xlink:href="#ArialMT-30" x="55.615234"/>
       <use xlink:href="#ArialMT-32" x="111.230469"/>
       <use xlink:href="#ArialMT-34" x="166.845703"/>
       <use xlink:href="#ArialMT-2d" x="222.460938"/>
       <use xlink:href="#ArialMT-31" x="255.761719"/>
       <use xlink:href="#ArialMT-30" x="311.376953"/>
       <use xlink:href="#ArialMT-2d" x="366.992188"/>
       <use xlink:href="#ArialMT-30" x="400.292969"/>
       <use xlink:href="#ArialMT-31" x="455.908203"/>
      </g>
     </g>
    </g>
    <g id="xtick_3">
     <g id="line2d_3">
      <path d="M 310.793828 481.332862 
L 310.793828 24.8575 
" clip-path="url(#pa28a81f736)" style="fill: none; stroke: #cccccc; stroke-width: 0.8; stroke-linecap: round"/>
     </g>
     <g id="text_3">
      <!-- 2024-11-01 -->
      <g style="fill: #262626" transform="translate(280.548203 496.922237) scale(0.12 -0.12)">
       <use xlink:href="#ArialMT-32"/>
       <use xlink:href="#ArialMT-30" x="55.615234"/>
       <use xlink:href="#ArialMT-32" x="111.230469"/>
       <use xlink:href="#ArialMT-34" x="166.845703"/>
       <use xlink:href="#ArialMT-2d" x="222.460938"/>
       <use xlink:href="#ArialMT-31" x="255.761719"/>
       <use xlink:href="#ArialMT-31" x="304.001953"/>
       <use xlink:href="#ArialMT-2d" x="359.617188"/>
       <use xlink:href="#ArialMT-30" x="392.917969"/>
       <use xlink:href="#ArialMT-31" x="448.533203"/>
      </g>
     </g>
    </g>
    <g id="xtick_4">
     <g id="line2d_4">
      <path d="M 427.354594 481.332862 
L 427.354594 24.8575 
" clip-path="url(#pa28a81f736)" style="fill: none; stroke: #cccccc; stroke-width: 0.8; stroke-linecap: round"/>
     </g>
     <g id="text_4">
      <!-- 2024-12-01 -->
      <g style="fill: #262626" transform="translate(396.666469 496.922237) scale(0.12 -0.12)">
       <use xlink:href="#ArialMT-32"/>
       <use xlink:href="#ArialMT-30" x="55.615234"/>
       <use xlink:href="#ArialMT-32" x="111.230469"/>
       <use xlink:href="#ArialMT-34" x="166.845703"/>
       <use xlink:href="#ArialMT-2d" x="222.460938"/>
       <use xlink:href="#ArialMT-31" x="255.761719"/>
       <use xlink:href="#ArialMT-32" x="311.376953"/>
       <use xlink:href="#ArialMT-2d" x="366.992188"/>
       <use xlink:href="#ArialMT-30" x="400.292969"/>
       <use xlink:href="#ArialMT-31" x="455.908203"/>
      </g>
     </g>
    </g>
    <g id="xtick_5">
     <g id="line2d_5">
      <path d="M 547.80072 481.332862 
L 547.80072 24.8575 
" clip-path="url(#pa28a81f736)" style="fill: none; stroke: #cccccc; stroke-width: 0.8; stroke-linecap: round"/>
     </g>
     <g id="text_5">
      <!-- 2025-01-01 -->
      <g style="fill: #262626" transform="translate(517.112595 496.922237) scale(0.12 -0.12)">
       <defs>
        <path id="ArialMT-35" d="M 266 1200 
L 856 1250 
Q 922 819 1161 601 
Q 1400 384 1738 384 
Q 2144 384 2425 690 
Q 2706 997 2706 1503 
Q 2706 1984 2436 2262 
Q 2166 2541 1728 2541 
Q 1456 2541 1237 2417 
Q 1019 2294 894 2097 
L 366 2166 
L 809 4519 
L 3088 4519 
L 3088 3981 
L 1259 3981 
L 1013 2750 
Q 1425 3038 1878 3038 
Q 2478 3038 2890 2622 
Q 3303 2206 3303 1553 
Q 3303 931 2941 478 
Q 2500 -78 1738 -78 
Q 1113 -78 717 272 
Q 322 622 266 1200 
z
" transform="scale(0.015625)"/>
       </defs>
       <use xlink:href="#ArialMT-32"/>
       <use xlink:href="#ArialMT-30" x="55.615234"/>
       <use xlink:href="#ArialMT-32" x="111.230469"/>
       <use xlink:href="#ArialMT-35" x="166.845703"/>
       <use xlink:href="#ArialMT-2d" x="222.460938"/>
       <use xlink:href="#ArialMT-30" x="255.761719"/>
       <use xlink:href="#ArialMT-31" x="311.376953"/>
       <use xlink:href="#ArialMT-2d" x="366.992188"/>
       <use xlink:href="#ArialMT-30" x="400.292969"/>
       <use xlink:href="#ArialMT-31" x="455.908203"/>
      </g>
     </g>
    </g>
    <g id="xtick_6">
     <g id="line2d_6">
      <path d="M 668.246845 481.332862 
L 668.246845 24.8575 
" clip-path="url(#pa28a81f736)" style="fill: none; stroke: #cccccc; stroke-width: 0.8; stroke-linecap: round"/>
     </g>
     <g id="text_6">
      <!-- 2025-02-01 -->
      <g style="fill: #262626" transform="translate(637.55872 496.922237) scale(0.12 -0.12)">
       <use xlink:href="#ArialMT-32"/>
       <use xlink:href="#ArialMT-30" x="55.615234"/>
       <use xlink:href="#ArialMT-32" x="111.230469"/>
       <use xlink:href="#ArialMT-35" x="166.845703"/>
       <use xlink:href="#ArialMT-2d" x="222.460938"/>
       <use xlink:href="#ArialMT-30" x="255.761719"/>
       <use xlink:href="#ArialMT-32" x="311.376953"/>
       <use xlink:href="#ArialMT-2d" x="366.992188"/>
       <use xlink:href="#ArialMT-30" x="400.292969"/>
       <use xlink:href="#ArialMT-31" x="455.908203"/>
      </g>
     </g>
    </g>
    <g id="xtick_7">
     <g id="line2d_7">
      <path d="M 777.036894 481.332862 
L 777.036894 24.8575 
" clip-path="url(#pa28a81f736)" style="fill: none; stroke: #cccccc; stroke-width: 0.8; stroke-linecap: round"/>
     </g>
     <g id="text_7">
      <!-- 2025-03-01 -->
      <g style="fill: #262626" transform="translate(746.348769 496.922237) scale(0.12 -0.12)">
       <defs>
        <path id="ArialMT-33" d="M 269 1209 
L 831 1284 
Q 928 806 1161 595 
Q 1394 384 1728 384 
Q 2125 384 2398 659 
Q 2672 934 2672 1341 
Q 2672 1728 2419 1979 
Q 2166 2231 1775 2231 
Q 1616 2231 1378 2169 
L 1441 2663 
Q 1497 2656 1531 2656 
Q 1891 2656 2178 2843 
Q 2466 3031 2466 3422 
Q 2466 3731 2256 3934 
Q 2047 4138 1716 4138 
Q 1388 4138 1169 3931 
Q 950 3725 888 3313 
L 325 3413 
Q 428 3978 793 4289 
Q 1159 4600 1703 4600 
Q 2078 4600 2393 4439 
Q 2709 4278 2876 4000 
Q 3044 3722 3044 3409 
Q 3044 3113 2884 2869 
Q 2725 2625 2413 2481 
Q 2819 2388 3044 2092 
Q 3269 1797 3269 1353 
Q 3269 753 2831 336 
Q 2394 -81 1725 -81 
Q 1122 -81 723 278 
Q 325 638 269 1209 
z
" transform="scale(0.015625)"/>
       </defs>
       <use xlink:href="#ArialMT-32"/>
       <use xlink:href="#ArialMT-30" x="55.615234"/>
       <use xlink:href="#ArialMT-32" x="111.230469"/>
       <use xlink:href="#ArialMT-35" x="166.845703"/>
       <use xlink:href="#ArialMT-2d" x="222.460938"/>
       <use xlink:href="#ArialMT-30" x="255.761719"/>
       <use xlink:href="#ArialMT-33" x="311.376953"/>
       <use xlink:href="#ArialMT-2d" x="366.992188"/>
       <use xlink:href="#ArialMT-30" x="400.292969"/>
       <use xlink:href="#ArialMT-31" x="455.908203"/>
      </g>
     </g>
    </g>
    <g id="text_8">
     <!-- Date -->
     <g style="fill: #262626" transform="translate(453.42142 511.896612) scale(0.12 -0.12)">
      <defs>
       <path id="ArialMT-44" d="M 494 0 
L 494 4581 
L 2072 4581 
Q 2606 4581 2888 4516 
Q 3281 4425 3559 4188 
Q 3922 3881 4101 3404 
Q 4281 2928 4281 2316 
Q 4281 1794 4159 1391 
Q 4038 988 3847 723 
Q 3656 459 3429 307 
Q 3203 156 2883 78 
Q 2563 0 2147 0 
L 494 0 
z
M 1100 541 
L 2078 541 
Q 2531 541 2789 625 
Q 3047 709 3200 863 
Q 3416 1078 3536 1442 
Q 3656 1806 3656 2325 
Q 3656 3044 3420 3430 
Q 3184 3816 2847 3947 
Q 2603 4041 2063 4041 
L 1100 4041 
L 1100 541 
z
" transform="scale(0.015625)"/>
       <path id="ArialMT-61" d="M 2588 409 
Q 2275 144 1986 34 
Q 1697 -75 1366 -75 
Q 819 -75 525 192 
Q 231 459 231 875 
Q 231 1119 342 1320 
Q 453 1522 633 1644 
Q 813 1766 1038 1828 
Q 1203 1872 1538 1913 
Q 2219 1994 2541 2106 
Q 2544 2222 2544 2253 
Q 2544 2597 2384 2738 
Q 2169 2928 1744 2928 
Q 1347 2928 1158 2789 
Q 969 2650 878 2297 
L 328 2372 
Q 403 2725 575 2942 
Q 747 3159 1072 3276 
Q 1397 3394 1825 3394 
Q 2250 3394 2515 3294 
Q 2781 3194 2906 3042 
Q 3031 2891 3081 2659 
Q 3109 2516 3109 2141 
L 3109 1391 
Q 3109 606 3145 398 
Q 3181 191 3288 0 
L 2700 0 
Q 2613 175 2588 409 
z
M 2541 1666 
Q 2234 1541 1622 1453 
Q 1275 1403 1131 1340 
Q 988 1278 909 1158 
Q 831 1038 831 891 
Q 831 666 1001 516 
Q 1172 366 1500 366 
Q 1825 366 2078 508 
Q 2331 650 2450 897 
Q 2541 1088 2541 1459 
L 2541 1666 
z
" transform="scale(0.015625)"/>
       <path id="ArialMT-74" d="M 1650 503 
L 1731 6 
Q 1494 -44 1306 -44 
Q 1000 -44 831 53 
Q 663 150 594 308 
Q 525 466 525 972 
L 525 2881 
L 113 2881 
L 113 3319 
L 525 3319 
L 525 4141 
L 1084 4478 
L 1084 3319 
L 1650 3319 
L 1650 2881 
L 1084 2881 
L 1084 941 
Q 1084 700 1114 631 
Q 1144 563 1211 522 
Q 1278 481 1403 481 
Q 1497 481 1650 503 
z
" transform="scale(0.015625)"/>
       <path id="ArialMT-65" d="M 2694 1069 
L 3275 997 
Q 3138 488 2766 206 
Q 2394 -75 1816 -75 
Q 1088 -75 661 373 
Q 234 822 234 1631 
Q 234 2469 665 2931 
Q 1097 3394 1784 3394 
Q 2450 3394 2872 2941 
Q 3294 2488 3294 1666 
Q 3294 1616 3291 1516 
L 816 1516 
Q 847 969 1125 678 
Q 1403 388 1819 388 
Q 2128 388 2347 550 
Q 2566 713 2694 1069 
z
M 847 1978 
L 2700 1978 
Q 2663 2397 2488 2606 
Q 2219 2931 1791 2931 
Q 1403 2931 1139 2672 
Q 875 2413 847 1978 
z
" transform="scale(0.015625)"/>
      </defs>
      <use xlink:href="#ArialMT-44"/>
      <use xlink:href="#ArialMT-61" x="72.216797"/>
      <use xlink:href="#ArialMT-74" x="127.832031"/>
      <use xlink:href="#ArialMT-65" x="155.615234"/>
     </g>
    </g>
   </g>
   <g id="matplotlib.axis_2">
    <g id="ytick_1">
     <g id="line2d_8">
      <path d="M 49.480625 460.583982 
L 882.708466 460.583982 
" clip-path="url(#pa28a81f736)" style="fill: none; stroke: #cccccc; stroke-width: 0.8; stroke-linecap: round"/>
     </g>
     <g id="text_9">
      <!-- 0.0 -->
      <g style="fill: #262626" transform="translate(25.800625 464.87867) scale(0.12 -0.12)">
       <defs>
        <path id="ArialMT-2e" d="M 581 0 
L 581 641 
L 1222 641 
L 1222 0 
L 581 0 
z
" transform="scale(0.015625)"/>
       </defs>
       <use xlink:href="#ArialMT-30"/>
       <use xlink:href="#ArialMT-2e" x="55.615234"/>
       <use xlink:href="#ArialMT-30" x="83.398438"/>
      </g>
     </g>
    </g>
    <g id="ytick_2">
     <g id="line2d_9">
      <path d="M 49.480625 407.51524 
L 882.708466 407.51524 
" clip-path="url(#pa28a81f736)" style="fill: none; stroke: #cccccc; stroke-width: 0.8; stroke-linecap: round"/>
     </g>
     <g id="text_10">
      <!-- 0.2 -->
      <g style="fill: #262626" transform="translate(25.800625 411.809927) scale(0.12 -0.12)">
       <use xlink:href="#ArialMT-30"/>
       <use xlink:href="#ArialMT-2e" x="55.615234"/>
       <use xlink:href="#ArialMT-32" x="83.398438"/>
      </g>
     </g>
    </g>
    <g id="ytick_3">
     <g id="line2d_10">
      <path d="M 49.480625 354.446497 
L 882.708466 354.446497 
" clip-path="url(#pa28a81f736)" style="fill: none; stroke: #cccccc; stroke-width: 0.8; stroke-linecap: round"/>
     </g>
     <g id="text_11">
      <!-- 0.4 -->
      <g style="fill: #262626" transform="translate(25.800625 358.741185) scale(0.12 -0.12)">
       <use xlink:href="#ArialMT-30"/>
       <use xlink:href="#ArialMT-2e" x="55.615234"/>
       <use xlink:href="#ArialMT-34" x="83.398438"/>
      </g>
     </g>
    </g>
    <g id="ytick_4">
     <g id="line2d_11">
      <path d="M 49.480625 301.377755 
L 882.708466 301.377755 
" clip-path="url(#pa28a81f736)" style="fill: none; stroke: #cccccc; stroke-width: 0.8; stroke-linecap: round"/>
     </g>
     <g id="text_12">
      <!-- 0.6 -->
      <g style="fill: #262626" transform="translate(25.800625 305.672442) scale(0.12 -0.12)">
       <defs>
        <path id="ArialMT-36" d="M 3184 3459 
L 2625 3416 
Q 2550 3747 2413 3897 
Q 2184 4138 1850 4138 
Q 1581 4138 1378 3988 
Q 1113 3794 959 3422 
Q 806 3050 800 2363 
Q 1003 2672 1297 2822 
Q 1591 2972 1913 2972 
Q 2475 2972 2870 2558 
Q 3266 2144 3266 1488 
Q 3266 1056 3080 686 
Q 2894 316 2569 119 
Q 2244 -78 1831 -78 
Q 1128 -78 684 439 
Q 241 956 241 2144 
Q 241 3472 731 4075 
Q 1159 4600 1884 4600 
Q 2425 4600 2770 4297 
Q 3116 3994 3184 3459 
z
M 888 1484 
Q 888 1194 1011 928 
Q 1134 663 1356 523 
Q 1578 384 1822 384 
Q 2178 384 2434 671 
Q 2691 959 2691 1453 
Q 2691 1928 2437 2201 
Q 2184 2475 1800 2475 
Q 1419 2475 1153 2201 
Q 888 1928 888 1484 
z
" transform="scale(0.015625)"/>
       </defs>
       <use xlink:href="#ArialMT-30"/>
       <use xlink:href="#ArialMT-2e" x="55.615234"/>
       <use xlink:href="#ArialMT-36" x="83.398438"/>
      </g>
     </g>
    </g>
    <g id="ytick_5">
     <g id="line2d_12">
      <path d="M 49.480625 248.309012 
L 882.708466 248.309012 
" clip-path="url(#pa28a81f736)" style="fill: none; stroke: #cccccc; stroke-width: 0.8; stroke-linecap: round"/>
     </g>
     <g id="text_13">
      <!-- 0.8 -->
      <g style="fill: #262626" transform="translate(25.800625 252.6037) scale(0.12 -0.12)">
       <defs>
        <path id="ArialMT-38" d="M 1131 2484 
Q 781 2613 612 2850 
Q 444 3088 444 3419 
Q 444 3919 803 4259 
Q 1163 4600 1759 4600 
Q 2359 4600 2725 4251 
Q 3091 3903 3091 3403 
Q 3091 3084 2923 2848 
Q 2756 2613 2416 2484 
Q 2838 2347 3058 2040 
Q 3278 1734 3278 1309 
Q 3278 722 2862 322 
Q 2447 -78 1769 -78 
Q 1091 -78 675 323 
Q 259 725 259 1325 
Q 259 1772 486 2073 
Q 713 2375 1131 2484 
z
M 1019 3438 
Q 1019 3113 1228 2906 
Q 1438 2700 1772 2700 
Q 2097 2700 2305 2904 
Q 2513 3109 2513 3406 
Q 2513 3716 2298 3927 
Q 2084 4138 1766 4138 
Q 1444 4138 1231 3931 
Q 1019 3725 1019 3438 
z
M 838 1322 
Q 838 1081 952 856 
Q 1066 631 1291 507 
Q 1516 384 1775 384 
Q 2178 384 2440 643 
Q 2703 903 2703 1303 
Q 2703 1709 2433 1975 
Q 2163 2241 1756 2241 
Q 1359 2241 1098 1978 
Q 838 1716 838 1322 
z
" transform="scale(0.015625)"/>
       </defs>
       <use xlink:href="#ArialMT-30"/>
       <use xlink:href="#ArialMT-2e" x="55.615234"/>
       <use xlink:href="#ArialMT-38" x="83.398438"/>
      </g>
     </g>
    </g>
    <g id="ytick_6">
     <g id="line2d_13">
      <path d="M 49.480625 195.24027 
L 882.708466 195.24027 
" clip-path="url(#pa28a81f736)" style="fill: none; stroke: #cccccc; stroke-width: 0.8; stroke-linecap: round"/>
     </g>
     <g id="text_14">
      <!-- 1.0 -->
      <g style="fill: #262626" transform="translate(25.800625 199.534957) scale(0.12 -0.12)">
       <use xlink:href="#ArialMT-31"/>
       <use xlink:href="#ArialMT-2e" x="55.615234"/>
       <use xlink:href="#ArialMT-30" x="83.398438"/>
      </g>
     </g>
    </g>
    <g id="ytick_7">
     <g id="line2d_14">
      <path d="M 49.480625 142.171527 
L 882.708466 142.171527 
" clip-path="url(#pa28a81f736)" style="fill: none; stroke: #cccccc; stroke-width: 0.8; stroke-linecap: round"/>
     </g>
     <g id="text_15">
      <!-- 1.2 -->
      <g style="fill: #262626" transform="translate(25.800625 146.466215) scale(0.12 -0.12)">
       <use xlink:href="#ArialMT-31"/>
       <use xlink:href="#ArialMT-2e" x="55.615234"/>
       <use xlink:href="#ArialMT-32" x="83.398438"/>
      </g>
     </g>
    </g>
    <g id="ytick_8">
     <g id="line2d_15">
      <path d="M 49.480625 89.102784 
L 882.708466 89.102784 
" clip-path="url(#pa28a81f736)" style="fill: none; stroke: #cccccc; stroke-width: 0.8; stroke-linecap: round"/>
     </g>
     <g id="text_16">
      <!-- 1.4 -->
      <g style="fill: #262626" transform="translate(25.800625 93.397472) scale(0.12 -0.12)">
       <use xlink:href="#ArialMT-31"/>
       <use xlink:href="#ArialMT-2e" x="55.615234"/>
       <use xlink:href="#ArialMT-34" x="83.398438"/>
      </g>
     </g>
    </g>
    <g id="ytick_9">
     <g id="line2d_16">
      <path d="M 49.480625 36.034042 
L 882.708466 36.034042 
" clip-path="url(#pa28a81f736)" style="fill: none; stroke: #cccccc; stroke-width: 0.8; stroke-linecap: round"/>
     </g>
     <g id="text_17">
      <!-- 1.6 -->
      <g style="fill: #262626" transform="translate(25.800625 40.328729) scale(0.12 -0.12)">
       <use xlink:href="#ArialMT-31"/>
       <use xlink:href="#ArialMT-2e" x="55.615234"/>
       <use xlink:href="#ArialMT-36" x="83.398438"/>
      </g>
     </g>
    </g>
    <g id="text_18">
     <!-- Amount (USDC) -->
     <g style="fill: #262626" transform="translate(19.275 296.435806) rotate(-90) scale(0.12 -0.12)">
      <defs>
       <path id="ArialMT-41" d="M -9 0 
L 1750 4581 
L 2403 4581 
L 4278 0 
L 3588 0 
L 3053 1388 
L 1138 1388 
L 634 0 
L -9 0 
z
M 1313 1881 
L 2866 1881 
L 2388 3150 
Q 2169 3728 2063 4100 
Q 1975 3659 1816 3225 
L 1313 1881 
z
" transform="scale(0.015625)"/>
       <path id="ArialMT-6d" d="M 422 0 
L 422 3319 
L 925 3319 
L 925 2853 
Q 1081 3097 1340 3245 
Q 1600 3394 1931 3394 
Q 2300 3394 2536 3241 
Q 2772 3088 2869 2813 
Q 3263 3394 3894 3394 
Q 4388 3394 4653 3120 
Q 4919 2847 4919 2278 
L 4919 0 
L 4359 0 
L 4359 2091 
Q 4359 2428 4304 2576 
Q 4250 2725 4106 2815 
Q 3963 2906 3769 2906 
Q 3419 2906 3187 2673 
Q 2956 2441 2956 1928 
L 2956 0 
L 2394 0 
L 2394 2156 
Q 2394 2531 2256 2718 
Q 2119 2906 1806 2906 
Q 1569 2906 1367 2781 
Q 1166 2656 1075 2415 
Q 984 2175 984 1722 
L 984 0 
L 422 0 
z
" transform="scale(0.015625)"/>
       <path id="ArialMT-6f" d="M 213 1659 
Q 213 2581 725 3025 
Q 1153 3394 1769 3394 
Q 2453 3394 2887 2945 
Q 3322 2497 3322 1706 
Q 3322 1066 3130 698 
Q 2938 331 2570 128 
Q 2203 -75 1769 -75 
Q 1072 -75 642 372 
Q 213 819 213 1659 
z
M 791 1659 
Q 791 1022 1069 705 
Q 1347 388 1769 388 
Q 2188 388 2466 706 
Q 2744 1025 2744 1678 
Q 2744 2294 2464 2611 
Q 2184 2928 1769 2928 
Q 1347 2928 1069 2612 
Q 791 2297 791 1659 
z
" transform="scale(0.015625)"/>
       <path id="ArialMT-75" d="M 2597 0 
L 2597 488 
Q 2209 -75 1544 -75 
Q 1250 -75 995 37 
Q 741 150 617 320 
Q 494 491 444 738 
Q 409 903 409 1263 
L 409 3319 
L 972 3319 
L 972 1478 
Q 972 1038 1006 884 
Q 1059 663 1231 536 
Q 1403 409 1656 409 
Q 1909 409 2131 539 
Q 2353 669 2445 892 
Q 2538 1116 2538 1541 
L 2538 3319 
L 3100 3319 
L 3100 0 
L 2597 0 
z
" transform="scale(0.015625)"/>
       <path id="ArialMT-6e" d="M 422 0 
L 422 3319 
L 928 3319 
L 928 2847 
Q 1294 3394 1984 3394 
Q 2284 3394 2536 3286 
Q 2788 3178 2913 3003 
Q 3038 2828 3088 2588 
Q 3119 2431 3119 2041 
L 3119 0 
L 2556 0 
L 2556 2019 
Q 2556 2363 2490 2533 
Q 2425 2703 2258 2804 
Q 2091 2906 1866 2906 
Q 1506 2906 1245 2678 
Q 984 2450 984 1813 
L 984 0 
L 422 0 
z
" transform="scale(0.015625)"/>
       <path id="ArialMT-20" transform="scale(0.015625)"/>
       <path id="ArialMT-28" d="M 1497 -1347 
Q 1031 -759 709 28 
Q 388 816 388 1659 
Q 388 2403 628 3084 
Q 909 3875 1497 4659 
L 1900 4659 
Q 1522 4009 1400 3731 
Q 1209 3300 1100 2831 
Q 966 2247 966 1656 
Q 966 153 1900 -1347 
L 1497 -1347 
z
" transform="scale(0.015625)"/>
       <path id="ArialMT-55" d="M 3500 4581 
L 4106 4581 
L 4106 1934 
Q 4106 1244 3950 837 
Q 3794 431 3386 176 
Q 2978 -78 2316 -78 
Q 1672 -78 1262 144 
Q 853 366 678 786 
Q 503 1206 503 1934 
L 503 4581 
L 1109 4581 
L 1109 1938 
Q 1109 1341 1220 1058 
Q 1331 775 1601 622 
Q 1872 469 2263 469 
Q 2931 469 3215 772 
Q 3500 1075 3500 1938 
L 3500 4581 
z
" transform="scale(0.015625)"/>
       <path id="ArialMT-53" d="M 288 1472 
L 859 1522 
Q 900 1178 1048 958 
Q 1197 738 1509 602 
Q 1822 466 2213 466 
Q 2559 466 2825 569 
Q 3091 672 3220 851 
Q 3350 1031 3350 1244 
Q 3350 1459 3225 1620 
Q 3100 1781 2813 1891 
Q 2628 1963 1997 2114 
Q 1366 2266 1113 2400 
Q 784 2572 623 2826 
Q 463 3081 463 3397 
Q 463 3744 659 4045 
Q 856 4347 1234 4503 
Q 1613 4659 2075 4659 
Q 2584 4659 2973 4495 
Q 3363 4331 3572 4012 
Q 3781 3694 3797 3291 
L 3216 3247 
Q 3169 3681 2898 3903 
Q 2628 4125 2100 4125 
Q 1550 4125 1298 3923 
Q 1047 3722 1047 3438 
Q 1047 3191 1225 3031 
Q 1400 2872 2139 2705 
Q 2878 2538 3153 2413 
Q 3553 2228 3743 1945 
Q 3934 1663 3934 1294 
Q 3934 928 3725 604 
Q 3516 281 3123 101 
Q 2731 -78 2241 -78 
Q 1619 -78 1198 103 
Q 778 284 539 648 
Q 300 1013 288 1472 
z
" transform="scale(0.015625)"/>
       <path id="ArialMT-43" d="M 3763 1606 
L 4369 1453 
Q 4178 706 3683 314 
Q 3188 -78 2472 -78 
Q 1731 -78 1267 223 
Q 803 525 561 1097 
Q 319 1669 319 2325 
Q 319 3041 592 3573 
Q 866 4106 1370 4382 
Q 1875 4659 2481 4659 
Q 3169 4659 3637 4309 
Q 4106 3959 4291 3325 
L 3694 3184 
Q 3534 3684 3231 3912 
Q 2928 4141 2469 4141 
Q 1941 4141 1586 3887 
Q 1231 3634 1087 3207 
Q 944 2781 944 2328 
Q 944 1744 1114 1308 
Q 1284 872 1643 656 
Q 2003 441 2422 441 
Q 2931 441 3284 734 
Q 3638 1028 3763 1606 
z
" transform="scale(0.015625)"/>
       <path id="ArialMT-29" d="M 791 -1347 
L 388 -1347 
Q 1322 153 1322 1656 
Q 1322 2244 1188 2822 
Q 1081 3291 891 3722 
Q 769 4003 388 4659 
L 791 4659 
Q 1378 3875 1659 3084 
Q 1900 2403 1900 1659 
Q 1900 816 1576 28 
Q 1253 -759 791 -1347 
z
" transform="scale(0.015625)"/>
      </defs>
      <use xlink:href="#ArialMT-41"/>
      <use xlink:href="#ArialMT-6d" x="66.699219"/>
      <use xlink:href="#ArialMT-6f" x="150"/>
      <use xlink:href="#ArialMT-75" x="205.615234"/>
      <use xlink:href="#ArialMT-6e" x="261.230469"/>
      <use xlink:href="#ArialMT-74" x="316.845703"/>
      <use xlink:href="#ArialMT-20" x="344.628906"/>
      <use xlink:href="#ArialMT-28" x="372.412109"/>
      <use xlink:href="#ArialMT-55" x="405.712891"/>
      <use xlink:href="#ArialMT-53" x="477.929688"/>
      <use xlink:href="#ArialMT-44" x="544.628906"/>
      <use xlink:href="#ArialMT-43" x="616.845703"/>
      <use xlink:href="#ArialMT-29" x="689.0625"/>
     </g>
    </g>
    <g id="text_19">
     <!-- 1e8 -->
     <g style="fill: #262626" transform="translate(49.480625 21.8575) scale(0.12 -0.12)">
      <use xlink:href="#ArialMT-31"/>
      <use xlink:href="#ArialMT-65" x="55.615234"/>
      <use xlink:href="#ArialMT-38" x="111.230469"/>
     </g>
    </g>
   </g>
   <g id="PolyCollection_1">
    <defs>
     <path id="m7e9fc0422f" d="M 87.354618 -398.521018 
L 87.354618 -398.521018 
L 114.55213 -398.521018 
L 141.749642 -399.048358 
L 168.947154 -399.242188 
L 196.144667 -400.12687 
L 223.342179 -400.402714 
L 250.539691 -401.973001 
L 277.737203 -412.945091 
L 304.772826 -416.520966 
L 331.970338 -424.035733 
L 359.16785 -442.723773 
L 386.365362 -424.175228 
L 413.562874 -429.829116 
L 440.760387 -428.606978 
L 467.957899 -442.02418 
L 495.155411 -467.752949 
L 522.352923 -472.787146 
L 549.550435 -473.699374 
L 576.747948 -464.484085 
L 603.94546 -465.54988 
L 631.142972 -538.152732 
L 658.340484 -560.323931 
L 685.537997 -569.120124 
L 712.735509 -587.016693 
L 739.933021 -676.327771 
L 767.130533 -707.186609 
L 794.328045 -717.564706 
L 821.525558 -729.882219 
L 844.834473 -731.075068 
L 844.834473 -398.521018 
L 844.834473 -398.521018 
L 821.525558 -398.521018 
L 794.328045 -398.521018 
L 767.130533 -398.521018 
L 739.933021 -398.521018 
L 712.735509 -398.521018 
L 685.537997 -398.521018 
L 658.340484 -398.521018 
L 631.142972 -398.521018 
L 603.94546 -398.521018 
L 576.747948 -398.521018 
L 549.550435 -398.521018 
L 522.352923 -398.521018 
L 495.155411 -398.521018 
L 467.957899 -398.521018 
L 440.760387 -398.521018 
L 413.562874 -398.521018 
L 386.365362 -398.521018 
L 359.16785 -398.521018 
L 331.970338 -398.521018 
L 304.772826 -398.521018 
L 277.737203 -398.521018 
L 250.539691 -398.521018 
L 223.342179 -398.521018 
L 196.144667 -398.521018 
L 168.947154 -398.521018 
L 141.749642 -398.521018 
L 114.55213 -398.521018 
L 87.354618 -398.521018 
z
" style="stroke: #ff0000; stroke-opacity: 0.2"/>
    </defs>
    <g clip-path="url(#pa28a81f736)">
     <use xlink:href="#m7e9fc0422f" x="0" y="859.105" style="fill: #ff0000; fill-opacity: 0.2; stroke: #ff0000; stroke-opacity: 0.2"/>
    </g>
   </g>
   <g id="PolyCollection_2">
    <defs>
     <path id="m29d96fa744" d="M 87.354618 -398.521018 
L 87.354618 -398.521018 
L 114.55213 -398.521018 
L 141.749642 -399.088771 
L 168.947154 -399.309911 
L 196.144667 -400.232926 
L 223.342179 -402.772114 
L 250.539691 -402.076941 
L 277.737203 -413.684843 
L 304.772826 -417.49801 
L 331.970338 -424.409241 
L 359.16785 -443.074792 
L 386.365362 -426.009082 
L 413.562874 -435.176894 
L 440.760387 -431.25215 
L 467.957899 -451.335634 
L 495.155411 -475.370672 
L 522.352923 -493.18476 
L 549.550435 -483.765019 
L 576.747948 -477.024361 
L 603.94546 -492.709041 
L 631.142972 -574.575008 
L 658.340484 -606.620296 
L 685.537997 -609.716513 
L 712.735509 -645.459987 
L 739.933021 -704.532998 
L 767.130533 -758.395545 
L 794.328045 -754.895533 
L 821.525558 -813.49862 
L 844.834473 -809.131797 
L 844.834473 -731.075068 
L 844.834473 -731.075068 
L 821.525558 -729.882219 
L 794.328045 -717.564706 
L 767.130533 -707.186609 
L 739.933021 -676.327771 
L 712.735509 -587.016693 
L 685.537997 -569.120124 
L 658.340484 -560.323931 
L 631.142972 -538.152732 
L 603.94546 -465.54988 
L 576.747948 -464.484085 
L 549.550435 -473.699374 
L 522.352923 -472.787146 
L 495.155411 -467.752949 
L 467.957899 -442.02418 
L 440.760387 -428.606978 
L 413.562874 -429.829116 
L 386.365362 -424.175228 
L 359.16785 -442.723773 
L 331.970338 -424.035733 
L 304.772826 -416.520966 
L 277.737203 -412.945091 
L 250.539691 -401.973001 
L 223.342179 -400.402714 
L 196.144667 -400.12687 
L 168.947154 -399.242188 
L 141.749642 -399.048358 
L 114.55213 -398.521018 
L 87.354618 -398.521018 
z
" style="stroke: #008000; stroke-opacity: 0.2"/>
    </defs>
    <g clip-path="url(#pa28a81f736)">
     <use xlink:href="#m29d96fa744" x="0" y="859.105" style="fill: #008000; fill-opacity: 0.2; stroke: #008000; stroke-opacity: 0.2"/>
    </g>
   </g>
   <g id="line2d_17">
    <path d="M 87.354618 460.583982 
L 114.55213 460.583982 
L 141.749642 460.016229 
L 168.947154 459.795089 
L 196.144667 458.872074 
L 223.342179 456.332886 
L 250.539691 457.028059 
L 277.737203 445.420157 
L 304.772826 441.60699 
L 331.970338 434.695759 
L 359.16785 416.030208 
L 386.365362 433.095918 
L 413.562874 423.928106 
L 440.760387 427.85285 
L 467.957899 407.769366 
L 495.155411 383.734328 
L 522.352923 365.92024 
L 549.550435 375.339981 
L 576.747948 382.080639 
L 603.94546 366.395959 
L 631.142972 284.529992 
L 658.340484 252.484704 
L 685.537997 249.388487 
L 712.735509 213.645013 
L 739.933021 154.572002 
L 767.130533 100.709455 
L 794.328045 104.209467 
L 821.525558 45.60638 
L 844.834473 49.973203 
" clip-path="url(#pa28a81f736)" style="fill: none; stroke: #0000ff; stroke-width: 2.5; stroke-linecap: round"/>
   </g>
   <g id="line2d_18">
    <path d="M 87.354618 460.583982 
L 114.55213 460.583982 
L 141.749642 460.056642 
L 168.947154 459.862812 
L 196.144667 458.97813 
L 223.342179 458.702286 
L 250.539691 457.131999 
L 277.737203 446.159909 
L 304.772826 442.584034 
L 331.970338 435.069267 
L 359.16785 416.381227 
L 386.365362 434.929772 
L 413.562874 429.275884 
L 440.760387 430.498022 
L 467.957899 417.08082 
L 495.155411 391.352051 
L 522.352923 386.317854 
L 549.550435 385.405626 
L 576.747948 394.620915 
L 603.94546 393.55512 
L 631.142972 320.952268 
L 658.340484 298.781069 
L 685.537997 289.984876 
L 712.735509 272.088307 
L 739.933021 182.777229 
L 767.130533 151.918391 
L 794.328045 141.540294 
L 821.525558 129.222781 
L 844.834473 128.029932 
" clip-path="url(#pa28a81f736)" style="fill: none; stroke: #ff0000; stroke-width: 2.5; stroke-linecap: round"/>
   </g>
   <g id="line2d_19">
    <path d="M 87.354618 460.583982 
L 114.55213 460.583982 
L 141.749642 460.543569 
L 168.947154 460.516259 
L 196.144667 460.477926 
L 223.342179 458.214582 
L 250.539691 460.480042 
L 277.737203 459.84423 
L 304.772826 459.606938 
L 331.970338 460.210474 
L 359.16785 460.232963 
L 386.365362 458.750129 
L 413.562874 455.236204 
L 440.760387 457.93881 
L 467.957899 451.272528 
L 495.155411 452.966259 
L 522.352923 440.186368 
L 549.550435 450.518338 
L 576.747948 448.043706 
L 603.94546 433.424822 
L 631.142972 424.161706 
L 658.340484 414.287618 
L 685.537997 419.987593 
L 712.735509 402.140689 
L 739.933021 432.378755 
L 767.130533 409.375046 
L 794.328045 423.253155 
L 821.525558 376.967582 
L 844.834473 382.527252 
" clip-path="url(#pa28a81f736)" style="fill: none; stroke: #008000; stroke-opacity: 0.7; stroke-width: 2; stroke-linecap: round"/>
   </g>
   <g id="patch_3">
    <path d="M 49.480625 481.332862 
L 49.480625 24.8575 
" style="fill: none; stroke: #cccccc; stroke-width: 0.8; stroke-linejoin: miter; stroke-linecap: square"/>
   </g>
   <g id="patch_4">
    <path d="M 882.708466 481.332862 
L 882.708466 24.8575 
" style="fill: none; stroke: #cccccc; stroke-width: 0.8; stroke-linejoin: miter; stroke-linecap: square"/>
   </g>
   <g id="patch_5">
    <path d="M 49.480625 481.332862 
L 882.708466 481.332862 
" style="fill: none; stroke: #cccccc; stroke-width: 0.8; stroke-linejoin: miter; stroke-linecap: square"/>
   </g>
   <g id="patch_6">
    <path d="M 49.480625 24.8575 
L 882.708466 24.8575 
" style="fill: none; stroke: #cccccc; stroke-width: 0.8; stroke-linejoin: miter; stroke-linecap: square"/>
   </g>
   <g id="text_20">
    <g id="patch_7">
     <path d="M 854.834473 46.098828 
L 981.597598 46.098828 
Q 985.197598 46.098828 985.197598 42.498828 
L 985.197598 31.237578 
Q 985.197598 27.637578 981.597598 27.637578 
L 854.834473 27.637578 
Q 851.234473 27.637578 851.234473 31.237578 
L 851.234473 42.498828 
Q 851.234473 46.098828 854.834473 46.098828 
z
" style="fill: #ffffff; opacity: 0.8; stroke: #0000ff; stroke-linejoin: miter"/>
    </g>
    <!-- Supply: 154,746,753.01 -->
    <g style="fill: #262626" transform="translate(854.834473 39.973203) scale(0.12 -0.12)">
     <defs>
      <path id="ArialMT-70" d="M 422 -1272 
L 422 3319 
L 934 3319 
L 934 2888 
Q 1116 3141 1344 3267 
Q 1572 3394 1897 3394 
Q 2322 3394 2647 3175 
Q 2972 2956 3137 2557 
Q 3303 2159 3303 1684 
Q 3303 1175 3120 767 
Q 2938 359 2589 142 
Q 2241 -75 1856 -75 
Q 1575 -75 1351 44 
Q 1128 163 984 344 
L 984 -1272 
L 422 -1272 
z
M 931 1641 
Q 931 1000 1190 694 
Q 1450 388 1819 388 
Q 2194 388 2461 705 
Q 2728 1022 2728 1688 
Q 2728 2322 2467 2637 
Q 2206 2953 1844 2953 
Q 1484 2953 1207 2617 
Q 931 2281 931 1641 
z
" transform="scale(0.015625)"/>
      <path id="ArialMT-6c" d="M 409 0 
L 409 4581 
L 972 4581 
L 972 0 
L 409 0 
z
" transform="scale(0.015625)"/>
      <path id="ArialMT-79" d="M 397 -1278 
L 334 -750 
Q 519 -800 656 -800 
Q 844 -800 956 -737 
Q 1069 -675 1141 -563 
Q 1194 -478 1313 -144 
Q 1328 -97 1363 -6 
L 103 3319 
L 709 3319 
L 1400 1397 
Q 1534 1031 1641 628 
Q 1738 1016 1872 1384 
L 2581 3319 
L 3144 3319 
L 1881 -56 
Q 1678 -603 1566 -809 
Q 1416 -1088 1222 -1217 
Q 1028 -1347 759 -1347 
Q 597 -1347 397 -1278 
z
" transform="scale(0.015625)"/>
      <path id="ArialMT-3a" d="M 578 2678 
L 578 3319 
L 1219 3319 
L 1219 2678 
L 578 2678 
z
M 578 0 
L 578 641 
L 1219 641 
L 1219 0 
L 578 0 
z
" transform="scale(0.015625)"/>
      <path id="ArialMT-2c" d="M 569 0 
L 569 641 
L 1209 641 
L 1209 0 
Q 1209 -353 1084 -570 
Q 959 -788 688 -906 
L 531 -666 
Q 709 -588 793 -436 
Q 878 -284 888 0 
L 569 0 
z
" transform="scale(0.015625)"/>
      <path id="ArialMT-37" d="M 303 3981 
L 303 4522 
L 3269 4522 
L 3269 4084 
Q 2831 3619 2401 2847 
Q 1972 2075 1738 1259 
Q 1569 684 1522 0 
L 944 0 
Q 953 541 1156 1306 
Q 1359 2072 1739 2783 
Q 2119 3494 2547 3981 
L 303 3981 
z
" transform="scale(0.015625)"/>
     </defs>
     <use xlink:href="#ArialMT-53"/>
     <use xlink:href="#ArialMT-75" x="66.699219"/>
     <use xlink:href="#ArialMT-70" x="122.314453"/>
     <use xlink:href="#ArialMT-70" x="177.929688"/>
     <use xlink:href="#ArialMT-6c" x="233.544922"/>
     <use xlink:href="#ArialMT-79" x="255.761719"/>
     <use xlink:href="#ArialMT-3a" x="305.761719"/>
     <use xlink:href="#ArialMT-20" x="333.544922"/>
     <use xlink:href="#ArialMT-31" x="361.328125"/>
     <use xlink:href="#ArialMT-35" x="416.943359"/>
     <use xlink:href="#ArialMT-34" x="472.558594"/>
     <use xlink:href="#ArialMT-2c" x="528.173828"/>
     <use xlink:href="#ArialMT-37" x="555.957031"/>
     <use xlink:href="#ArialMT-34" x="611.572266"/>
     <use xlink:href="#ArialMT-36" x="667.1875"/>
     <use xlink:href="#ArialMT-2c" x="722.802734"/>
     <use xlink:href="#ArialMT-37" x="750.585938"/>
     <use xlink:href="#ArialMT-35" x="806.201172"/>
     <use xlink:href="#ArialMT-33" x="861.816406"/>
     <use xlink:href="#ArialMT-2e" x="917.431641"/>
     <use xlink:href="#ArialMT-30" x="945.214844"/>
     <use xlink:href="#ArialMT-31" x="1000.830078"/>
    </g>
   </g>
   <g id="text_21">
    <g id="patch_8">
     <path d="M 854.834473 154.014932 
L 982.915723 154.014932 
Q 986.515723 154.014932 986.515723 150.414932 
L 986.515723 139.440557 
Q 986.515723 135.840557 982.915723 135.840557 
L 854.834473 135.840557 
Q 851.234473 135.840557 851.234473 139.440557 
L 851.234473 150.414932 
Q 851.234473 154.014932 854.834473 154.014932 
z
" style="fill: #ffffff; opacity: 0.8; stroke: #ff0000; stroke-linejoin: miter"/>
    </g>
    <!-- Borrow: 125,329,538.22 -->
    <g style="fill: #262626" transform="translate(854.834473 148.029932) scale(0.12 -0.12)">
     <defs>
      <path id="ArialMT-42" d="M 469 0 
L 469 4581 
L 2188 4581 
Q 2713 4581 3030 4442 
Q 3347 4303 3526 4014 
Q 3706 3725 3706 3409 
Q 3706 3116 3547 2856 
Q 3388 2597 3066 2438 
Q 3481 2316 3704 2022 
Q 3928 1728 3928 1328 
Q 3928 1006 3792 729 
Q 3656 453 3456 303 
Q 3256 153 2954 76 
Q 2653 0 2216 0 
L 469 0 
z
M 1075 2656 
L 2066 2656 
Q 2469 2656 2644 2709 
Q 2875 2778 2992 2937 
Q 3109 3097 3109 3338 
Q 3109 3566 3000 3739 
Q 2891 3913 2687 3977 
Q 2484 4041 1991 4041 
L 1075 4041 
L 1075 2656 
z
M 1075 541 
L 2216 541 
Q 2509 541 2628 563 
Q 2838 600 2978 687 
Q 3119 775 3209 942 
Q 3300 1109 3300 1328 
Q 3300 1584 3169 1773 
Q 3038 1963 2805 2039 
Q 2572 2116 2134 2116 
L 1075 2116 
L 1075 541 
z
" transform="scale(0.015625)"/>
      <path id="ArialMT-72" d="M 416 0 
L 416 3319 
L 922 3319 
L 922 2816 
Q 1116 3169 1280 3281 
Q 1444 3394 1641 3394 
Q 1925 3394 2219 3213 
L 2025 2691 
Q 1819 2813 1613 2813 
Q 1428 2813 1281 2702 
Q 1134 2591 1072 2394 
Q 978 2094 978 1738 
L 978 0 
L 416 0 
z
" transform="scale(0.015625)"/>
      <path id="ArialMT-77" d="M 1034 0 
L 19 3319 
L 600 3319 
L 1128 1403 
L 1325 691 
Q 1338 744 1497 1375 
L 2025 3319 
L 2603 3319 
L 3100 1394 
L 3266 759 
L 3456 1400 
L 4025 3319 
L 4572 3319 
L 3534 0 
L 2950 0 
L 2422 1988 
L 2294 2553 
L 1622 0 
L 1034 0 
z
" transform="scale(0.015625)"/>
     </defs>
     <use xlink:href="#ArialMT-42"/>
     <use xlink:href="#ArialMT-6f" x="66.699219"/>
     <use xlink:href="#ArialMT-72" x="122.314453"/>
     <use xlink:href="#ArialMT-72" x="155.615234"/>
     <use xlink:href="#ArialMT-6f" x="188.916016"/>
     <use xlink:href="#ArialMT-77" x="244.53125"/>
     <use xlink:href="#ArialMT-3a" x="316.748047"/>
     <use xlink:href="#ArialMT-20" x="344.53125"/>
     <use xlink:href="#ArialMT-31" x="372.314453"/>
     <use xlink:href="#ArialMT-32" x="427.929688"/>
     <use xlink:href="#ArialMT-35" x="483.544922"/>
     <use xlink:href="#ArialMT-2c" x="539.160156"/>
     <use xlink:href="#ArialMT-33" x="566.943359"/>
     <use xlink:href="#ArialMT-32" x="622.558594"/>
     <use xlink:href="#ArialMT-39" x="678.173828"/>
     <use xlink:href="#ArialMT-2c" x="733.789062"/>
     <use xlink:href="#ArialMT-35" x="761.572266"/>
     <use xlink:href="#ArialMT-33" x="817.1875"/>
     <use xlink:href="#ArialMT-38" x="872.802734"/>
     <use xlink:href="#ArialMT-2e" x="928.417969"/>
     <use xlink:href="#ArialMT-32" x="956.201172"/>
     <use xlink:href="#ArialMT-32" x="1011.816406"/>
    </g>
   </g>
   <g id="text_22">
    <g id="patch_9">
     <path d="M 854.834473 378.512252 
L 986.720098 378.512252 
Q 990.320098 378.512252 990.320098 374.912252 
L 990.320098 363.937877 
Q 990.320098 360.337877 986.720098 360.337877 
L 854.834473 360.337877 
Q 851.234473 360.337877 851.234473 363.937877 
L 851.234473 374.912252 
Q 851.234473 378.512252 854.834473 378.512252 
z
" style="fill: #ffffff; opacity: 0.8; stroke: #008000; stroke-linejoin: miter"/>
    </g>
    <!-- Available: 29,417,214.80 -->
    <g style="fill: #262626" transform="translate(854.834473 372.527252) scale(0.12 -0.12)">
     <defs>
      <path id="ArialMT-76" d="M 1344 0 
L 81 3319 
L 675 3319 
L 1388 1331 
Q 1503 1009 1600 663 
Q 1675 925 1809 1294 
L 2547 3319 
L 3125 3319 
L 1869 0 
L 1344 0 
z
" transform="scale(0.015625)"/>
      <path id="ArialMT-69" d="M 425 3934 
L 425 4581 
L 988 4581 
L 988 3934 
L 425 3934 
z
M 425 0 
L 425 3319 
L 988 3319 
L 988 0 
L 425 0 
z
" transform="scale(0.015625)"/>
      <path id="ArialMT-62" d="M 941 0 
L 419 0 
L 419 4581 
L 981 4581 
L 981 2947 
Q 1338 3394 1891 3394 
Q 2197 3394 2470 3270 
Q 2744 3147 2920 2923 
Q 3097 2700 3197 2384 
Q 3297 2069 3297 1709 
Q 3297 856 2875 390 
Q 2453 -75 1863 -75 
Q 1275 -75 941 416 
L 941 0 
z
M 934 1684 
Q 934 1088 1097 822 
Q 1363 388 1816 388 
Q 2184 388 2453 708 
Q 2722 1028 2722 1663 
Q 2722 2313 2464 2622 
Q 2206 2931 1841 2931 
Q 1472 2931 1203 2611 
Q 934 2291 934 1684 
z
" transform="scale(0.015625)"/>
     </defs>
     <use xlink:href="#ArialMT-41"/>
     <use xlink:href="#ArialMT-76" x="64.949219"/>
     <use xlink:href="#ArialMT-61" x="114.949219"/>
     <use xlink:href="#ArialMT-69" x="170.564453"/>
     <use xlink:href="#ArialMT-6c" x="192.78125"/>
     <use xlink:href="#ArialMT-61" x="214.998047"/>
     <use xlink:href="#ArialMT-62" x="270.613281"/>
     <use xlink:href="#ArialMT-6c" x="326.228516"/>
     <use xlink:href="#ArialMT-65" x="348.445312"/>
     <use xlink:href="#ArialMT-3a" x="404.060547"/>
     <use xlink:href="#ArialMT-20" x="431.84375"/>
     <use xlink:href="#ArialMT-32" x="459.626953"/>
     <use xlink:href="#ArialMT-39" x="515.242188"/>
     <use xlink:href="#ArialMT-2c" x="570.857422"/>
     <use xlink:href="#ArialMT-34" x="598.640625"/>
     <use xlink:href="#ArialMT-31" x="654.255859"/>
     <use xlink:href="#ArialMT-37" x="709.871094"/>
     <use xlink:href="#ArialMT-2c" x="765.486328"/>
     <use xlink:href="#ArialMT-32" x="793.269531"/>
     <use xlink:href="#ArialMT-31" x="848.884766"/>
     <use xlink:href="#ArialMT-34" x="904.5"/>
     <use xlink:href="#ArialMT-2e" x="960.115234"/>
     <use xlink:href="#ArialMT-38" x="987.898438"/>
     <use xlink:href="#ArialMT-30" x="1043.513672"/>
    </g>
   </g>
   <g id="text_23">
    <!-- cbBTC/USDC Market - Supply and Borrow Assets Over Time -->
    <g style="fill: #262626" transform="translate(250.479545 18.8575) scale(0.16 -0.16)">
     <defs>
      <path id="ArialMT-63" d="M 2588 1216 
L 3141 1144 
Q 3050 572 2676 248 
Q 2303 -75 1759 -75 
Q 1078 -75 664 370 
Q 250 816 250 1647 
Q 250 2184 428 2587 
Q 606 2991 970 3192 
Q 1334 3394 1763 3394 
Q 2303 3394 2647 3120 
Q 2991 2847 3088 2344 
L 2541 2259 
Q 2463 2594 2264 2762 
Q 2066 2931 1784 2931 
Q 1359 2931 1093 2626 
Q 828 2322 828 1663 
Q 828 994 1084 691 
Q 1341 388 1753 388 
Q 2084 388 2306 591 
Q 2528 794 2588 1216 
z
" transform="scale(0.015625)"/>
      <path id="ArialMT-54" d="M 1659 0 
L 1659 4041 
L 150 4041 
L 150 4581 
L 3781 4581 
L 3781 4041 
L 2266 4041 
L 2266 0 
L 1659 0 
z
" transform="scale(0.015625)"/>
      <path id="ArialMT-2f" d="M 0 -78 
L 1328 4659 
L 1778 4659 
L 453 -78 
L 0 -78 
z
" transform="scale(0.015625)"/>
      <path id="ArialMT-4d" d="M 475 0 
L 475 4581 
L 1388 4581 
L 2472 1338 
Q 2622 884 2691 659 
Q 2769 909 2934 1394 
L 4031 4581 
L 4847 4581 
L 4847 0 
L 4263 0 
L 4263 3834 
L 2931 0 
L 2384 0 
L 1059 3900 
L 1059 0 
L 475 0 
z
" transform="scale(0.015625)"/>
      <path id="ArialMT-6b" d="M 425 0 
L 425 4581 
L 988 4581 
L 988 1969 
L 2319 3319 
L 3047 3319 
L 1778 2088 
L 3175 0 
L 2481 0 
L 1384 1697 
L 988 1316 
L 988 0 
L 425 0 
z
" transform="scale(0.015625)"/>
      <path id="ArialMT-64" d="M 2575 0 
L 2575 419 
Q 2259 -75 1647 -75 
Q 1250 -75 917 144 
Q 584 363 401 755 
Q 219 1147 219 1656 
Q 219 2153 384 2558 
Q 550 2963 881 3178 
Q 1213 3394 1622 3394 
Q 1922 3394 2156 3267 
Q 2391 3141 2538 2938 
L 2538 4581 
L 3097 4581 
L 3097 0 
L 2575 0 
z
M 797 1656 
Q 797 1019 1065 703 
Q 1334 388 1700 388 
Q 2069 388 2326 689 
Q 2584 991 2584 1609 
Q 2584 2291 2321 2609 
Q 2059 2928 1675 2928 
Q 1300 2928 1048 2622 
Q 797 2316 797 1656 
z
" transform="scale(0.015625)"/>
      <path id="ArialMT-73" d="M 197 991 
L 753 1078 
Q 800 744 1014 566 
Q 1228 388 1613 388 
Q 2000 388 2187 545 
Q 2375 703 2375 916 
Q 2375 1106 2209 1216 
Q 2094 1291 1634 1406 
Q 1016 1563 777 1677 
Q 538 1791 414 1992 
Q 291 2194 291 2438 
Q 291 2659 392 2848 
Q 494 3038 669 3163 
Q 800 3259 1026 3326 
Q 1253 3394 1513 3394 
Q 1903 3394 2198 3281 
Q 2494 3169 2634 2976 
Q 2775 2784 2828 2463 
L 2278 2388 
Q 2241 2644 2061 2787 
Q 1881 2931 1553 2931 
Q 1166 2931 1000 2803 
Q 834 2675 834 2503 
Q 834 2394 903 2306 
Q 972 2216 1119 2156 
Q 1203 2125 1616 2013 
Q 2213 1853 2448 1751 
Q 2684 1650 2818 1456 
Q 2953 1263 2953 975 
Q 2953 694 2789 445 
Q 2625 197 2315 61 
Q 2006 -75 1616 -75 
Q 969 -75 630 194 
Q 291 463 197 991 
z
" transform="scale(0.015625)"/>
      <path id="ArialMT-4f" d="M 309 2231 
Q 309 3372 921 4017 
Q 1534 4663 2503 4663 
Q 3138 4663 3647 4359 
Q 4156 4056 4423 3514 
Q 4691 2972 4691 2284 
Q 4691 1588 4409 1038 
Q 4128 488 3612 205 
Q 3097 -78 2500 -78 
Q 1853 -78 1343 234 
Q 834 547 571 1087 
Q 309 1628 309 2231 
z
M 934 2222 
Q 934 1394 1379 917 
Q 1825 441 2497 441 
Q 3181 441 3623 922 
Q 4066 1403 4066 2288 
Q 4066 2847 3877 3264 
Q 3688 3681 3323 3911 
Q 2959 4141 2506 4141 
Q 1863 4141 1398 3698 
Q 934 3256 934 2222 
z
" transform="scale(0.015625)"/>
     </defs>
     <use xlink:href="#ArialMT-63"/>
     <use xlink:href="#ArialMT-62" x="50"/>
     <use xlink:href="#ArialMT-42" x="105.615234"/>
     <use xlink:href="#ArialMT-54" x="172.314453"/>
     <use xlink:href="#ArialMT-43" x="233.398438"/>
     <use xlink:href="#ArialMT-2f" x="305.615234"/>
     <use xlink:href="#ArialMT-55" x="333.398438"/>
     <use xlink:href="#ArialMT-53" x="405.615234"/>
     <use xlink:href="#ArialMT-44" x="472.314453"/>
     <use xlink:href="#ArialMT-43" x="544.53125"/>
     <use xlink:href="#ArialMT-20" x="616.748047"/>
     <use xlink:href="#ArialMT-4d" x="644.53125"/>
     <use xlink:href="#ArialMT-61" x="727.832031"/>
     <use xlink:href="#ArialMT-72" x="783.447266"/>
     <use xlink:href="#ArialMT-6b" x="816.748047"/>
     <use xlink:href="#ArialMT-65" x="866.748047"/>
     <use xlink:href="#ArialMT-74" x="922.363281"/>
     <use xlink:href="#ArialMT-20" x="950.146484"/>
     <use xlink:href="#ArialMT-2d" x="977.929688"/>
     <use xlink:href="#ArialMT-20" x="1011.230469"/>
     <use xlink:href="#ArialMT-53" x="1039.013672"/>
     <use xlink:href="#ArialMT-75" x="1105.712891"/>
     <use xlink:href="#ArialMT-70" x="1161.328125"/>
     <use xlink:href="#ArialMT-70" x="1216.943359"/>
     <use xlink:href="#ArialMT-6c" x="1272.558594"/>
     <use xlink:href="#ArialMT-79" x="1294.775391"/>
     <use xlink:href="#ArialMT-20" x="1344.775391"/>
     <use xlink:href="#ArialMT-61" x="1372.558594"/>
     <use xlink:href="#ArialMT-6e" x="1428.173828"/>
     <use xlink:href="#ArialMT-64" x="1483.789062"/>
     <use xlink:href="#ArialMT-20" x="1539.404297"/>
     <use xlink:href="#ArialMT-42" x="1567.1875"/>
     <use xlink:href="#ArialMT-6f" x="1633.886719"/>
     <use xlink:href="#ArialMT-72" x="1689.501953"/>
     <use xlink:href="#ArialMT-72" x="1722.802734"/>
     <use xlink:href="#ArialMT-6f" x="1756.103516"/>
     <use xlink:href="#ArialMT-77" x="1811.71875"/>
     <use xlink:href="#ArialMT-20" x="1883.935547"/>
     <use xlink:href="#ArialMT-41" x="1906.21875"/>
     <use xlink:href="#ArialMT-73" x="1972.917969"/>
     <use xlink:href="#ArialMT-73" x="2022.917969"/>
     <use xlink:href="#ArialMT-65" x="2072.917969"/>
     <use xlink:href="#ArialMT-74" x="2128.533203"/>
     <use xlink:href="#ArialMT-73" x="2156.316406"/>
     <use xlink:href="#ArialMT-20" x="2206.316406"/>
     <use xlink:href="#ArialMT-4f" x="2234.099609"/>
     <use xlink:href="#ArialMT-76" x="2311.882812"/>
     <use xlink:href="#ArialMT-65" x="2361.882812"/>
     <use xlink:href="#ArialMT-72" x="2417.498047"/>
     <use xlink:href="#ArialMT-20" x="2450.798828"/>
     <use xlink:href="#ArialMT-54" x="2476.832031"/>
     <use xlink:href="#ArialMT-69" x="2534.166016"/>
     <use xlink:href="#ArialMT-6d" x="2556.382812"/>
     <use xlink:href="#ArialMT-65" x="2639.683594"/>
    </g>
   </g>
   <g id="legend_1">
    <g id="patch_10">
     <path d="M 57.880625 86.24125 
L 237.453125 86.24125 
Q 239.853125 86.24125 239.853125 83.84125 
L 239.853125 33.2575 
Q 239.853125 30.8575 237.453125 30.8575 
L 57.880625 30.8575 
Q 55.480625 30.8575 55.480625 33.2575 
L 55.480625 83.84125 
Q 55.480625 86.24125 57.880625 86.24125 
z
" style="fill: #ffffff; opacity: 0.8; stroke: #cccccc; stroke-linejoin: miter"/>
    </g>
    <g id="line2d_20">
     <path d="M 60.280625 40.193125 
L 72.280625 40.193125 
L 84.280625 40.193125 
" style="fill: none; stroke: #0000ff; stroke-width: 2.5; stroke-linecap: round"/>
    </g>
    <g id="text_24">
     <!-- Total Supply (USDC) -->
     <g style="fill: #262626" transform="translate(93.880625 44.393125) scale(0.12 -0.12)">
      <use xlink:href="#ArialMT-54"/>
      <use xlink:href="#ArialMT-6f" x="49.958984"/>
      <use xlink:href="#ArialMT-74" x="105.574219"/>
      <use xlink:href="#ArialMT-61" x="133.357422"/>
      <use xlink:href="#ArialMT-6c" x="188.972656"/>
      <use xlink:href="#ArialMT-20" x="211.189453"/>
      <use xlink:href="#ArialMT-53" x="238.972656"/>
      <use xlink:href="#ArialMT-75" x="305.671875"/>
      <use xlink:href="#ArialMT-70" x="361.287109"/>
      <use xlink:href="#ArialMT-70" x="416.902344"/>
      <use xlink:href="#ArialMT-6c" x="472.517578"/>
      <use xlink:href="#ArialMT-79" x="494.734375"/>
      <use xlink:href="#ArialMT-20" x="544.734375"/>
      <use xlink:href="#ArialMT-28" x="572.517578"/>
      <use xlink:href="#ArialMT-55" x="605.818359"/>
      <use xlink:href="#ArialMT-53" x="678.035156"/>
      <use xlink:href="#ArialMT-44" x="744.734375"/>
      <use xlink:href="#ArialMT-43" x="816.951172"/>
      <use xlink:href="#ArialMT-29" x="889.167969"/>
     </g>
    </g>
    <g id="line2d_21">
     <path d="M 60.280625 57.454375 
L 72.280625 57.454375 
L 84.280625 57.454375 
" style="fill: none; stroke: #ff0000; stroke-width: 2.5; stroke-linecap: round"/>
    </g>
    <g id="text_25">
     <!-- Total Borrow (USDC) -->
     <g style="fill: #262626" transform="translate(93.880625 61.654375) scale(0.12 -0.12)">
      <use xlink:href="#ArialMT-54"/>
      <use xlink:href="#ArialMT-6f" x="49.958984"/>
      <use xlink:href="#ArialMT-74" x="105.574219"/>
      <use xlink:href="#ArialMT-61" x="133.357422"/>
      <use xlink:href="#ArialMT-6c" x="188.972656"/>
      <use xlink:href="#ArialMT-20" x="211.189453"/>
      <use xlink:href="#ArialMT-42" x="238.972656"/>
      <use xlink:href="#ArialMT-6f" x="305.671875"/>
      <use xlink:href="#ArialMT-72" x="361.287109"/>
      <use xlink:href="#ArialMT-72" x="394.587891"/>
      <use xlink:href="#ArialMT-6f" x="427.888672"/>
      <use xlink:href="#ArialMT-77" x="483.503906"/>
      <use xlink:href="#ArialMT-20" x="555.720703"/>
      <use xlink:href="#ArialMT-28" x="583.503906"/>
      <use xlink:href="#ArialMT-55" x="616.804688"/>
      <use xlink:href="#ArialMT-53" x="689.021484"/>
      <use xlink:href="#ArialMT-44" x="755.720703"/>
      <use xlink:href="#ArialMT-43" x="827.9375"/>
      <use xlink:href="#ArialMT-29" x="900.154297"/>
     </g>
    </g>
    <g id="line2d_22">
     <path d="M 60.280625 74.715625 
L 72.280625 74.715625 
L 84.280625 74.715625 
" style="fill: none; stroke: #008000; stroke-opacity: 0.7; stroke-width: 2; stroke-linecap: round"/>
    </g>
    <g id="text_26">
     <!-- Available Liquidity (USDC) -->
     <g style="fill: #262626" transform="translate(93.880625 78.915625) scale(0.12 -0.12)">
      <defs>
       <path id="ArialMT-4c" d="M 469 0 
L 469 4581 
L 1075 4581 
L 1075 541 
L 3331 541 
L 3331 0 
L 469 0 
z
" transform="scale(0.015625)"/>
       <path id="ArialMT-71" d="M 2538 -1272 
L 2538 353 
Q 2406 169 2170 47 
Q 1934 -75 1669 -75 
Q 1078 -75 651 397 
Q 225 869 225 1691 
Q 225 2191 398 2587 
Q 572 2984 901 3189 
Q 1231 3394 1625 3394 
Q 2241 3394 2594 2875 
L 2594 3319 
L 3100 3319 
L 3100 -1272 
L 2538 -1272 
z
M 803 1669 
Q 803 1028 1072 708 
Q 1341 388 1716 388 
Q 2075 388 2334 692 
Q 2594 997 2594 1619 
Q 2594 2281 2320 2615 
Q 2047 2950 1678 2950 
Q 1313 2950 1058 2639 
Q 803 2328 803 1669 
z
" transform="scale(0.015625)"/>
      </defs>
      <use xlink:href="#ArialMT-41"/>
      <use xlink:href="#ArialMT-76" x="64.949219"/>
      <use xlink:href="#ArialMT-61" x="114.949219"/>
      <use xlink:href="#ArialMT-69" x="170.564453"/>
      <use xlink:href="#ArialMT-6c" x="192.78125"/>
      <use xlink:href="#ArialMT-61" x="214.998047"/>
      <use xlink:href="#ArialMT-62" x="270.613281"/>
      <use xlink:href="#ArialMT-6c" x="326.228516"/>
      <use xlink:href="#ArialMT-65" x="348.445312"/>
      <use xlink:href="#ArialMT-20" x="404.060547"/>
      <use xlink:href="#ArialMT-4c" x="431.84375"/>
      <use xlink:href="#ArialMT-69" x="487.458984"/>
      <use xlink:href="#ArialMT-71" x="509.675781"/>
      <use xlink:href="#ArialMT-75" x="565.291016"/>
      <use xlink:href="#ArialMT-69" x="620.90625"/>
      <use xlink:href="#ArialMT-64" x="643.123047"/>
      <use xlink:href="#ArialMT-69" x="698.738281"/>
      <use xlink:href="#ArialMT-74" x="720.955078"/>
      <use xlink:href="#ArialMT-79" x="748.738281"/>
      <use xlink:href="#ArialMT-20" x="798.738281"/>
      <use xlink:href="#ArialMT-28" x="826.521484"/>
      <use xlink:href="#ArialMT-55" x="859.822266"/>
      <use xlink:href="#ArialMT-53" x="932.039062"/>
      <use xlink:href="#ArialMT-44" x="998.738281"/>
      <use xlink:href="#ArialMT-43" x="1070.955078"/>
      <use xlink:href="#ArialMT-29" x="1143.171875"/>
     </g>
    </g>
   </g>
  </g>
  <g id="axes_2">
   <g id="patch_11">
    <path d="M 49.480625 812.2775 
L 882.708466 812.2775 
L 882.708466 584.039819 
L 49.480625 584.039819 
z
" style="fill: #ffffff"/>
   </g>
   <g id="matplotlib.axis_3">
    <g id="xtick_8">
     <g id="line2d_23">
      <path d="M 73.786936 812.2775 
L 73.786936 584.039819 
" clip-path="url(#p4fdbc7cb74)" style="fill: none; stroke: #cccccc; stroke-width: 0.8; stroke-linecap: round"/>
     </g>
     <g id="text_27">
      <!-- 2024-09-01 -->
      <g style="fill: #262626" transform="translate(43.098811 827.866875) scale(0.12 -0.12)">
       <use xlink:href="#ArialMT-32"/>
       <use xlink:href="#ArialMT-30" x="55.615234"/>
       <use xlink:href="#ArialMT-32" x="111.230469"/>
       <use xlink:href="#ArialMT-34" x="166.845703"/>
       <use xlink:href="#ArialMT-2d" x="222.460938"/>
       <use xlink:href="#ArialMT-30" x="255.761719"/>
       <use xlink:href="#ArialMT-39" x="311.376953"/>
       <use xlink:href="#ArialMT-2d" x="366.992188"/>
       <use xlink:href="#ArialMT-30" x="400.292969"/>
       <use xlink:href="#ArialMT-31" x="455.908203"/>
      </g>
     </g>
    </g>
    <g id="xtick_9">
     <g id="line2d_24">
      <path d="M 190.347702 812.2775 
L 190.347702 584.039819 
" clip-path="url(#p4fdbc7cb74)" style="fill: none; stroke: #cccccc; stroke-width: 0.8; stroke-linecap: round"/>
     </g>
     <g id="text_28">
      <!-- 2024-10-01 -->
      <g style="fill: #262626" transform="translate(159.659577 827.866875) scale(0.12 -0.12)">
       <use xlink:href="#ArialMT-32"/>
       <use xlink:href="#ArialMT-30" x="55.615234"/>
       <use xlink:href="#ArialMT-32" x="111.230469"/>
       <use xlink:href="#ArialMT-34" x="166.845703"/>
       <use xlink:href="#ArialMT-2d" x="222.460938"/>
       <use xlink:href="#ArialMT-31" x="255.761719"/>
       <use xlink:href="#ArialMT-30" x="311.376953"/>
       <use xlink:href="#ArialMT-2d" x="366.992188"/>
       <use xlink:href="#ArialMT-30" x="400.292969"/>
       <use xlink:href="#ArialMT-31" x="455.908203"/>
      </g>
     </g>
    </g>
    <g id="xtick_10">
     <g id="line2d_25">
      <path d="M 310.793828 812.2775 
L 310.793828 584.039819 
" clip-path="url(#p4fdbc7cb74)" style="fill: none; stroke: #cccccc; stroke-width: 0.8; stroke-linecap: round"/>
     </g>
     <g id="text_29">
      <!-- 2024-11-01 -->
      <g style="fill: #262626" transform="translate(280.548203 827.866875) scale(0.12 -0.12)">
       <use xlink:href="#ArialMT-32"/>
       <use xlink:href="#ArialMT-30" x="55.615234"/>
       <use xlink:href="#ArialMT-32" x="111.230469"/>
       <use xlink:href="#ArialMT-34" x="166.845703"/>
       <use xlink:href="#ArialMT-2d" x="222.460938"/>
       <use xlink:href="#ArialMT-31" x="255.761719"/>
       <use xlink:href="#ArialMT-31" x="304.001953"/>
       <use xlink:href="#ArialMT-2d" x="359.617188"/>
       <use xlink:href="#ArialMT-30" x="392.917969"/>
       <use xlink:href="#ArialMT-31" x="448.533203"/>
      </g>
     </g>
    </g>
    <g id="xtick_11">
     <g id="line2d_26">
      <path d="M 427.354594 812.2775 
L 427.354594 584.039819 
" clip-path="url(#p4fdbc7cb74)" style="fill: none; stroke: #cccccc; stroke-width: 0.8; stroke-linecap: round"/>
     </g>
     <g id="text_30">
      <!-- 2024-12-01 -->
      <g style="fill: #262626" transform="translate(396.666469 827.866875) scale(0.12 -0.12)">
       <use xlink:href="#ArialMT-32"/>
       <use xlink:href="#ArialMT-30" x="55.615234"/>
       <use xlink:href="#ArialMT-32" x="111.230469"/>
       <use xlink:href="#ArialMT-34" x="166.845703"/>
       <use xlink:href="#ArialMT-2d" x="222.460938"/>
       <use xlink:href="#ArialMT-31" x="255.761719"/>
       <use xlink:href="#ArialMT-32" x="311.376953"/>
       <use xlink:href="#ArialMT-2d" x="366.992188"/>
       <use xlink:href="#ArialMT-30" x="400.292969"/>
       <use xlink:href="#ArialMT-31" x="455.908203"/>
      </g>
     </g>
    </g>
    <g id="xtick_12">
     <g id="line2d_27">
      <path d="M 547.80072 812.2775 
L 547.80072 584.039819 
" clip-path="url(#p4fdbc7cb74)" style="fill: none; stroke: #cccccc; stroke-width: 0.8; stroke-linecap: round"/>
     </g>
     <g id="text_31">
      <!-- 2025-01-01 -->
      <g style="fill: #262626" transform="translate(517.112595 827.866875) scale(0.12 -0.12)">
       <use xlink:href="#ArialMT-32"/>
       <use xlink:href="#ArialMT-30" x="55.615234"/>
       <use xlink:href="#ArialMT-32" x="111.230469"/>
       <use xlink:href="#ArialMT-35" x="166.845703"/>
       <use xlink:href="#ArialMT-2d" x="222.460938"/>
       <use xlink:href="#ArialMT-30" x="255.761719"/>
       <use xlink:href="#ArialMT-31" x="311.376953"/>
       <use xlink:href="#ArialMT-2d" x="366.992188"/>
       <use xlink:href="#ArialMT-30" x="400.292969"/>
       <use xlink:href="#ArialMT-31" x="455.908203"/>
      </g>
     </g>
    </g>
    <g id="xtick_13">
     <g id="line2d_28">
      <path d="M 668.246845 812.2775 
L 668.246845 584.039819 
" clip-path="url(#p4fdbc7cb74)" style="fill: none; stroke: #cccccc; stroke-width: 0.8; stroke-linecap: round"/>
     </g>
     <g id="text_32">
      <!-- 2025-02-01 -->
      <g style="fill: #262626" transform="translate(637.55872 827.866875) scale(0.12 -0.12)">
       <use xlink:href="#ArialMT-32"/>
       <use xlink:href="#ArialMT-30" x="55.615234"/>
       <use xlink:href="#ArialMT-32" x="111.230469"/>
       <use xlink:href="#ArialMT-35" x="166.845703"/>
       <use xlink:href="#ArialMT-2d" x="222.460938"/>
       <use xlink:href="#ArialMT-30" x="255.761719"/>
       <use xlink:href="#ArialMT-32" x="311.376953"/>
       <use xlink:href="#ArialMT-2d" x="366.992188"/>
       <use xlink:href="#ArialMT-30" x="400.292969"/>
       <use xlink:href="#ArialMT-31" x="455.908203"/>
      </g>
     </g>
    </g>
    <g id="xtick_14">
     <g id="line2d_29">
      <path d="M 777.036894 812.2775 
L 777.036894 584.039819 
" clip-path="url(#p4fdbc7cb74)" style="fill: none; stroke: #cccccc; stroke-width: 0.8; stroke-linecap: round"/>
     </g>
     <g id="text_33">
      <!-- 2025-03-01 -->
      <g style="fill: #262626" transform="translate(746.348769 827.866875) scale(0.12 -0.12)">
       <use xlink:href="#ArialMT-32"/>
       <use xlink:href="#ArialMT-30" x="55.615234"/>
       <use xlink:href="#ArialMT-32" x="111.230469"/>
       <use xlink:href="#ArialMT-35" x="166.845703"/>
       <use xlink:href="#ArialMT-2d" x="222.460938"/>
       <use xlink:href="#ArialMT-30" x="255.761719"/>
       <use xlink:href="#ArialMT-33" x="311.376953"/>
       <use xlink:href="#ArialMT-2d" x="366.992188"/>
       <use xlink:href="#ArialMT-30" x="400.292969"/>
       <use xlink:href="#ArialMT-31" x="455.908203"/>
      </g>
     </g>
    </g>
    <g id="text_34">
     <!-- Date -->
     <g style="fill: #262626" transform="translate(453.42142 842.84125) scale(0.12 -0.12)">
      <use xlink:href="#ArialMT-44"/>
      <use xlink:href="#ArialMT-61" x="72.216797"/>
      <use xlink:href="#ArialMT-74" x="127.832031"/>
      <use xlink:href="#ArialMT-65" x="155.615234"/>
     </g>
    </g>
   </g>
   <g id="matplotlib.axis_4">
    <g id="ytick_10">
     <g id="line2d_30">
      <path d="M 49.480625 812.2775 
L 882.708466 812.2775 
" clip-path="url(#p4fdbc7cb74)" style="fill: none; stroke: #cccccc; stroke-width: 0.8; stroke-linecap: round"/>
     </g>
     <g id="text_35">
      <!-- 0 -->
      <g style="fill: #262626" transform="translate(35.8075 816.572187) scale(0.12 -0.12)">
       <use xlink:href="#ArialMT-30"/>
      </g>
     </g>
    </g>
    <g id="ytick_11">
     <g id="line2d_31">
      <path d="M 49.480625 768.803656 
L 882.708466 768.803656 
" clip-path="url(#p4fdbc7cb74)" style="fill: none; stroke: #cccccc; stroke-width: 0.8; stroke-linecap: round"/>
     </g>
     <g id="text_36">
      <!-- 20 -->
      <g style="fill: #262626" transform="translate(29.134375 773.098343) scale(0.12 -0.12)">
       <use xlink:href="#ArialMT-32"/>
       <use xlink:href="#ArialMT-30" x="55.615234"/>
      </g>
     </g>
    </g>
    <g id="ytick_12">
     <g id="line2d_32">
      <path d="M 49.480625 725.329812 
L 882.708466 725.329812 
" clip-path="url(#p4fdbc7cb74)" style="fill: none; stroke: #cccccc; stroke-width: 0.8; stroke-linecap: round"/>
     </g>
     <g id="text_37">
      <!-- 40 -->
      <g style="fill: #262626" transform="translate(29.134375 729.624499) scale(0.12 -0.12)">
       <use xlink:href="#ArialMT-34"/>
       <use xlink:href="#ArialMT-30" x="55.615234"/>
      </g>
     </g>
    </g>
    <g id="ytick_13">
     <g id="line2d_33">
      <path d="M 49.480625 681.855968 
L 882.708466 681.855968 
" clip-path="url(#p4fdbc7cb74)" style="fill: none; stroke: #cccccc; stroke-width: 0.8; stroke-linecap: round"/>
     </g>
     <g id="text_38">
      <!-- 60 -->
      <g style="fill: #262626" transform="translate(29.134375 686.150655) scale(0.12 -0.12)">
       <use xlink:href="#ArialMT-36"/>
       <use xlink:href="#ArialMT-30" x="55.615234"/>
      </g>
     </g>
    </g>
    <g id="ytick_14">
     <g id="line2d_34">
      <path d="M 49.480625 638.382124 
L 882.708466 638.382124 
" clip-path="url(#p4fdbc7cb74)" style="fill: none; stroke: #cccccc; stroke-width: 0.8; stroke-linecap: round"/>
     </g>
     <g id="text_39">
      <!-- 80 -->
      <g style="fill: #262626" transform="translate(29.134375 642.676811) scale(0.12 -0.12)">
       <use xlink:href="#ArialMT-38"/>
       <use xlink:href="#ArialMT-30" x="55.615234"/>
      </g>
     </g>
    </g>
    <g id="ytick_15">
     <g id="line2d_35">
      <path d="M 49.480625 594.90828 
L 882.708466 594.90828 
" clip-path="url(#p4fdbc7cb74)" style="fill: none; stroke: #cccccc; stroke-width: 0.8; stroke-linecap: round"/>
     </g>
     <g id="text_40">
      <!-- 100 -->
      <g style="fill: #262626" transform="translate(22.46125 599.202967) scale(0.12 -0.12)">
       <use xlink:href="#ArialMT-31"/>
       <use xlink:href="#ArialMT-30" x="55.615234"/>
       <use xlink:href="#ArialMT-30" x="111.230469"/>
      </g>
     </g>
    </g>
    <g id="text_41">
     <!-- Utilization Rate (%) -->
     <g style="fill: #262626" transform="translate(15.935625 749.505534) rotate(-90) scale(0.12 -0.12)">
      <defs>
       <path id="ArialMT-7a" d="M 125 0 
L 125 456 
L 2238 2881 
Q 1878 2863 1603 2863 
L 250 2863 
L 250 3319 
L 2963 3319 
L 2963 2947 
L 1166 841 
L 819 456 
Q 1197 484 1528 484 
L 3063 484 
L 3063 0 
L 125 0 
z
" transform="scale(0.015625)"/>
       <path id="ArialMT-52" d="M 503 0 
L 503 4581 
L 2534 4581 
Q 3147 4581 3465 4457 
Q 3784 4334 3975 4021 
Q 4166 3709 4166 3331 
Q 4166 2844 3850 2509 
Q 3534 2175 2875 2084 
Q 3116 1969 3241 1856 
Q 3506 1613 3744 1247 
L 4541 0 
L 3778 0 
L 3172 953 
Q 2906 1366 2734 1584 
Q 2563 1803 2427 1890 
Q 2291 1978 2150 2013 
Q 2047 2034 1813 2034 
L 1109 2034 
L 1109 0 
L 503 0 
z
M 1109 2559 
L 2413 2559 
Q 2828 2559 3062 2645 
Q 3297 2731 3419 2920 
Q 3541 3109 3541 3331 
Q 3541 3656 3305 3865 
Q 3069 4075 2559 4075 
L 1109 4075 
L 1109 2559 
z
" transform="scale(0.015625)"/>
       <path id="ArialMT-25" d="M 372 3481 
Q 372 3972 619 4315 
Q 866 4659 1334 4659 
Q 1766 4659 2048 4351 
Q 2331 4044 2331 3447 
Q 2331 2866 2045 2552 
Q 1759 2238 1341 2238 
Q 925 2238 648 2547 
Q 372 2856 372 3481 
z
M 1350 4272 
Q 1141 4272 1002 4090 
Q 863 3909 863 3425 
Q 863 2984 1003 2804 
Q 1144 2625 1350 2625 
Q 1563 2625 1702 2806 
Q 1841 2988 1841 3469 
Q 1841 3913 1700 4092 
Q 1559 4272 1350 4272 
z
M 1353 -169 
L 3859 4659 
L 4316 4659 
L 1819 -169 
L 1353 -169 
z
M 3334 1075 
Q 3334 1569 3581 1911 
Q 3828 2253 4300 2253 
Q 4731 2253 5014 1945 
Q 5297 1638 5297 1041 
Q 5297 459 5011 145 
Q 4725 -169 4303 -169 
Q 3888 -169 3611 142 
Q 3334 453 3334 1075 
z
M 4316 1866 
Q 4103 1866 3964 1684 
Q 3825 1503 3825 1019 
Q 3825 581 3965 400 
Q 4106 219 4313 219 
Q 4528 219 4667 400 
Q 4806 581 4806 1063 
Q 4806 1506 4665 1686 
Q 4525 1866 4316 1866 
z
" transform="scale(0.015625)"/>
      </defs>
      <use xlink:href="#ArialMT-55"/>
      <use xlink:href="#ArialMT-74" x="72.216797"/>
      <use xlink:href="#ArialMT-69" x="100"/>
      <use xlink:href="#ArialMT-6c" x="122.216797"/>
      <use xlink:href="#ArialMT-69" x="144.433594"/>
      <use xlink:href="#ArialMT-7a" x="166.650391"/>
      <use xlink:href="#ArialMT-61" x="216.650391"/>
      <use xlink:href="#ArialMT-74" x="272.265625"/>
      <use xlink:href="#ArialMT-69" x="300.048828"/>
      <use xlink:href="#ArialMT-6f" x="322.265625"/>
      <use xlink:href="#ArialMT-6e" x="377.880859"/>
      <use xlink:href="#ArialMT-20" x="433.496094"/>
      <use xlink:href="#ArialMT-52" x="461.279297"/>
      <use xlink:href="#ArialMT-61" x="533.496094"/>
      <use xlink:href="#ArialMT-74" x="589.111328"/>
      <use xlink:href="#ArialMT-65" x="616.894531"/>
      <use xlink:href="#ArialMT-20" x="672.509766"/>
      <use xlink:href="#ArialMT-28" x="700.292969"/>
      <use xlink:href="#ArialMT-25" x="733.59375"/>
      <use xlink:href="#ArialMT-29" x="822.509766"/>
     </g>
    </g>
   </g>
   <g id="PolyCollection_3">
    <defs>
     <path id="mbe4ca8f84c" d="M 87.354618 -46.8275 
L 87.354618 -46.8275 
L 114.55213 -46.8275 
L 141.749642 -248.72421 
L 168.947154 -245.53657 
L 196.144667 -250.730278 
L 223.342179 -143.043349 
L 250.539691 -257.842993 
L 277.737203 -253.592585 
L 304.772826 -253.005311 
L 331.970338 -261.060579 
L 359.16785 -262.484165 
L 386.365362 -249.695033 
L 413.562874 -232.484417 
L 440.760387 -246.629988 
L 467.957899 -225.873549 
L 495.155411 -242.649993 
L 522.352923 -217.359215 
L 549.550435 -238.529678 
L 576.747948 -229.47374 
L 603.94546 -201.518204 
L 631.142972 -219.227096 
L 658.340484 -215.838048 
L 685.537997 -222.413606 
L 712.735509 -212.751729 
L 739.933021 -244.161726 
L 767.130533 -233.265811 
L 794.328045 -241.42693 
L 821.525558 -220.397653 
L 844.834473 -222.875032 
L 844.834473 -46.8275 
L 844.834473 -46.8275 
L 821.525558 -46.8275 
L 794.328045 -46.8275 
L 767.130533 -46.8275 
L 739.933021 -46.8275 
L 712.735509 -46.8275 
L 685.537997 -46.8275 
L 658.340484 -46.8275 
L 631.142972 -46.8275 
L 603.94546 -46.8275 
L 576.747948 -46.8275 
L 549.550435 -46.8275 
L 522.352923 -46.8275 
L 495.155411 -46.8275 
L 467.957899 -46.8275 
L 440.760387 -46.8275 
L 413.562874 -46.8275 
L 386.365362 -46.8275 
L 359.16785 -46.8275 
L 331.970338 -46.8275 
L 304.772826 -46.8275 
L 277.737203 -46.8275 
L 250.539691 -46.8275 
L 223.342179 -46.8275 
L 196.144667 -46.8275 
L 168.947154 -46.8275 
L 141.749642 -46.8275 
L 114.55213 -46.8275 
L 87.354618 -46.8275 
z
" style="stroke: #800080; stroke-opacity: 0.2"/>
    </defs>
    <g clip-path="url(#p4fdbc7cb74)">
     <use xlink:href="#mbe4ca8f84c" x="0" y="859.105" style="fill: #800080; fill-opacity: 0.2; stroke: #800080; stroke-opacity: 0.2"/>
    </g>
   </g>
   <g id="line2d_36">
    <path d="M 87.354618 812.2775 
L 114.55213 812.2775 
L 141.749642 610.38079 
L 168.947154 613.56843 
L 196.144667 608.374722 
L 223.342179 716.061651 
L 250.539691 601.262007 
L 277.737203 605.512415 
L 304.772826 606.099689 
L 331.970338 598.044421 
L 359.16785 596.620835 
L 386.365362 609.409967 
L 413.562874 626.620583 
L 440.760387 612.475012 
L 467.957899 633.231451 
L 495.155411 616.455007 
L 522.352923 641.745785 
L 549.550435 620.575322 
L 576.747948 629.63126 
L 603.94546 657.586796 
L 631.142972 639.877904 
L 658.340484 643.266952 
L 685.537997 636.691394 
L 712.735509 646.353271 
L 739.933021 614.943274 
L 767.130533 625.839189 
L 794.328045 617.67807 
L 821.525558 638.707347 
L 844.834473 636.229968 
" clip-path="url(#p4fdbc7cb74)" style="fill: none; stroke: #800080; stroke-width: 2.5; stroke-linecap: round"/>
   </g>
   <g id="patch_12">
    <path d="M 49.480625 812.2775 
L 49.480625 584.039819 
" style="fill: none; stroke: #cccccc; stroke-width: 0.8; stroke-linejoin: miter; stroke-linecap: square"/>
   </g>
   <g id="patch_13">
    <path d="M 882.708466 812.2775 
L 882.708466 584.039819 
" style="fill: none; stroke: #cccccc; stroke-width: 0.8; stroke-linejoin: miter; stroke-linecap: square"/>
   </g>
   <g id="patch_14">
    <path d="M 49.480625 812.2775 
L 882.708466 812.2775 
" style="fill: none; stroke: #cccccc; stroke-width: 0.8; stroke-linejoin: miter; stroke-linecap: square"/>
   </g>
   <g id="patch_15">
    <path d="M 49.480625 584.039819 
L 882.708466 584.039819 
" style="fill: none; stroke: #cccccc; stroke-width: 0.8; stroke-linejoin: miter; stroke-linecap: square"/>
   </g>
   <g id="text_42">
    <g id="patch_16">
     <path d="M 854.834473 632.214968 
L 942.209473 632.214968 
Q 945.809473 632.214968 945.809473 628.614968 
L 945.809473 617.640593 
Q 945.809473 614.040593 942.209473 614.040593 
L 854.834473 614.040593 
Q 851.234473 614.040593 851.234473 617.640593 
L 851.234473 628.614968 
Q 851.234473 632.214968 854.834473 632.214968 
z
" style="fill: #ffffff; opacity: 0.8; stroke: #800080; stroke-linejoin: miter"/>
    </g>
    <!-- Current: 80.99% -->
    <g style="fill: #262626" transform="translate(854.834473 626.229968) scale(0.12 -0.12)">
     <use xlink:href="#ArialMT-43"/>
     <use xlink:href="#ArialMT-75" x="72.216797"/>
     <use xlink:href="#ArialMT-72" x="127.832031"/>
     <use xlink:href="#ArialMT-72" x="161.132812"/>
     <use xlink:href="#ArialMT-65" x="194.433594"/>
     <use xlink:href="#ArialMT-6e" x="250.048828"/>
     <use xlink:href="#ArialMT-74" x="305.664062"/>
     <use xlink:href="#ArialMT-3a" x="333.447266"/>
     <use xlink:href="#ArialMT-20" x="361.230469"/>
     <use xlink:href="#ArialMT-38" x="389.013672"/>
     <use xlink:href="#ArialMT-30" x="444.628906"/>
     <use xlink:href="#ArialMT-2e" x="500.244141"/>
     <use xlink:href="#ArialMT-39" x="528.027344"/>
     <use xlink:href="#ArialMT-39" x="583.642578"/>
     <use xlink:href="#ArialMT-25" x="639.257812"/>
    </g>
   </g>
   <g id="text_43">
    <!-- cbBTC/USDC Market - Utilization Rate Over Time -->
    <g style="fill: #262626" transform="translate(290.060795 578.039819) scale(0.16 -0.16)">
     <use xlink:href="#ArialMT-63"/>
     <use xlink:href="#ArialMT-62" x="50"/>
     <use xlink:href="#ArialMT-42" x="105.615234"/>
     <use xlink:href="#ArialMT-54" x="172.314453"/>
     <use xlink:href="#ArialMT-43" x="233.398438"/>
     <use xlink:href="#ArialMT-2f" x="305.615234"/>
     <use xlink:href="#ArialMT-55" x="333.398438"/>
     <use xlink:href="#ArialMT-53" x="405.615234"/>
     <use xlink:href="#ArialMT-44" x="472.314453"/>
     <use xlink:href="#ArialMT-43" x="544.53125"/>
     <use xlink:href="#ArialMT-20" x="616.748047"/>
     <use xlink:href="#ArialMT-4d" x="644.53125"/>
     <use xlink:href="#ArialMT-61" x="727.832031"/>
     <use xlink:href="#ArialMT-72" x="783.447266"/>
     <use xlink:href="#ArialMT-6b" x="816.748047"/>
     <use xlink:href="#ArialMT-65" x="866.748047"/>
     <use xlink:href="#ArialMT-74" x="922.363281"/>
     <use xlink:href="#ArialMT-20" x="950.146484"/>
     <use xlink:href="#ArialMT-2d" x="977.929688"/>
     <use xlink:href="#ArialMT-20" x="1011.230469"/>
     <use xlink:href="#ArialMT-55" x="1039.013672"/>
     <use xlink:href="#ArialMT-74" x="1111.230469"/>
     <use xlink:href="#ArialMT-69" x="1139.013672"/>
     <use xlink:href="#ArialMT-6c" x="1161.230469"/>
     <use xlink:href="#ArialMT-69" x="1183.447266"/>
     <use xlink:href="#ArialMT-7a" x="1205.664062"/>
     <use xlink:href="#ArialMT-61" x="1255.664062"/>
     <use xlink:href="#ArialMT-74" x="1311.279297"/>
     <use xlink:href="#ArialMT-69" x="1339.0625"/>
     <use xlink:href="#ArialMT-6f" x="1361.279297"/>
     <use xlink:href="#ArialMT-6e" x="1416.894531"/>
     <use xlink:href="#ArialMT-20" x="1472.509766"/>
     <use xlink:href="#ArialMT-52" x="1500.292969"/>
     <use xlink:href="#ArialMT-61" x="1572.509766"/>
     <use xlink:href="#ArialMT-74" x="1628.125"/>
     <use xlink:href="#ArialMT-65" x="1655.908203"/>
     <use xlink:href="#ArialMT-20" x="1711.523438"/>
     <use xlink:href="#ArialMT-4f" x="1739.306641"/>
     <use xlink:href="#ArialMT-76" x="1817.089844"/>
     <use xlink:href="#ArialMT-65" x="1867.089844"/>
     <use xlink:href="#ArialMT-72" x="1922.705078"/>
     <use xlink:href="#ArialMT-20" x="1956.005859"/>
     <use xlink:href="#ArialMT-54" x="1982.039062"/>
     <use xlink:href="#ArialMT-69" x="2039.373047"/>
     <use xlink:href="#ArialMT-6d" x="2061.589844"/>
     <use xlink:href="#ArialMT-65" x="2144.890625"/>
    </g>
   </g>
  </g>
  <g id="text_44">
   <g id="patch_17">
    <path d="M 414.846094 856.905 
L 581.622656 856.905 
L 581.622656 837.759687 
L 414.846094 837.759687 
z
" style="fill: #ffffff; opacity: 0.7; stroke: #ffffff; stroke-linejoin: miter"/>
   </g>
   <!-- Generated on 2025-03-18 14:31:41 -->
   <g style="fill: #262626" transform="translate(419.846094 849.9175) scale(0.1 -0.1)">
    <defs>
     <path id="ArialMT-47" d="M 2638 1797 
L 2638 2334 
L 4578 2338 
L 4578 638 
Q 4131 281 3656 101 
Q 3181 -78 2681 -78 
Q 2006 -78 1454 211 
Q 903 500 622 1047 
Q 341 1594 341 2269 
Q 341 2938 620 3517 
Q 900 4097 1425 4378 
Q 1950 4659 2634 4659 
Q 3131 4659 3532 4498 
Q 3934 4338 4162 4050 
Q 4391 3763 4509 3300 
L 3963 3150 
Q 3859 3500 3706 3700 
Q 3553 3900 3268 4020 
Q 2984 4141 2638 4141 
Q 2222 4141 1919 4014 
Q 1616 3888 1430 3681 
Q 1244 3475 1141 3228 
Q 966 2803 966 2306 
Q 966 1694 1177 1281 
Q 1388 869 1791 669 
Q 2194 469 2647 469 
Q 3041 469 3416 620 
Q 3791 772 3984 944 
L 3984 1797 
L 2638 1797 
z
" transform="scale(0.015625)"/>
    </defs>
    <use xlink:href="#ArialMT-47"/>
    <use xlink:href="#ArialMT-65" x="77.783203"/>
    <use xlink:href="#ArialMT-6e" x="133.398438"/>
    <use xlink:href="#ArialMT-65" x="189.013672"/>
    <use xlink:href="#ArialMT-72" x="244.628906"/>
    <use xlink:href="#ArialMT-61" x="277.929688"/>
    <use xlink:href="#ArialMT-74" x="333.544922"/>
    <use xlink:href="#ArialMT-65" x="361.328125"/>
    <use xlink:href="#ArialMT-64" x="416.943359"/>
    <use xlink:href="#ArialMT-20" x="472.558594"/>
    <use xlink:href="#ArialMT-6f" x="500.341797"/>
    <use xlink:href="#ArialMT-6e" x="555.957031"/>
    <use xlink:href="#ArialMT-20" x="611.572266"/>
    <use xlink:href="#ArialMT-32" x="639.355469"/>
    <use xlink:href="#ArialMT-30" x="694.970703"/>
    <use xlink:href="#ArialMT-32" x="750.585938"/>
    <use xlink:href="#ArialMT-35" x="806.201172"/>
    <use xlink:href="#ArialMT-2d" x="861.816406"/>
    <use xlink:href="#ArialMT-30" x="895.117188"/>
    <use xlink:href="#ArialMT-33" x="950.732422"/>
    <use xlink:href="#ArialMT-2d" x="1006.347656"/>
    <use xlink:href="#ArialMT-31" x="1039.648438"/>
    <use xlink:href="#ArialMT-38" x="1095.263672"/>
    <use xlink:href="#ArialMT-20" x="1150.878906"/>
    <use xlink:href="#ArialMT-31" x="1178.662109"/>
    <use xlink:href="#ArialMT-34" x="1234.277344"/>
    <use xlink:href="#ArialMT-3a" x="1289.892578"/>
    <use xlink:href="#ArialMT-33" x="1317.675781"/>
    <use xlink:href="#ArialMT-31" x="1373.291016"/>
    <use xlink:href="#ArialMT-3a" x="1428.90625"/>
    <use xlink:href="#ArialMT-34" x="1456.689453"/>
    <use xlink:href="#ArialMT-31" x="1512.304688"/>
   </g>
  </g>
 </g>
 <defs>
  <clipPath id="pa28a81f736">
   <rect x="49.480625" y="24.8575" width="833.227841" height="456.475362"/>
  </clipPath>
  <clipPath id="p4fdbc7cb74">
   <rect x="49.480625" y="584.039819" width="833.227841" height="228.237681"/>
  </clipPath>
 </defs>
</svg>
