<?xml version="1.0" encoding="utf-8" standalone="no"?>
<!DOCTYPE svg PUBLIC "-//W3C//DTD SVG 1.1//EN"
  "http://www.w3.org/Graphics/SVG/1.1/DTD/svg11.dtd">
<svg xmlns:xlink="http://www.w3.org/1999/xlink" width="1236.051171pt" height="664.311562pt" viewBox="0 0 1236.051171 664.311562" xmlns="http://www.w3.org/2000/svg" version="1.1">
 <metadata>
  <rdf:RDF xmlns:dc="http://purl.org/dc/elements/1.1/" xmlns:cc="http://creativecommons.org/ns#" xmlns:rdf="http://www.w3.org/1999/02/22-rdf-syntax-ns#">
   <cc:Work>
    <dc:type rdf:resource="http://purl.org/dc/dcmitype/StillImage"/>
    <dc:date>2025-03-18T16:12:27.532825</dc:date>
    <dc:format>image/svg+xml</dc:format>
    <dc:creator>
     <cc:Agent>
      <dc:title>Matplotlib v3.8.2, https://matplotlib.org/</dc:title>
     </cc:Agent>
    </dc:creator>
   </cc:Work>
  </rdf:RDF>
 </metadata>
 <defs>
  <style type="text/css">*{stroke-linejoin: round; stroke-linecap: butt}</style>
 </defs>
 <g id="figure_1">
  <g id="patch_1">
   <path d="M 0 664.311562 
L 1236.051171 664.311562 
L 1236.051171 0 
L 0 0 
z
" style="fill: #ffffff"/>
  </g>
  <g id="axes_1">
   <g id="patch_2">
    <path d="M 48.018125 536.638717 
L 1104.095795 536.638717 
L 1104.095795 26.084062 
L 48.018125 26.084062 
z
" style="fill: #ffffff"/>
   </g>
   <g id="matplotlib.axis_1">
    <g id="xtick_1">
     <g id="line2d_1">
      <path d="M 90.02376 536.638717 
L 90.02376 26.084062 
" clip-path="url(#p5b30e62bb6)" style="fill: none; stroke: #cccccc; stroke-width: 0.8; stroke-linecap: round"/>
     </g>
     <g id="text_1">
      <!-- 2024-09-01 -->
      <g style="fill: #262626" transform="translate(44.937748 593.111885) rotate(-45) scale(0.12 -0.12)">
       <defs>
        <path id="ArialMT-32" d="M 3222 541 
L 3222 0 
L 194 0 
Q 188 203 259 391 
Q 375 700 629 1000 
Q 884 1300 1366 1694 
Q 2113 2306 2375 2664 
Q 2638 3022 2638 3341 
Q 2638 3675 2398 3904 
Q 2159 4134 1775 4134 
Q 1369 4134 1125 3890 
Q 881 3647 878 3216 
L 300 3275 
Q 359 3922 746 4261 
Q 1134 4600 1788 4600 
Q 2447 4600 2831 4234 
Q 3216 3869 3216 3328 
Q 3216 3053 3103 2787 
Q 2991 2522 2730 2228 
Q 2469 1934 1863 1422 
Q 1356 997 1212 845 
Q 1069 694 975 541 
L 3222 541 
z
" transform="scale(0.015625)"/>
        <path id="ArialMT-30" d="M 266 2259 
Q 266 3072 433 3567 
Q 600 4063 929 4331 
Q 1259 4600 1759 4600 
Q 2128 4600 2406 4451 
Q 2684 4303 2865 4023 
Q 3047 3744 3150 3342 
Q 3253 2941 3253 2259 
Q 3253 1453 3087 958 
Q 2922 463 2592 192 
Q 2263 -78 1759 -78 
Q 1097 -78 719 397 
Q 266 969 266 2259 
z
M 844 2259 
Q 844 1131 1108 757 
Q 1372 384 1759 384 
Q 2147 384 2411 759 
Q 2675 1134 2675 2259 
Q 2675 3391 2411 3762 
Q 2147 4134 1753 4134 
Q 1366 4134 1134 3806 
Q 844 3388 844 2259 
z
" transform="scale(0.015625)"/>
        <path id="ArialMT-34" d="M 2069 0 
L 2069 1097 
L 81 1097 
L 81 1613 
L 2172 4581 
L 2631 4581 
L 2631 1613 
L 3250 1613 
L 3250 1097 
L 2631 1097 
L 2631 0 
L 2069 0 
z
M 2069 1613 
L 2069 3678 
L 634 1613 
L 2069 1613 
z
" transform="scale(0.015625)"/>
        <path id="ArialMT-2d" d="M 203 1375 
L 203 1941 
L 1931 1941 
L 1931 1375 
L 203 1375 
z
" transform="scale(0.015625)"/>
        <path id="ArialMT-39" d="M 350 1059 
L 891 1109 
Q 959 728 1153 556 
Q 1347 384 1650 384 
Q 1909 384 2104 503 
Q 2300 622 2425 820 
Q 2550 1019 2634 1356 
Q 2719 1694 2719 2044 
Q 2719 2081 2716 2156 
Q 2547 1888 2255 1720 
Q 1963 1553 1622 1553 
Q 1053 1553 659 1965 
Q 266 2378 266 3053 
Q 266 3750 677 4175 
Q 1088 4600 1706 4600 
Q 2153 4600 2523 4359 
Q 2894 4119 3086 3673 
Q 3278 3228 3278 2384 
Q 3278 1506 3087 986 
Q 2897 466 2520 194 
Q 2144 -78 1638 -78 
Q 1100 -78 759 220 
Q 419 519 350 1059 
z
M 2653 3081 
Q 2653 3566 2395 3850 
Q 2138 4134 1775 4134 
Q 1400 4134 1122 3828 
Q 844 3522 844 3034 
Q 844 2597 1108 2323 
Q 1372 2050 1759 2050 
Q 2150 2050 2401 2323 
Q 2653 2597 2653 3081 
z
" transform="scale(0.015625)"/>
        <path id="ArialMT-31" d="M 2384 0 
L 1822 0 
L 1822 3584 
Q 1619 3391 1289 3197 
Q 959 3003 697 2906 
L 697 3450 
Q 1169 3672 1522 3987 
Q 1875 4303 2022 4600 
L 2384 4600 
L 2384 0 
z
" transform="scale(0.015625)"/>
       </defs>
       <use xlink:href="#ArialMT-32"/>
       <use xlink:href="#ArialMT-30" x="55.615234"/>
       <use xlink:href="#ArialMT-32" x="111.230469"/>
       <use xlink:href="#ArialMT-34" x="166.845703"/>
       <use xlink:href="#ArialMT-2d" x="222.460938"/>
       <use xlink:href="#ArialMT-30" x="255.761719"/>
       <use xlink:href="#ArialMT-39" x="311.376953"/>
       <use xlink:href="#ArialMT-2d" x="366.992188"/>
       <use xlink:href="#ArialMT-30" x="400.292969"/>
       <use xlink:href="#ArialMT-31" x="455.908203"/>
      </g>
     </g>
    </g>
    <g id="xtick_2">
     <g id="line2d_2">
      <path d="M 194.797928 536.638717 
L 194.797928 26.084062 
" clip-path="url(#p5b30e62bb6)" style="fill: none; stroke: #cccccc; stroke-width: 0.8; stroke-linecap: round"/>
     </g>
     <g id="text_2">
      <!-- 2024-11-01 -->
      <g style="fill: #262626" transform="translate(150.337705 592.486095) rotate(-45) scale(0.12 -0.12)">
       <use xlink:href="#ArialMT-32"/>
       <use xlink:href="#ArialMT-30" x="55.615234"/>
       <use xlink:href="#ArialMT-32" x="111.230469"/>
       <use xlink:href="#ArialMT-34" x="166.845703"/>
       <use xlink:href="#ArialMT-2d" x="222.460938"/>
       <use xlink:href="#ArialMT-31" x="255.761719"/>
       <use xlink:href="#ArialMT-31" x="304.001953"/>
       <use xlink:href="#ArialMT-2d" x="359.617188"/>
       <use xlink:href="#ArialMT-30" x="392.917969"/>
       <use xlink:href="#ArialMT-31" x="448.533203"/>
      </g>
     </g>
    </g>
    <g id="xtick_3">
     <g id="line2d_3">
      <path d="M 299.572096 536.638717 
L 299.572096 26.084062 
" clip-path="url(#p5b30e62bb6)" style="fill: none; stroke: #cccccc; stroke-width: 0.8; stroke-linecap: round"/>
     </g>
     <g id="text_3">
      <!-- 2025-01-01 -->
      <g style="fill: #262626" transform="translate(254.486084 593.111885) rotate(-45) scale(0.12 -0.12)">
       <defs>
        <path id="ArialMT-35" d="M 266 1200 
L 856 1250 
Q 922 819 1161 601 
Q 1400 384 1738 384 
Q 2144 384 2425 690 
Q 2706 997 2706 1503 
Q 2706 1984 2436 2262 
Q 2166 2541 1728 2541 
Q 1456 2541 1237 2417 
Q 1019 2294 894 2097 
L 366 2166 
L 809 4519 
L 3088 4519 
L 3088 3981 
L 1259 3981 
L 1013 2750 
Q 1425 3038 1878 3038 
Q 2478 3038 2890 2622 
Q 3303 2206 3303 1553 
Q 3303 931 2941 478 
Q 2500 -78 1738 -78 
Q 1113 -78 717 272 
Q 322 622 266 1200 
z
" transform="scale(0.015625)"/>
       </defs>
       <use xlink:href="#ArialMT-32"/>
       <use xlink:href="#ArialMT-30" x="55.615234"/>
       <use xlink:href="#ArialMT-32" x="111.230469"/>
       <use xlink:href="#ArialMT-35" x="166.845703"/>
       <use xlink:href="#ArialMT-2d" x="222.460938"/>
       <use xlink:href="#ArialMT-30" x="255.761719"/>
       <use xlink:href="#ArialMT-31" x="311.376953"/>
       <use xlink:href="#ArialMT-2d" x="366.992188"/>
       <use xlink:href="#ArialMT-30" x="400.292969"/>
       <use xlink:href="#ArialMT-31" x="455.908203"/>
      </g>
     </g>
    </g>
    <g id="xtick_4">
     <g id="line2d_4">
      <path d="M 400.911046 536.638717 
L 400.911046 26.084062 
" clip-path="url(#p5b30e62bb6)" style="fill: none; stroke: #cccccc; stroke-width: 0.8; stroke-linecap: round"/>
     </g>
     <g id="text_4">
      <!-- 2025-03-01 -->
      <g style="fill: #262626" transform="translate(355.825034 593.111885) rotate(-45) scale(0.12 -0.12)">
       <defs>
        <path id="ArialMT-33" d="M 269 1209 
L 831 1284 
Q 928 806 1161 595 
Q 1394 384 1728 384 
Q 2125 384 2398 659 
Q 2672 934 2672 1341 
Q 2672 1728 2419 1979 
Q 2166 2231 1775 2231 
Q 1616 2231 1378 2169 
L 1441 2663 
Q 1497 2656 1531 2656 
Q 1891 2656 2178 2843 
Q 2466 3031 2466 3422 
Q 2466 3731 2256 3934 
Q 2047 4138 1716 4138 
Q 1388 4138 1169 3931 
Q 950 3725 888 3313 
L 325 3413 
Q 428 3978 793 4289 
Q 1159 4600 1703 4600 
Q 2078 4600 2393 4439 
Q 2709 4278 2876 4000 
Q 3044 3722 3044 3409 
Q 3044 3113 2884 2869 
Q 2725 2625 2413 2481 
Q 2819 2388 3044 2092 
Q 3269 1797 3269 1353 
Q 3269 753 2831 336 
Q 2394 -81 1725 -81 
Q 1122 -81 723 278 
Q 325 638 269 1209 
z
" transform="scale(0.015625)"/>
       </defs>
       <use xlink:href="#ArialMT-32"/>
       <use xlink:href="#ArialMT-30" x="55.615234"/>
       <use xlink:href="#ArialMT-32" x="111.230469"/>
       <use xlink:href="#ArialMT-35" x="166.845703"/>
       <use xlink:href="#ArialMT-2d" x="222.460938"/>
       <use xlink:href="#ArialMT-30" x="255.761719"/>
       <use xlink:href="#ArialMT-33" x="311.376953"/>
       <use xlink:href="#ArialMT-2d" x="366.992188"/>
       <use xlink:href="#ArialMT-30" x="400.292969"/>
       <use xlink:href="#ArialMT-31" x="455.908203"/>
      </g>
     </g>
    </g>
    <g id="xtick_5">
     <g id="line2d_5">
      <path d="M 505.685214 536.638717 
L 505.685214 26.084062 
" clip-path="url(#p5b30e62bb6)" style="fill: none; stroke: #cccccc; stroke-width: 0.8; stroke-linecap: round"/>
     </g>
     <g id="text_5">
      <!-- 2025-05-01 -->
      <g style="fill: #262626" transform="translate(460.599202 593.111885) rotate(-45) scale(0.12 -0.12)">
       <use xlink:href="#ArialMT-32"/>
       <use xlink:href="#ArialMT-30" x="55.615234"/>
       <use xlink:href="#ArialMT-32" x="111.230469"/>
       <use xlink:href="#ArialMT-35" x="166.845703"/>
       <use xlink:href="#ArialMT-2d" x="222.460938"/>
       <use xlink:href="#ArialMT-30" x="255.761719"/>
       <use xlink:href="#ArialMT-35" x="311.376953"/>
       <use xlink:href="#ArialMT-2d" x="366.992188"/>
       <use xlink:href="#ArialMT-30" x="400.292969"/>
       <use xlink:href="#ArialMT-31" x="455.908203"/>
      </g>
     </g>
    </g>
    <g id="xtick_6">
     <g id="line2d_6">
      <path d="M 610.459383 536.638717 
L 610.459383 26.084062 
" clip-path="url(#p5b30e62bb6)" style="fill: none; stroke: #cccccc; stroke-width: 0.8; stroke-linecap: round"/>
     </g>
     <g id="text_6">
      <!-- 2025-07-01 -->
      <g style="fill: #262626" transform="translate(565.37337 593.111885) rotate(-45) scale(0.12 -0.12)">
       <defs>
        <path id="ArialMT-37" d="M 303 3981 
L 303 4522 
L 3269 4522 
L 3269 4084 
Q 2831 3619 2401 2847 
Q 1972 2075 1738 1259 
Q 1569 684 1522 0 
L 944 0 
Q 953 541 1156 1306 
Q 1359 2072 1739 2783 
Q 2119 3494 2547 3981 
L 303 3981 
z
" transform="scale(0.015625)"/>
       </defs>
       <use xlink:href="#ArialMT-32"/>
       <use xlink:href="#ArialMT-30" x="55.615234"/>
       <use xlink:href="#ArialMT-32" x="111.230469"/>
       <use xlink:href="#ArialMT-35" x="166.845703"/>
       <use xlink:href="#ArialMT-2d" x="222.460938"/>
       <use xlink:href="#ArialMT-30" x="255.761719"/>
       <use xlink:href="#ArialMT-37" x="311.376953"/>
       <use xlink:href="#ArialMT-2d" x="366.992188"/>
       <use xlink:href="#ArialMT-30" x="400.292969"/>
       <use xlink:href="#ArialMT-31" x="455.908203"/>
      </g>
     </g>
    </g>
    <g id="xtick_7">
     <g id="line2d_7">
      <path d="M 716.95116 536.638717 
L 716.95116 26.084062 
" clip-path="url(#p5b30e62bb6)" style="fill: none; stroke: #cccccc; stroke-width: 0.8; stroke-linecap: round"/>
     </g>
     <g id="text_7">
      <!-- 2025-09-01 -->
      <g style="fill: #262626" transform="translate(671.865148 593.111885) rotate(-45) scale(0.12 -0.12)">
       <use xlink:href="#ArialMT-32"/>
       <use xlink:href="#ArialMT-30" x="55.615234"/>
       <use xlink:href="#ArialMT-32" x="111.230469"/>
       <use xlink:href="#ArialMT-35" x="166.845703"/>
       <use xlink:href="#ArialMT-2d" x="222.460938"/>
       <use xlink:href="#ArialMT-30" x="255.761719"/>
       <use xlink:href="#ArialMT-39" x="311.376953"/>
       <use xlink:href="#ArialMT-2d" x="366.992188"/>
       <use xlink:href="#ArialMT-30" x="400.292969"/>
       <use xlink:href="#ArialMT-31" x="455.908203"/>
      </g>
     </g>
    </g>
    <g id="xtick_8">
     <g id="line2d_8">
      <path d="M 821.725329 536.638717 
L 821.725329 26.084062 
" clip-path="url(#p5b30e62bb6)" style="fill: none; stroke: #cccccc; stroke-width: 0.8; stroke-linecap: round"/>
     </g>
     <g id="text_8">
      <!-- 2025-11-01 -->
      <g style="fill: #262626" transform="translate(777.265106 592.486095) rotate(-45) scale(0.12 -0.12)">
       <use xlink:href="#ArialMT-32"/>
       <use xlink:href="#ArialMT-30" x="55.615234"/>
       <use xlink:href="#ArialMT-32" x="111.230469"/>
       <use xlink:href="#ArialMT-35" x="166.845703"/>
       <use xlink:href="#ArialMT-2d" x="222.460938"/>
       <use xlink:href="#ArialMT-31" x="255.761719"/>
       <use xlink:href="#ArialMT-31" x="304.001953"/>
       <use xlink:href="#ArialMT-2d" x="359.617188"/>
       <use xlink:href="#ArialMT-30" x="392.917969"/>
       <use xlink:href="#ArialMT-31" x="448.533203"/>
      </g>
     </g>
    </g>
    <g id="xtick_9">
     <g id="line2d_9">
      <path d="M 926.499497 536.638717 
L 926.499497 26.084062 
" clip-path="url(#p5b30e62bb6)" style="fill: none; stroke: #cccccc; stroke-width: 0.8; stroke-linecap: round"/>
     </g>
     <g id="text_9">
      <!-- 2026-01-01 -->
      <g style="fill: #262626" transform="translate(881.413485 593.111885) rotate(-45) scale(0.12 -0.12)">
       <defs>
        <path id="ArialMT-36" d="M 3184 3459 
L 2625 3416 
Q 2550 3747 2413 3897 
Q 2184 4138 1850 4138 
Q 1581 4138 1378 3988 
Q 1113 3794 959 3422 
Q 806 3050 800 2363 
Q 1003 2672 1297 2822 
Q 1591 2972 1913 2972 
Q 2475 2972 2870 2558 
Q 3266 2144 3266 1488 
Q 3266 1056 3080 686 
Q 2894 316 2569 119 
Q 2244 -78 1831 -78 
Q 1128 -78 684 439 
Q 241 956 241 2144 
Q 241 3472 731 4075 
Q 1159 4600 1884 4600 
Q 2425 4600 2770 4297 
Q 3116 3994 3184 3459 
z
M 888 1484 
Q 888 1194 1011 928 
Q 1134 663 1356 523 
Q 1578 384 1822 384 
Q 2178 384 2434 671 
Q 2691 959 2691 1453 
Q 2691 1928 2437 2201 
Q 2184 2475 1800 2475 
Q 1419 2475 1153 2201 
Q 888 1928 888 1484 
z
" transform="scale(0.015625)"/>
       </defs>
       <use xlink:href="#ArialMT-32"/>
       <use xlink:href="#ArialMT-30" x="55.615234"/>
       <use xlink:href="#ArialMT-32" x="111.230469"/>
       <use xlink:href="#ArialMT-36" x="166.845703"/>
       <use xlink:href="#ArialMT-2d" x="222.460938"/>
       <use xlink:href="#ArialMT-30" x="255.761719"/>
       <use xlink:href="#ArialMT-31" x="311.376953"/>
       <use xlink:href="#ArialMT-2d" x="366.992188"/>
       <use xlink:href="#ArialMT-30" x="400.292969"/>
       <use xlink:href="#ArialMT-31" x="455.908203"/>
      </g>
     </g>
    </g>
    <g id="xtick_10">
     <g id="line2d_10">
      <path d="M 1027.838447 536.638717 
L 1027.838447 26.084062 
" clip-path="url(#p5b30e62bb6)" style="fill: none; stroke: #cccccc; stroke-width: 0.8; stroke-linecap: round"/>
     </g>
     <g id="text_10">
      <!-- 2026-03-01 -->
      <g style="fill: #262626" transform="translate(982.752434 593.111885) rotate(-45) scale(0.12 -0.12)">
       <use xlink:href="#ArialMT-32"/>
       <use xlink:href="#ArialMT-30" x="55.615234"/>
       <use xlink:href="#ArialMT-32" x="111.230469"/>
       <use xlink:href="#ArialMT-36" x="166.845703"/>
       <use xlink:href="#ArialMT-2d" x="222.460938"/>
       <use xlink:href="#ArialMT-30" x="255.761719"/>
       <use xlink:href="#ArialMT-33" x="311.376953"/>
       <use xlink:href="#ArialMT-2d" x="366.992188"/>
       <use xlink:href="#ArialMT-30" x="400.292969"/>
       <use xlink:href="#ArialMT-31" x="455.908203"/>
      </g>
     </g>
    </g>
    <g id="text_11">
     <!-- Date -->
     <g style="fill: #262626" transform="translate(561.271648 608.819272) scale(0.14 -0.14)">
      <defs>
       <path id="ArialMT-44" d="M 494 0 
L 494 4581 
L 2072 4581 
Q 2606 4581 2888 4516 
Q 3281 4425 3559 4188 
Q 3922 3881 4101 3404 
Q 4281 2928 4281 2316 
Q 4281 1794 4159 1391 
Q 4038 988 3847 723 
Q 3656 459 3429 307 
Q 3203 156 2883 78 
Q 2563 0 2147 0 
L 494 0 
z
M 1100 541 
L 2078 541 
Q 2531 541 2789 625 
Q 3047 709 3200 863 
Q 3416 1078 3536 1442 
Q 3656 1806 3656 2325 
Q 3656 3044 3420 3430 
Q 3184 3816 2847 3947 
Q 2603 4041 2063 4041 
L 1100 4041 
L 1100 541 
z
" transform="scale(0.015625)"/>
       <path id="ArialMT-61" d="M 2588 409 
Q 2275 144 1986 34 
Q 1697 -75 1366 -75 
Q 819 -75 525 192 
Q 231 459 231 875 
Q 231 1119 342 1320 
Q 453 1522 633 1644 
Q 813 1766 1038 1828 
Q 1203 1872 1538 1913 
Q 2219 1994 2541 2106 
Q 2544 2222 2544 2253 
Q 2544 2597 2384 2738 
Q 2169 2928 1744 2928 
Q 1347 2928 1158 2789 
Q 969 2650 878 2297 
L 328 2372 
Q 403 2725 575 2942 
Q 747 3159 1072 3276 
Q 1397 3394 1825 3394 
Q 2250 3394 2515 3294 
Q 2781 3194 2906 3042 
Q 3031 2891 3081 2659 
Q 3109 2516 3109 2141 
L 3109 1391 
Q 3109 606 3145 398 
Q 3181 191 3288 0 
L 2700 0 
Q 2613 175 2588 409 
z
M 2541 1666 
Q 2234 1541 1622 1453 
Q 1275 1403 1131 1340 
Q 988 1278 909 1158 
Q 831 1038 831 891 
Q 831 666 1001 516 
Q 1172 366 1500 366 
Q 1825 366 2078 508 
Q 2331 650 2450 897 
Q 2541 1088 2541 1459 
L 2541 1666 
z
" transform="scale(0.015625)"/>
       <path id="ArialMT-74" d="M 1650 503 
L 1731 6 
Q 1494 -44 1306 -44 
Q 1000 -44 831 53 
Q 663 150 594 308 
Q 525 466 525 972 
L 525 2881 
L 113 2881 
L 113 3319 
L 525 3319 
L 525 4141 
L 1084 4478 
L 1084 3319 
L 1650 3319 
L 1650 2881 
L 1084 2881 
L 1084 941 
Q 1084 700 1114 631 
Q 1144 563 1211 522 
Q 1278 481 1403 481 
Q 1497 481 1650 503 
z
" transform="scale(0.015625)"/>
       <path id="ArialMT-65" d="M 2694 1069 
L 3275 997 
Q 3138 488 2766 206 
Q 2394 -75 1816 -75 
Q 1088 -75 661 373 
Q 234 822 234 1631 
Q 234 2469 665 2931 
Q 1097 3394 1784 3394 
Q 2450 3394 2872 2941 
Q 3294 2488 3294 1666 
Q 3294 1616 3291 1516 
L 816 1516 
Q 847 969 1125 678 
Q 1403 388 1819 388 
Q 2128 388 2347 550 
Q 2566 713 2694 1069 
z
M 847 1978 
L 2700 1978 
Q 2663 2397 2488 2606 
Q 2219 2931 1791 2931 
Q 1403 2931 1139 2672 
Q 875 2413 847 1978 
z
" transform="scale(0.015625)"/>
      </defs>
      <use xlink:href="#ArialMT-44"/>
      <use xlink:href="#ArialMT-61" x="72.216797"/>
      <use xlink:href="#ArialMT-74" x="127.832031"/>
      <use xlink:href="#ArialMT-65" x="155.615234"/>
     </g>
    </g>
   </g>
   <g id="matplotlib.axis_2">
    <g id="ytick_1">
     <g id="line2d_11">
      <path d="M 48.018125 513.431687 
L 1104.095795 513.431687 
" clip-path="url(#p5b30e62bb6)" style="fill: none; stroke: #cccccc; stroke-width: 0.8; stroke-linecap: round"/>
     </g>
     <g id="text_12">
      <!-- 0.0 -->
      <g style="fill: #262626" transform="translate(24.338125 517.726375) scale(0.12 -0.12)">
       <defs>
        <path id="ArialMT-2e" d="M 581 0 
L 581 641 
L 1222 641 
L 1222 0 
L 581 0 
z
" transform="scale(0.015625)"/>
       </defs>
       <use xlink:href="#ArialMT-30"/>
       <use xlink:href="#ArialMT-2e" x="55.615234"/>
       <use xlink:href="#ArialMT-30" x="83.398438"/>
      </g>
     </g>
    </g>
    <g id="ytick_2">
     <g id="line2d_12">
      <path d="M 48.018125 416.365659 
L 1104.095795 416.365659 
" clip-path="url(#p5b30e62bb6)" style="fill: none; stroke: #cccccc; stroke-width: 0.8; stroke-linecap: round"/>
     </g>
     <g id="text_13">
      <!-- 0.5 -->
      <g style="fill: #262626" transform="translate(24.338125 420.660347) scale(0.12 -0.12)">
       <use xlink:href="#ArialMT-30"/>
       <use xlink:href="#ArialMT-2e" x="55.615234"/>
       <use xlink:href="#ArialMT-35" x="83.398438"/>
      </g>
     </g>
    </g>
    <g id="ytick_3">
     <g id="line2d_13">
      <path d="M 48.018125 319.299631 
L 1104.095795 319.299631 
" clip-path="url(#p5b30e62bb6)" style="fill: none; stroke: #cccccc; stroke-width: 0.8; stroke-linecap: round"/>
     </g>
     <g id="text_14">
      <!-- 1.0 -->
      <g style="fill: #262626" transform="translate(24.338125 323.594319) scale(0.12 -0.12)">
       <use xlink:href="#ArialMT-31"/>
       <use xlink:href="#ArialMT-2e" x="55.615234"/>
       <use xlink:href="#ArialMT-30" x="83.398438"/>
      </g>
     </g>
    </g>
    <g id="ytick_4">
     <g id="line2d_14">
      <path d="M 48.018125 222.233603 
L 1104.095795 222.233603 
" clip-path="url(#p5b30e62bb6)" style="fill: none; stroke: #cccccc; stroke-width: 0.8; stroke-linecap: round"/>
     </g>
     <g id="text_15">
      <!-- 1.5 -->
      <g style="fill: #262626" transform="translate(24.338125 226.528291) scale(0.12 -0.12)">
       <use xlink:href="#ArialMT-31"/>
       <use xlink:href="#ArialMT-2e" x="55.615234"/>
       <use xlink:href="#ArialMT-35" x="83.398438"/>
      </g>
     </g>
    </g>
    <g id="ytick_5">
     <g id="line2d_15">
      <path d="M 48.018125 125.167575 
L 1104.095795 125.167575 
" clip-path="url(#p5b30e62bb6)" style="fill: none; stroke: #cccccc; stroke-width: 0.8; stroke-linecap: round"/>
     </g>
     <g id="text_16">
      <!-- 2.0 -->
      <g style="fill: #262626" transform="translate(24.338125 129.462263) scale(0.12 -0.12)">
       <use xlink:href="#ArialMT-32"/>
       <use xlink:href="#ArialMT-2e" x="55.615234"/>
       <use xlink:href="#ArialMT-30" x="83.398438"/>
      </g>
     </g>
    </g>
    <g id="ytick_6">
     <g id="line2d_16">
      <path d="M 48.018125 28.101547 
L 1104.095795 28.101547 
" clip-path="url(#p5b30e62bb6)" style="fill: none; stroke: #cccccc; stroke-width: 0.8; stroke-linecap: round"/>
     </g>
     <g id="text_17">
      <!-- 2.5 -->
      <g style="fill: #262626" transform="translate(24.338125 32.396235) scale(0.12 -0.12)">
       <use xlink:href="#ArialMT-32"/>
       <use xlink:href="#ArialMT-2e" x="55.615234"/>
       <use xlink:href="#ArialMT-35" x="83.398438"/>
      </g>
     </g>
    </g>
    <g id="text_18">
     <!-- Amount (USDC) -->
     <g style="fill: #262626" transform="translate(17.391562 331.925452) rotate(-90) scale(0.14 -0.14)">
      <defs>
       <path id="ArialMT-41" d="M -9 0 
L 1750 4581 
L 2403 4581 
L 4278 0 
L 3588 0 
L 3053 1388 
L 1138 1388 
L 634 0 
L -9 0 
z
M 1313 1881 
L 2866 1881 
L 2388 3150 
Q 2169 3728 2063 4100 
Q 1975 3659 1816 3225 
L 1313 1881 
z
" transform="scale(0.015625)"/>
       <path id="ArialMT-6d" d="M 422 0 
L 422 3319 
L 925 3319 
L 925 2853 
Q 1081 3097 1340 3245 
Q 1600 3394 1931 3394 
Q 2300 3394 2536 3241 
Q 2772 3088 2869 2813 
Q 3263 3394 3894 3394 
Q 4388 3394 4653 3120 
Q 4919 2847 4919 2278 
L 4919 0 
L 4359 0 
L 4359 2091 
Q 4359 2428 4304 2576 
Q 4250 2725 4106 2815 
Q 3963 2906 3769 2906 
Q 3419 2906 3187 2673 
Q 2956 2441 2956 1928 
L 2956 0 
L 2394 0 
L 2394 2156 
Q 2394 2531 2256 2718 
Q 2119 2906 1806 2906 
Q 1569 2906 1367 2781 
Q 1166 2656 1075 2415 
Q 984 2175 984 1722 
L 984 0 
L 422 0 
z
" transform="scale(0.015625)"/>
       <path id="ArialMT-6f" d="M 213 1659 
Q 213 2581 725 3025 
Q 1153 3394 1769 3394 
Q 2453 3394 2887 2945 
Q 3322 2497 3322 1706 
Q 3322 1066 3130 698 
Q 2938 331 2570 128 
Q 2203 -75 1769 -75 
Q 1072 -75 642 372 
Q 213 819 213 1659 
z
M 791 1659 
Q 791 1022 1069 705 
Q 1347 388 1769 388 
Q 2188 388 2466 706 
Q 2744 1025 2744 1678 
Q 2744 2294 2464 2611 
Q 2184 2928 1769 2928 
Q 1347 2928 1069 2612 
Q 791 2297 791 1659 
z
" transform="scale(0.015625)"/>
       <path id="ArialMT-75" d="M 2597 0 
L 2597 488 
Q 2209 -75 1544 -75 
Q 1250 -75 995 37 
Q 741 150 617 320 
Q 494 491 444 738 
Q 409 903 409 1263 
L 409 3319 
L 972 3319 
L 972 1478 
Q 972 1038 1006 884 
Q 1059 663 1231 536 
Q 1403 409 1656 409 
Q 1909 409 2131 539 
Q 2353 669 2445 892 
Q 2538 1116 2538 1541 
L 2538 3319 
L 3100 3319 
L 3100 0 
L 2597 0 
z
" transform="scale(0.015625)"/>
       <path id="ArialMT-6e" d="M 422 0 
L 422 3319 
L 928 3319 
L 928 2847 
Q 1294 3394 1984 3394 
Q 2284 3394 2536 3286 
Q 2788 3178 2913 3003 
Q 3038 2828 3088 2588 
Q 3119 2431 3119 2041 
L 3119 0 
L 2556 0 
L 2556 2019 
Q 2556 2363 2490 2533 
Q 2425 2703 2258 2804 
Q 2091 2906 1866 2906 
Q 1506 2906 1245 2678 
Q 984 2450 984 1813 
L 984 0 
L 422 0 
z
" transform="scale(0.015625)"/>
       <path id="ArialMT-20" transform="scale(0.015625)"/>
       <path id="ArialMT-28" d="M 1497 -1347 
Q 1031 -759 709 28 
Q 388 816 388 1659 
Q 388 2403 628 3084 
Q 909 3875 1497 4659 
L 1900 4659 
Q 1522 4009 1400 3731 
Q 1209 3300 1100 2831 
Q 966 2247 966 1656 
Q 966 153 1900 -1347 
L 1497 -1347 
z
" transform="scale(0.015625)"/>
       <path id="ArialMT-55" d="M 3500 4581 
L 4106 4581 
L 4106 1934 
Q 4106 1244 3950 837 
Q 3794 431 3386 176 
Q 2978 -78 2316 -78 
Q 1672 -78 1262 144 
Q 853 366 678 786 
Q 503 1206 503 1934 
L 503 4581 
L 1109 4581 
L 1109 1938 
Q 1109 1341 1220 1058 
Q 1331 775 1601 622 
Q 1872 469 2263 469 
Q 2931 469 3215 772 
Q 3500 1075 3500 1938 
L 3500 4581 
z
" transform="scale(0.015625)"/>
       <path id="ArialMT-53" d="M 288 1472 
L 859 1522 
Q 900 1178 1048 958 
Q 1197 738 1509 602 
Q 1822 466 2213 466 
Q 2559 466 2825 569 
Q 3091 672 3220 851 
Q 3350 1031 3350 1244 
Q 3350 1459 3225 1620 
Q 3100 1781 2813 1891 
Q 2628 1963 1997 2114 
Q 1366 2266 1113 2400 
Q 784 2572 623 2826 
Q 463 3081 463 3397 
Q 463 3744 659 4045 
Q 856 4347 1234 4503 
Q 1613 4659 2075 4659 
Q 2584 4659 2973 4495 
Q 3363 4331 3572 4012 
Q 3781 3694 3797 3291 
L 3216 3247 
Q 3169 3681 2898 3903 
Q 2628 4125 2100 4125 
Q 1550 4125 1298 3923 
Q 1047 3722 1047 3438 
Q 1047 3191 1225 3031 
Q 1400 2872 2139 2705 
Q 2878 2538 3153 2413 
Q 3553 2228 3743 1945 
Q 3934 1663 3934 1294 
Q 3934 928 3725 604 
Q 3516 281 3123 101 
Q 2731 -78 2241 -78 
Q 1619 -78 1198 103 
Q 778 284 539 648 
Q 300 1013 288 1472 
z
" transform="scale(0.015625)"/>
       <path id="ArialMT-43" d="M 3763 1606 
L 4369 1453 
Q 4178 706 3683 314 
Q 3188 -78 2472 -78 
Q 1731 -78 1267 223 
Q 803 525 561 1097 
Q 319 1669 319 2325 
Q 319 3041 592 3573 
Q 866 4106 1370 4382 
Q 1875 4659 2481 4659 
Q 3169 4659 3637 4309 
Q 4106 3959 4291 3325 
L 3694 3184 
Q 3534 3684 3231 3912 
Q 2928 4141 2469 4141 
Q 1941 4141 1586 3887 
Q 1231 3634 1087 3207 
Q 944 2781 944 2328 
Q 944 1744 1114 1308 
Q 1284 872 1643 656 
Q 2003 441 2422 441 
Q 2931 441 3284 734 
Q 3638 1028 3763 1606 
z
" transform="scale(0.015625)"/>
       <path id="ArialMT-29" d="M 791 -1347 
L 388 -1347 
Q 1322 153 1322 1656 
Q 1322 2244 1188 2822 
Q 1081 3291 891 3722 
Q 769 4003 388 4659 
L 791 4659 
Q 1378 3875 1659 3084 
Q 1900 2403 1900 1659 
Q 1900 816 1576 28 
Q 1253 -759 791 -1347 
z
" transform="scale(0.015625)"/>
      </defs>
      <use xlink:href="#ArialMT-41"/>
      <use xlink:href="#ArialMT-6d" x="66.699219"/>
      <use xlink:href="#ArialMT-6f" x="150"/>
      <use xlink:href="#ArialMT-75" x="205.615234"/>
      <use xlink:href="#ArialMT-6e" x="261.230469"/>
      <use xlink:href="#ArialMT-74" x="316.845703"/>
      <use xlink:href="#ArialMT-20" x="344.628906"/>
      <use xlink:href="#ArialMT-28" x="372.412109"/>
      <use xlink:href="#ArialMT-55" x="405.712891"/>
      <use xlink:href="#ArialMT-53" x="477.929688"/>
      <use xlink:href="#ArialMT-44" x="544.628906"/>
      <use xlink:href="#ArialMT-43" x="616.845703"/>
      <use xlink:href="#ArialMT-29" x="689.0625"/>
     </g>
    </g>
    <g id="text_19">
     <!-- 1e8 -->
     <g style="fill: #262626" transform="translate(48.018125 23.084062) scale(0.12 -0.12)">
      <defs>
       <path id="ArialMT-38" d="M 1131 2484 
Q 781 2613 612 2850 
Q 444 3088 444 3419 
Q 444 3919 803 4259 
Q 1163 4600 1759 4600 
Q 2359 4600 2725 4251 
Q 3091 3903 3091 3403 
Q 3091 3084 2923 2848 
Q 2756 2613 2416 2484 
Q 2838 2347 3058 2040 
Q 3278 1734 3278 1309 
Q 3278 722 2862 322 
Q 2447 -78 1769 -78 
Q 1091 -78 675 323 
Q 259 725 259 1325 
Q 259 1772 486 2073 
Q 713 2375 1131 2484 
z
M 1019 3438 
Q 1019 3113 1228 2906 
Q 1438 2700 1772 2700 
Q 2097 2700 2305 2904 
Q 2513 3109 2513 3406 
Q 2513 3716 2298 3927 
Q 2084 4138 1766 4138 
Q 1444 4138 1231 3931 
Q 1019 3725 1019 3438 
z
M 838 1322 
Q 838 1081 952 856 
Q 1066 631 1291 507 
Q 1516 384 1775 384 
Q 2178 384 2440 643 
Q 2703 903 2703 1303 
Q 2703 1709 2433 1975 
Q 2163 2241 1756 2241 
Q 1359 2241 1098 1978 
Q 838 1716 838 1322 
z
" transform="scale(0.015625)"/>
      </defs>
      <use xlink:href="#ArialMT-31"/>
      <use xlink:href="#ArialMT-65" x="55.615234"/>
      <use xlink:href="#ArialMT-38" x="111.230469"/>
     </g>
    </g>
   </g>
   <g id="PolyCollection_1">
    <defs>
     <path id="m9e48a3069c" d="M 96.021655 -150.879875 
L 96.021655 -150.879875 
L 108.044921 -150.879875 
L 120.068186 -151.265691 
L 132.091451 -151.407501 
L 144.114716 -152.054757 
L 156.137982 -152.256571 
L 168.161247 -153.405432 
L 180.184512 -161.432886 
L 192.13621 -164.049085 
L 204.159475 -169.547076 
L 216.182741 -183.21971 
L 228.206006 -169.649134 
L 240.229271 -173.785659 
L 252.252536 -172.891512 
L 264.275801 -182.70787 
L 276.299067 -201.531677 
L 288.322332 -205.214821 
L 300.345597 -205.88223 
L 312.368862 -199.140095 
L 324.392128 -199.919857 
L 336.415393 -253.037908 
L 348.438658 -269.258909 
L 360.461923 -275.694422 
L 372.485188 -288.787997 
L 384.508454 -354.130202 
L 396.531719 -376.707295 
L 408.554984 -384.300168 
L 420.578249 -393.311967 
L 430.882474 -394.184685 
L 430.882474 -150.879875 
L 430.882474 -150.879875 
L 420.578249 -150.879875 
L 408.554984 -150.879875 
L 396.531719 -150.879875 
L 384.508454 -150.879875 
L 372.485188 -150.879875 
L 360.461923 -150.879875 
L 348.438658 -150.879875 
L 336.415393 -150.879875 
L 324.392128 -150.879875 
L 312.368862 -150.879875 
L 300.345597 -150.879875 
L 288.322332 -150.879875 
L 276.299067 -150.879875 
L 264.275801 -150.879875 
L 252.252536 -150.879875 
L 240.229271 -150.879875 
L 228.206006 -150.879875 
L 216.182741 -150.879875 
L 204.159475 -150.879875 
L 192.13621 -150.879875 
L 180.184512 -150.879875 
L 168.161247 -150.879875 
L 156.137982 -150.879875 
L 144.114716 -150.879875 
L 132.091451 -150.879875 
L 120.068186 -150.879875 
L 108.044921 -150.879875 
L 96.021655 -150.879875 
z
" style="stroke: #ff0000; stroke-opacity: 0.2"/>
    </defs>
    <g clip-path="url(#p5b30e62bb6)">
     <use xlink:href="#m9e48a3069c" x="0" y="664.311562" style="fill: #ff0000; fill-opacity: 0.2; stroke: #ff0000; stroke-opacity: 0.2"/>
    </g>
   </g>
   <g id="PolyCollection_2">
    <defs>
     <path id="m39171e9cfe" d="M 96.021655 -150.879875 
L 96.021655 -150.879875 
L 108.044921 -150.879875 
L 120.068186 -151.295258 
L 132.091451 -151.457049 
L 144.114716 -152.13235 
L 156.137982 -153.990083 
L 168.161247 -153.481477 
L 180.184512 -161.974107 
L 192.13621 -164.763914 
L 204.159475 -169.820343 
L 216.182741 -183.476524 
L 228.206006 -170.990826 
L 240.229271 -177.698226 
L 252.252536 -174.826786 
L 264.275801 -189.520362 
L 276.299067 -207.104993 
L 288.322332 -220.138222 
L 300.345597 -213.246505 
L 312.368862 -208.314873 
L 324.392128 -219.790174 
L 336.415393 -279.685351 
L 348.438658 -303.13048 
L 360.461923 -305.39575 
L 372.485188 -331.546563 
L 384.508454 -374.765847 
L 396.531719 -414.173025 
L 408.554984 -411.612329 
L 420.578249 -454.487804 
L 430.882474 -451.292928 
L 430.882474 -394.184685 
L 430.882474 -394.184685 
L 420.578249 -393.311967 
L 408.554984 -384.300168 
L 396.531719 -376.707295 
L 384.508454 -354.130202 
L 372.485188 -288.787997 
L 360.461923 -275.694422 
L 348.438658 -269.258909 
L 336.415393 -253.037908 
L 324.392128 -199.919857 
L 312.368862 -199.140095 
L 300.345597 -205.88223 
L 288.322332 -205.214821 
L 276.299067 -201.531677 
L 264.275801 -182.70787 
L 252.252536 -172.891512 
L 240.229271 -173.785659 
L 228.206006 -169.649134 
L 216.182741 -183.21971 
L 204.159475 -169.547076 
L 192.13621 -164.049085 
L 180.184512 -161.432886 
L 168.161247 -153.405432 
L 156.137982 -152.256571 
L 144.114716 -152.054757 
L 132.091451 -151.407501 
L 120.068186 -151.265691 
L 108.044921 -150.879875 
L 96.021655 -150.879875 
z
" style="stroke: #008000; stroke-opacity: 0.2"/>
    </defs>
    <g clip-path="url(#p5b30e62bb6)">
     <use xlink:href="#m39171e9cfe" x="0" y="664.311562" style="fill: #008000; fill-opacity: 0.2; stroke: #008000; stroke-opacity: 0.2"/>
    </g>
   </g>
   <g id="line2d_17">
    <path d="M 96.021655 513.431687 
L 108.044921 513.431687 
L 120.068186 513.016305 
L 132.091451 512.854513 
L 144.114716 512.179212 
L 156.137982 510.32148 
L 168.161247 510.830086 
L 180.184512 502.337456 
L 192.13621 499.547648 
L 204.159475 494.491219 
L 216.182741 480.835038 
L 228.206006 493.320736 
L 240.229271 486.613337 
L 252.252536 489.484777 
L 264.275801 474.791201 
L 276.299067 457.20657 
L 288.322332 444.17334 
L 300.345597 451.065057 
L 312.368862 455.99669 
L 324.392128 444.521388 
L 336.415393 384.626212 
L 348.438658 361.181083 
L 360.461923 358.915813 
L 372.485188 332.764999 
L 384.508454 289.545716 
L 396.531719 250.138537 
L 408.554984 252.699233 
L 420.578249 209.823758 
L 430.882474 213.018634 
" clip-path="url(#p5b30e62bb6)" style="fill: none; stroke: #0000ff; stroke-width: 3; stroke-linecap: round"/>
   </g>
   <g id="line2d_18">
    <path d="M 96.021655 513.431687 
L 108.044921 513.431687 
L 120.068186 513.045872 
L 132.091451 512.904061 
L 144.114716 512.256806 
L 156.137982 512.054991 
L 168.161247 510.906131 
L 180.184512 502.878677 
L 192.13621 500.262478 
L 204.159475 494.764487 
L 216.182741 481.091853 
L 228.206006 494.662429 
L 240.229271 490.525904 
L 252.252536 491.420051 
L 264.275801 481.603692 
L 276.299067 462.779885 
L 288.322332 459.096742 
L 300.345597 458.429333 
L 312.368862 465.171467 
L 324.392128 464.391705 
L 336.415393 411.273654 
L 348.438658 395.052654 
L 360.461923 388.61714 
L 372.485188 375.523565 
L 384.508454 310.181361 
L 396.531719 287.604268 
L 408.554984 280.011395 
L 420.578249 270.999595 
L 430.882474 270.126878 
" clip-path="url(#p5b30e62bb6)" style="fill: none; stroke: #ff0000; stroke-width: 3; stroke-linecap: round"/>
   </g>
   <g id="line2d_19">
    <path d="M 96.021655 513.431687 
L 108.044921 513.431687 
L 120.068186 513.40212 
L 132.091451 513.382139 
L 144.114716 513.354094 
L 156.137982 511.698175 
L 168.161247 513.355642 
L 180.184512 512.890466 
L 192.13621 512.716857 
L 204.159475 513.158419 
L 216.182741 513.174873 
L 228.206006 512.089994 
L 240.229271 509.51912 
L 252.252536 511.496413 
L 264.275801 506.619195 
L 276.299067 507.858371 
L 288.322332 498.508285 
L 300.345597 506.067411 
L 312.368862 504.256909 
L 324.392128 493.56137 
L 336.415393 486.784245 
L 348.438658 479.560116 
L 360.461923 483.73036 
L 372.485188 470.673121 
L 384.508454 492.796042 
L 396.531719 475.965957 
L 408.554984 486.119526 
L 420.578249 452.25585 
L 430.882474 456.323443 
" clip-path="url(#p5b30e62bb6)" style="fill: none; stroke: #008000; stroke-opacity: 0.7; stroke-width: 2.5; stroke-linecap: round"/>
   </g>
   <g id="line2d_20">
    <path d="M 430.882474 536.638717 
L 430.882474 26.084062 
" clip-path="url(#p5b30e62bb6)" style="fill: none; stroke-dasharray: 5.55,2.4; stroke-dashoffset: 0; stroke: #808080; stroke-opacity: 0.7; stroke-width: 1.5"/>
   </g>
   <g id="line2d_21">
    <path d="M 454.929004 206.721421 
L 478.975535 200.424208 
L 503.022065 194.126995 
L 527.068596 187.829781 
L 551.115126 181.532568 
L 575.161656 175.235355 
L 599.208187 168.938142 
L 623.254717 162.640929 
L 647.301248 156.343716 
L 671.347778 150.046503 
L 695.394309 143.749289 
L 719.440839 137.452076 
L 743.487369 131.154863 
L 767.5339 124.85765 
L 791.58043 118.560437 
L 815.626961 112.263224 
L 839.673491 105.966011 
L 863.720022 99.668797 
L 887.766552 93.371584 
L 911.813082 87.074371 
L 935.859613 80.777158 
L 959.906143 74.479945 
L 983.952674 68.182732 
L 1007.999204 61.885519 
L 1032.045735 55.588305 
L 1056.092265 49.291092 
" clip-path="url(#p5b30e62bb6)" style="fill: none; stroke-dasharray: 9.25,4; stroke-dashoffset: 0; stroke: #008000; stroke-width: 2.5"/>
    <defs>
     <path id="m575bee8bac" d="M 0 2 
C 0.530406 2 1.03916 1.789267 1.414214 1.414214 
C 1.789267 1.03916 2 0.530406 2 0 
C 2 -0.530406 1.789267 -1.03916 1.414214 -1.414214 
C 1.03916 -1.789267 0.530406 -2 0 -2 
C -0.530406 -2 -1.03916 -1.789267 -1.414214 -1.414214 
C -1.789267 -1.03916 -2 -0.530406 -2 0 
C -2 0.530406 -1.789267 1.03916 -1.414214 1.414214 
C -1.03916 1.789267 -0.530406 2 0 2 
z
" style="stroke: #008000"/>
    </defs>
    <g clip-path="url(#p5b30e62bb6)">
     <use xlink:href="#m575bee8bac" x="454.929004" y="206.721421" style="fill: #008000; stroke: #008000"/>
     <use xlink:href="#m575bee8bac" x="527.068596" y="187.829781" style="fill: #008000; stroke: #008000"/>
     <use xlink:href="#m575bee8bac" x="599.208187" y="168.938142" style="fill: #008000; stroke: #008000"/>
     <use xlink:href="#m575bee8bac" x="671.347778" y="150.046503" style="fill: #008000; stroke: #008000"/>
     <use xlink:href="#m575bee8bac" x="743.487369" y="131.154863" style="fill: #008000; stroke: #008000"/>
     <use xlink:href="#m575bee8bac" x="815.626961" y="112.263224" style="fill: #008000; stroke: #008000"/>
     <use xlink:href="#m575bee8bac" x="887.766552" y="93.371584" style="fill: #008000; stroke: #008000"/>
     <use xlink:href="#m575bee8bac" x="959.906143" y="74.479945" style="fill: #008000; stroke: #008000"/>
     <use xlink:href="#m575bee8bac" x="1032.045735" y="55.588305" style="fill: #008000; stroke: #008000"/>
    </g>
   </g>
   <g id="line2d_22">
    <path d="M 454.929004 264.453876 
L 478.975535 258.780874 
L 503.022065 253.107873 
L 527.068596 247.434871 
L 551.115126 241.761869 
L 575.161656 236.088867 
L 599.208187 230.415865 
L 623.254717 224.742864 
L 647.301248 219.069862 
L 671.347778 213.39686 
L 695.394309 207.723858 
L 719.440839 202.050856 
L 743.487369 196.377855 
L 767.5339 190.704853 
L 791.58043 185.031851 
L 815.626961 179.358849 
L 839.673491 173.685847 
L 863.720022 168.012846 
L 887.766552 162.339844 
L 911.813082 156.666842 
L 935.859613 150.99384 
L 959.906143 145.320838 
L 983.952674 139.647837 
L 1007.999204 133.974835 
L 1032.045735 128.301833 
L 1056.092265 122.628831 
" clip-path="url(#p5b30e62bb6)" style="fill: none; stroke-dasharray: 15,6,3,6; stroke-dashoffset: 0; stroke: #008000; stroke-width: 3"/>
    <defs>
     <path id="m5151cc8c7b" d="M 0 2.5 
C 0.663008 2.5 1.29895 2.236584 1.767767 1.767767 
C 2.236584 1.29895 2.5 0.663008 2.5 0 
C 2.5 -0.663008 2.236584 -1.29895 1.767767 -1.767767 
C 1.29895 -2.236584 0.663008 -2.5 0 -2.5 
C -0.663008 -2.5 -1.29895 -2.236584 -1.767767 -1.767767 
C -2.236584 -1.29895 -2.5 -0.663008 -2.5 0 
C -2.5 0.663008 -2.236584 1.29895 -1.767767 1.767767 
C -1.29895 2.236584 -0.663008 2.5 0 2.5 
z
" style="stroke: #008000"/>
    </defs>
    <g clip-path="url(#p5b30e62bb6)">
     <use xlink:href="#m5151cc8c7b" x="454.929004" y="264.453876" style="fill: #008000; stroke: #008000"/>
     <use xlink:href="#m5151cc8c7b" x="527.068596" y="247.434871" style="fill: #008000; stroke: #008000"/>
     <use xlink:href="#m5151cc8c7b" x="599.208187" y="230.415865" style="fill: #008000; stroke: #008000"/>
     <use xlink:href="#m5151cc8c7b" x="671.347778" y="213.39686" style="fill: #008000; stroke: #008000"/>
     <use xlink:href="#m5151cc8c7b" x="743.487369" y="196.377855" style="fill: #008000; stroke: #008000"/>
     <use xlink:href="#m5151cc8c7b" x="815.626961" y="179.358849" style="fill: #008000; stroke: #008000"/>
     <use xlink:href="#m5151cc8c7b" x="887.766552" y="162.339844" style="fill: #008000; stroke: #008000"/>
     <use xlink:href="#m5151cc8c7b" x="959.906143" y="145.320838" style="fill: #008000; stroke: #008000"/>
     <use xlink:href="#m5151cc8c7b" x="1032.045735" y="128.301833" style="fill: #008000; stroke: #008000"/>
    </g>
   </g>
   <g id="line2d_23">
    <path d="M 454.929004 455.699232 
L 478.975535 455.07502 
L 503.022065 454.450809 
L 527.068596 453.826598 
L 551.115126 453.202386 
L 575.161656 452.578175 
L 599.208187 451.953964 
L 623.254717 451.329752 
L 647.301248 450.705541 
L 671.347778 450.08133 
L 695.394309 449.457118 
L 719.440839 448.832907 
L 743.487369 448.208696 
L 767.5339 447.584484 
L 791.58043 446.960273 
L 815.626961 446.336062 
L 839.673491 445.71185 
L 863.720022 445.087639 
L 887.766552 444.463427 
L 911.813082 443.839216 
L 935.859613 443.215005 
L 959.906143 442.590793 
L 983.952674 441.966582 
L 1007.999204 441.342371 
L 1032.045735 440.718159 
L 1056.092265 440.093948 
" clip-path="url(#p5b30e62bb6)" style="fill: none; stroke-dasharray: 2,3.3; stroke-dashoffset: 0; stroke: #008000; stroke-opacity: 0.7; stroke-width: 2"/>
    <defs>
     <path id="m1e75ded69a" d="M 0 2 
C 0.530406 2 1.03916 1.789267 1.414214 1.414214 
C 1.789267 1.03916 2 0.530406 2 0 
C 2 -0.530406 1.789267 -1.03916 1.414214 -1.414214 
C 1.03916 -1.789267 0.530406 -2 0 -2 
C -0.530406 -2 -1.03916 -1.789267 -1.414214 -1.414214 
C -1.789267 -1.03916 -2 -0.530406 -2 0 
C -2 0.530406 -1.789267 1.03916 -1.414214 1.414214 
C -1.03916 1.789267 -0.530406 2 0 2 
z
" style="stroke: #008000; stroke-opacity: 0.7"/>
    </defs>
    <g clip-path="url(#p5b30e62bb6)">
     <use xlink:href="#m1e75ded69a" x="454.929004" y="455.699232" style="fill: #008000; fill-opacity: 0.7; stroke: #008000; stroke-opacity: 0.7"/>
     <use xlink:href="#m1e75ded69a" x="527.068596" y="453.826598" style="fill: #008000; fill-opacity: 0.7; stroke: #008000; stroke-opacity: 0.7"/>
     <use xlink:href="#m1e75ded69a" x="599.208187" y="451.953964" style="fill: #008000; fill-opacity: 0.7; stroke: #008000; stroke-opacity: 0.7"/>
     <use xlink:href="#m1e75ded69a" x="671.347778" y="450.08133" style="fill: #008000; fill-opacity: 0.7; stroke: #008000; stroke-opacity: 0.7"/>
     <use xlink:href="#m1e75ded69a" x="743.487369" y="448.208696" style="fill: #008000; fill-opacity: 0.7; stroke: #008000; stroke-opacity: 0.7"/>
     <use xlink:href="#m1e75ded69a" x="815.626961" y="446.336062" style="fill: #008000; fill-opacity: 0.7; stroke: #008000; stroke-opacity: 0.7"/>
     <use xlink:href="#m1e75ded69a" x="887.766552" y="444.463427" style="fill: #008000; fill-opacity: 0.7; stroke: #008000; stroke-opacity: 0.7"/>
     <use xlink:href="#m1e75ded69a" x="959.906143" y="442.590793" style="fill: #008000; fill-opacity: 0.7; stroke: #008000; stroke-opacity: 0.7"/>
     <use xlink:href="#m1e75ded69a" x="1032.045735" y="440.718159" style="fill: #008000; fill-opacity: 0.7; stroke: #008000; stroke-opacity: 0.7"/>
    </g>
   </g>
   <g id="line2d_24">
    <path d="M 454.929004 209.870027 
L 478.975535 206.721421 
L 503.022065 203.572814 
L 527.068596 200.424208 
L 551.115126 197.275601 
L 575.161656 194.126995 
L 599.208187 190.978388 
L 623.254717 187.829781 
L 647.301248 184.681175 
L 671.347778 181.532568 
L 695.394309 178.383962 
L 719.440839 175.235355 
L 743.487369 172.086749 
L 767.5339 168.938142 
L 791.58043 165.789535 
L 815.626961 162.640929 
L 839.673491 159.492322 
L 863.720022 156.343716 
L 887.766552 153.195109 
L 911.813082 150.046503 
L 935.859613 146.897896 
L 959.906143 143.749289 
L 983.952674 140.600683 
L 1007.999204 137.452076 
L 1032.045735 134.30347 
L 1056.092265 131.154863 
" clip-path="url(#p5b30e62bb6)" style="fill: none; stroke-dasharray: 9.25,4; stroke-dashoffset: 0; stroke: #bfbf00; stroke-width: 2.5"/>
    <defs>
     <path id="md2a5d7feac" d="M -2 2 
L 2 2 
L 2 -2 
L -2 -2 
z
" style="stroke: #bfbf00; stroke-linejoin: miter"/>
    </defs>
    <g clip-path="url(#p5b30e62bb6)">
     <use xlink:href="#md2a5d7feac" x="454.929004" y="209.870027" style="fill: #bfbf00; stroke: #bfbf00; stroke-linejoin: miter"/>
     <use xlink:href="#md2a5d7feac" x="527.068596" y="200.424208" style="fill: #bfbf00; stroke: #bfbf00; stroke-linejoin: miter"/>
     <use xlink:href="#md2a5d7feac" x="599.208187" y="190.978388" style="fill: #bfbf00; stroke: #bfbf00; stroke-linejoin: miter"/>
     <use xlink:href="#md2a5d7feac" x="671.347778" y="181.532568" style="fill: #bfbf00; stroke: #bfbf00; stroke-linejoin: miter"/>
     <use xlink:href="#md2a5d7feac" x="743.487369" y="172.086749" style="fill: #bfbf00; stroke: #bfbf00; stroke-linejoin: miter"/>
     <use xlink:href="#md2a5d7feac" x="815.626961" y="162.640929" style="fill: #bfbf00; stroke: #bfbf00; stroke-linejoin: miter"/>
     <use xlink:href="#md2a5d7feac" x="887.766552" y="153.195109" style="fill: #bfbf00; stroke: #bfbf00; stroke-linejoin: miter"/>
     <use xlink:href="#md2a5d7feac" x="959.906143" y="143.749289" style="fill: #bfbf00; stroke: #bfbf00; stroke-linejoin: miter"/>
     <use xlink:href="#md2a5d7feac" x="1032.045735" y="134.30347" style="fill: #bfbf00; stroke: #bfbf00; stroke-linejoin: miter"/>
    </g>
   </g>
   <g id="line2d_25">
    <path d="M 454.929004 267.290377 
L 478.975535 264.453876 
L 503.022065 261.617375 
L 527.068596 258.780874 
L 551.115126 255.944373 
L 575.161656 253.107873 
L 599.208187 250.271372 
L 623.254717 247.434871 
L 647.301248 244.59837 
L 671.347778 241.761869 
L 695.394309 238.925368 
L 719.440839 236.088867 
L 743.487369 233.252366 
L 767.5339 230.415865 
L 791.58043 227.579364 
L 815.626961 224.742864 
L 839.673491 221.906363 
L 863.720022 219.069862 
L 887.766552 216.233361 
L 911.813082 213.39686 
L 935.859613 210.560359 
L 959.906143 207.723858 
L 983.952674 204.887357 
L 1007.999204 202.050856 
L 1032.045735 199.214355 
L 1056.092265 196.377855 
" clip-path="url(#p5b30e62bb6)" style="fill: none; stroke-dasharray: 15,6,3,6; stroke-dashoffset: 0; stroke: #bfbf00; stroke-width: 3"/>
    <defs>
     <path id="m322350a521" d="M -2.5 2.5 
L 2.5 2.5 
L 2.5 -2.5 
L -2.5 -2.5 
z
" style="stroke: #bfbf00; stroke-linejoin: miter"/>
    </defs>
    <g clip-path="url(#p5b30e62bb6)">
     <use xlink:href="#m322350a521" x="454.929004" y="267.290377" style="fill: #bfbf00; stroke: #bfbf00; stroke-linejoin: miter"/>
     <use xlink:href="#m322350a521" x="527.068596" y="258.780874" style="fill: #bfbf00; stroke: #bfbf00; stroke-linejoin: miter"/>
     <use xlink:href="#m322350a521" x="599.208187" y="250.271372" style="fill: #bfbf00; stroke: #bfbf00; stroke-linejoin: miter"/>
     <use xlink:href="#m322350a521" x="671.347778" y="241.761869" style="fill: #bfbf00; stroke: #bfbf00; stroke-linejoin: miter"/>
     <use xlink:href="#m322350a521" x="743.487369" y="233.252366" style="fill: #bfbf00; stroke: #bfbf00; stroke-linejoin: miter"/>
     <use xlink:href="#m322350a521" x="815.626961" y="224.742864" style="fill: #bfbf00; stroke: #bfbf00; stroke-linejoin: miter"/>
     <use xlink:href="#m322350a521" x="887.766552" y="216.233361" style="fill: #bfbf00; stroke: #bfbf00; stroke-linejoin: miter"/>
     <use xlink:href="#m322350a521" x="959.906143" y="207.723858" style="fill: #bfbf00; stroke: #bfbf00; stroke-linejoin: miter"/>
     <use xlink:href="#m322350a521" x="1032.045735" y="199.214355" style="fill: #bfbf00; stroke: #bfbf00; stroke-linejoin: miter"/>
    </g>
   </g>
   <g id="line2d_26">
    <path d="M 454.929004 456.011338 
L 478.975535 455.699232 
L 503.022065 455.387126 
L 527.068596 455.07502 
L 551.115126 454.762915 
L 575.161656 454.450809 
L 599.208187 454.138703 
L 623.254717 453.826598 
L 647.301248 453.514492 
L 671.347778 453.202386 
L 695.394309 452.890281 
L 719.440839 452.578175 
L 743.487369 452.266069 
L 767.5339 451.953964 
L 791.58043 451.641858 
L 815.626961 451.329752 
L 839.673491 451.017647 
L 863.720022 450.705541 
L 887.766552 450.393435 
L 911.813082 450.08133 
L 935.859613 449.769224 
L 959.906143 449.457118 
L 983.952674 449.145013 
L 1007.999204 448.832907 
L 1032.045735 448.520801 
L 1056.092265 448.208696 
" clip-path="url(#p5b30e62bb6)" style="fill: none; stroke-dasharray: 2,3.3; stroke-dashoffset: 0; stroke: #bfbf00; stroke-opacity: 0.7; stroke-width: 2"/>
    <defs>
     <path id="mf0b7427e3b" d="M -2 2 
L 2 2 
L 2 -2 
L -2 -2 
z
" style="stroke: #bfbf00; stroke-opacity: 0.7; stroke-linejoin: miter"/>
    </defs>
    <g clip-path="url(#p5b30e62bb6)">
     <use xlink:href="#mf0b7427e3b" x="454.929004" y="456.011338" style="fill: #bfbf00; fill-opacity: 0.7; stroke: #bfbf00; stroke-opacity: 0.7; stroke-linejoin: miter"/>
     <use xlink:href="#mf0b7427e3b" x="527.068596" y="455.07502" style="fill: #bfbf00; fill-opacity: 0.7; stroke: #bfbf00; stroke-opacity: 0.7; stroke-linejoin: miter"/>
     <use xlink:href="#mf0b7427e3b" x="599.208187" y="454.138703" style="fill: #bfbf00; fill-opacity: 0.7; stroke: #bfbf00; stroke-opacity: 0.7; stroke-linejoin: miter"/>
     <use xlink:href="#mf0b7427e3b" x="671.347778" y="453.202386" style="fill: #bfbf00; fill-opacity: 0.7; stroke: #bfbf00; stroke-opacity: 0.7; stroke-linejoin: miter"/>
     <use xlink:href="#mf0b7427e3b" x="743.487369" y="452.266069" style="fill: #bfbf00; fill-opacity: 0.7; stroke: #bfbf00; stroke-opacity: 0.7; stroke-linejoin: miter"/>
     <use xlink:href="#mf0b7427e3b" x="815.626961" y="451.329752" style="fill: #bfbf00; fill-opacity: 0.7; stroke: #bfbf00; stroke-opacity: 0.7; stroke-linejoin: miter"/>
     <use xlink:href="#mf0b7427e3b" x="887.766552" y="450.393435" style="fill: #bfbf00; fill-opacity: 0.7; stroke: #bfbf00; stroke-opacity: 0.7; stroke-linejoin: miter"/>
     <use xlink:href="#mf0b7427e3b" x="959.906143" y="449.457118" style="fill: #bfbf00; fill-opacity: 0.7; stroke: #bfbf00; stroke-opacity: 0.7; stroke-linejoin: miter"/>
     <use xlink:href="#mf0b7427e3b" x="1032.045735" y="448.520801" style="fill: #bfbf00; fill-opacity: 0.7; stroke: #bfbf00; stroke-opacity: 0.7; stroke-linejoin: miter"/>
    </g>
   </g>
   <g id="line2d_27">
    <path d="M 454.929004 212.388913 
L 478.975535 211.759191 
L 503.022065 211.12947 
L 527.068596 210.499749 
L 551.115126 209.870027 
L 575.161656 209.240306 
L 599.208187 208.610585 
L 623.254717 207.980864 
L 647.301248 207.351142 
L 671.347778 206.721421 
L 695.394309 206.0917 
L 719.440839 205.461978 
L 743.487369 204.832257 
L 767.5339 204.202536 
L 791.58043 203.572814 
L 815.626961 202.943093 
L 839.673491 202.313372 
L 863.720022 201.68365 
L 887.766552 201.053929 
L 911.813082 200.424208 
L 935.859613 199.794486 
L 959.906143 199.164765 
L 983.952674 198.535044 
L 1007.999204 197.905322 
L 1032.045735 197.275601 
L 1056.092265 196.64588 
" clip-path="url(#p5b30e62bb6)" style="fill: none; stroke-dasharray: 9.25,4; stroke-dashoffset: 0; stroke: #ff0000; stroke-width: 2.5"/>
    <defs>
     <path id="md2baf8c916" d="M 0 -2 
L -2 2 
L 2 2 
z
" style="stroke: #ff0000; stroke-linejoin: miter"/>
    </defs>
    <g clip-path="url(#p5b30e62bb6)">
     <use xlink:href="#md2baf8c916" x="454.929004" y="212.388913" style="fill: #ff0000; stroke: #ff0000; stroke-linejoin: miter"/>
     <use xlink:href="#md2baf8c916" x="527.068596" y="210.499749" style="fill: #ff0000; stroke: #ff0000; stroke-linejoin: miter"/>
     <use xlink:href="#md2baf8c916" x="599.208187" y="208.610585" style="fill: #ff0000; stroke: #ff0000; stroke-linejoin: miter"/>
     <use xlink:href="#md2baf8c916" x="671.347778" y="206.721421" style="fill: #ff0000; stroke: #ff0000; stroke-linejoin: miter"/>
     <use xlink:href="#md2baf8c916" x="743.487369" y="204.832257" style="fill: #ff0000; stroke: #ff0000; stroke-linejoin: miter"/>
     <use xlink:href="#md2baf8c916" x="815.626961" y="202.943093" style="fill: #ff0000; stroke: #ff0000; stroke-linejoin: miter"/>
     <use xlink:href="#md2baf8c916" x="887.766552" y="201.053929" style="fill: #ff0000; stroke: #ff0000; stroke-linejoin: miter"/>
     <use xlink:href="#md2baf8c916" x="959.906143" y="199.164765" style="fill: #ff0000; stroke: #ff0000; stroke-linejoin: miter"/>
     <use xlink:href="#md2baf8c916" x="1032.045735" y="197.275601" style="fill: #ff0000; stroke: #ff0000; stroke-linejoin: miter"/>
    </g>
   </g>
   <g id="line2d_28">
    <path d="M 454.929004 269.559578 
L 478.975535 268.992278 
L 503.022065 268.424977 
L 527.068596 267.857677 
L 551.115126 267.290377 
L 575.161656 266.723077 
L 599.208187 266.155777 
L 623.254717 265.588476 
L 647.301248 265.021176 
L 671.347778 264.453876 
L 695.394309 263.886576 
L 719.440839 263.319276 
L 743.487369 262.751976 
L 767.5339 262.184675 
L 791.58043 261.617375 
L 815.626961 261.050075 
L 839.673491 260.482775 
L 863.720022 259.915475 
L 887.766552 259.348174 
L 911.813082 258.780874 
L 935.859613 258.213574 
L 959.906143 257.646274 
L 983.952674 257.078974 
L 1007.999204 256.511674 
L 1032.045735 255.944373 
L 1056.092265 255.377073 
" clip-path="url(#p5b30e62bb6)" style="fill: none; stroke-dasharray: 15,6,3,6; stroke-dashoffset: 0; stroke: #ff0000; stroke-width: 3"/>
    <defs>
     <path id="m7614713d10" d="M 0 -2.5 
L -2.5 2.5 
L 2.5 2.5 
z
" style="stroke: #ff0000; stroke-linejoin: miter"/>
    </defs>
    <g clip-path="url(#p5b30e62bb6)">
     <use xlink:href="#m7614713d10" x="454.929004" y="269.559578" style="fill: #ff0000; stroke: #ff0000; stroke-linejoin: miter"/>
     <use xlink:href="#m7614713d10" x="527.068596" y="267.857677" style="fill: #ff0000; stroke: #ff0000; stroke-linejoin: miter"/>
     <use xlink:href="#m7614713d10" x="599.208187" y="266.155777" style="fill: #ff0000; stroke: #ff0000; stroke-linejoin: miter"/>
     <use xlink:href="#m7614713d10" x="671.347778" y="264.453876" style="fill: #ff0000; stroke: #ff0000; stroke-linejoin: miter"/>
     <use xlink:href="#m7614713d10" x="743.487369" y="262.751976" style="fill: #ff0000; stroke: #ff0000; stroke-linejoin: miter"/>
     <use xlink:href="#m7614713d10" x="815.626961" y="261.050075" style="fill: #ff0000; stroke: #ff0000; stroke-linejoin: miter"/>
     <use xlink:href="#m7614713d10" x="887.766552" y="259.348174" style="fill: #ff0000; stroke: #ff0000; stroke-linejoin: miter"/>
     <use xlink:href="#m7614713d10" x="959.906143" y="257.646274" style="fill: #ff0000; stroke: #ff0000; stroke-linejoin: miter"/>
     <use xlink:href="#m7614713d10" x="1032.045735" y="255.944373" style="fill: #ff0000; stroke: #ff0000; stroke-linejoin: miter"/>
    </g>
   </g>
   <g id="line2d_29">
    <path d="M 454.929004 456.261022 
L 478.975535 456.198601 
L 503.022065 456.13618 
L 527.068596 456.073759 
L 551.115126 456.011338 
L 575.161656 455.948916 
L 599.208187 455.886495 
L 623.254717 455.824074 
L 647.301248 455.761653 
L 671.347778 455.699232 
L 695.394309 455.636811 
L 719.440839 455.57439 
L 743.487369 455.511968 
L 767.5339 455.449547 
L 791.58043 455.387126 
L 815.626961 455.324705 
L 839.673491 455.262284 
L 863.720022 455.199863 
L 887.766552 455.137442 
L 911.813082 455.07502 
L 935.859613 455.012599 
L 959.906143 454.950178 
L 983.952674 454.887757 
L 1007.999204 454.825336 
L 1032.045735 454.762915 
L 1056.092265 454.700494 
" clip-path="url(#p5b30e62bb6)" style="fill: none; stroke-dasharray: 2,3.3; stroke-dashoffset: 0; stroke: #ff0000; stroke-opacity: 0.7; stroke-width: 2"/>
    <defs>
     <path id="md885405a8a" d="M 0 -2 
L -2 2 
L 2 2 
z
" style="stroke: #ff0000; stroke-opacity: 0.7; stroke-linejoin: miter"/>
    </defs>
    <g clip-path="url(#p5b30e62bb6)">
     <use xlink:href="#md885405a8a" x="454.929004" y="456.261022" style="fill: #ff0000; fill-opacity: 0.7; stroke: #ff0000; stroke-opacity: 0.7; stroke-linejoin: miter"/>
     <use xlink:href="#md885405a8a" x="527.068596" y="456.073759" style="fill: #ff0000; fill-opacity: 0.7; stroke: #ff0000; stroke-opacity: 0.7; stroke-linejoin: miter"/>
     <use xlink:href="#md885405a8a" x="599.208187" y="455.886495" style="fill: #ff0000; fill-opacity: 0.7; stroke: #ff0000; stroke-opacity: 0.7; stroke-linejoin: miter"/>
     <use xlink:href="#md885405a8a" x="671.347778" y="455.699232" style="fill: #ff0000; fill-opacity: 0.7; stroke: #ff0000; stroke-opacity: 0.7; stroke-linejoin: miter"/>
     <use xlink:href="#md885405a8a" x="743.487369" y="455.511968" style="fill: #ff0000; fill-opacity: 0.7; stroke: #ff0000; stroke-opacity: 0.7; stroke-linejoin: miter"/>
     <use xlink:href="#md885405a8a" x="815.626961" y="455.324705" style="fill: #ff0000; fill-opacity: 0.7; stroke: #ff0000; stroke-opacity: 0.7; stroke-linejoin: miter"/>
     <use xlink:href="#md885405a8a" x="887.766552" y="455.137442" style="fill: #ff0000; fill-opacity: 0.7; stroke: #ff0000; stroke-opacity: 0.7; stroke-linejoin: miter"/>
     <use xlink:href="#md885405a8a" x="959.906143" y="454.950178" style="fill: #ff0000; fill-opacity: 0.7; stroke: #ff0000; stroke-opacity: 0.7; stroke-linejoin: miter"/>
     <use xlink:href="#md885405a8a" x="1032.045735" y="454.762915" style="fill: #ff0000; fill-opacity: 0.7; stroke: #ff0000; stroke-opacity: 0.7; stroke-linejoin: miter"/>
    </g>
   </g>
   <g id="patch_3">
    <path d="M 48.018125 536.638717 
L 48.018125 26.084063 
" style="fill: none; stroke: #cccccc; stroke-width: 0.8; stroke-linejoin: miter; stroke-linecap: square"/>
   </g>
   <g id="patch_4">
    <path d="M 1104.095795 536.638717 
L 1104.095795 26.084063 
" style="fill: none; stroke: #cccccc; stroke-width: 0.8; stroke-linejoin: miter; stroke-linecap: square"/>
   </g>
   <g id="patch_5">
    <path d="M 48.018125 536.638717 
L 1104.095795 536.638717 
" style="fill: none; stroke: #cccccc; stroke-width: 0.8; stroke-linejoin: miter; stroke-linecap: square"/>
   </g>
   <g id="patch_6">
    <path d="M 48.018125 26.084062 
L 1104.095795 26.084062 
" style="fill: none; stroke: #cccccc; stroke-width: 0.8; stroke-linejoin: miter; stroke-linecap: square"/>
   </g>
   <g id="text_20">
    <g id="patch_7">
     <path d="M 1071.092265 41.006248 
L 1222.751327 41.006248 
Q 1227.151327 41.006248 1227.151327 36.606248 
L 1227.151327 26.283436 
Q 1227.151327 21.883436 1222.751327 21.883436 
L 1071.092265 21.883436 
Q 1066.692265 21.883436 1066.692265 26.283436 
L 1066.692265 36.606248 
Q 1066.692265 41.006248 1071.092265 41.006248 
z
" style="fill: #ffffff; opacity: 0.9; stroke: #008000; stroke-linejoin: miter"/>
    </g>
    <!-- Bullish Supply: 239,084,984.05 -->
    <g style="fill: #262626" transform="translate(1071.092265 34.291092) scale(0.11 -0.11)">
     <defs>
      <path id="ArialMT-42" d="M 469 0 
L 469 4581 
L 2188 4581 
Q 2713 4581 3030 4442 
Q 3347 4303 3526 4014 
Q 3706 3725 3706 3409 
Q 3706 3116 3547 2856 
Q 3388 2597 3066 2438 
Q 3481 2316 3704 2022 
Q 3928 1728 3928 1328 
Q 3928 1006 3792 729 
Q 3656 453 3456 303 
Q 3256 153 2954 76 
Q 2653 0 2216 0 
L 469 0 
z
M 1075 2656 
L 2066 2656 
Q 2469 2656 2644 2709 
Q 2875 2778 2992 2937 
Q 3109 3097 3109 3338 
Q 3109 3566 3000 3739 
Q 2891 3913 2687 3977 
Q 2484 4041 1991 4041 
L 1075 4041 
L 1075 2656 
z
M 1075 541 
L 2216 541 
Q 2509 541 2628 563 
Q 2838 600 2978 687 
Q 3119 775 3209 942 
Q 3300 1109 3300 1328 
Q 3300 1584 3169 1773 
Q 3038 1963 2805 2039 
Q 2572 2116 2134 2116 
L 1075 2116 
L 1075 541 
z
" transform="scale(0.015625)"/>
      <path id="ArialMT-6c" d="M 409 0 
L 409 4581 
L 972 4581 
L 972 0 
L 409 0 
z
" transform="scale(0.015625)"/>
      <path id="ArialMT-69" d="M 425 3934 
L 425 4581 
L 988 4581 
L 988 3934 
L 425 3934 
z
M 425 0 
L 425 3319 
L 988 3319 
L 988 0 
L 425 0 
z
" transform="scale(0.015625)"/>
      <path id="ArialMT-73" d="M 197 991 
L 753 1078 
Q 800 744 1014 566 
Q 1228 388 1613 388 
Q 2000 388 2187 545 
Q 2375 703 2375 916 
Q 2375 1106 2209 1216 
Q 2094 1291 1634 1406 
Q 1016 1563 777 1677 
Q 538 1791 414 1992 
Q 291 2194 291 2438 
Q 291 2659 392 2848 
Q 494 3038 669 3163 
Q 800 3259 1026 3326 
Q 1253 3394 1513 3394 
Q 1903 3394 2198 3281 
Q 2494 3169 2634 2976 
Q 2775 2784 2828 2463 
L 2278 2388 
Q 2241 2644 2061 2787 
Q 1881 2931 1553 2931 
Q 1166 2931 1000 2803 
Q 834 2675 834 2503 
Q 834 2394 903 2306 
Q 972 2216 1119 2156 
Q 1203 2125 1616 2013 
Q 2213 1853 2448 1751 
Q 2684 1650 2818 1456 
Q 2953 1263 2953 975 
Q 2953 694 2789 445 
Q 2625 197 2315 61 
Q 2006 -75 1616 -75 
Q 969 -75 630 194 
Q 291 463 197 991 
z
" transform="scale(0.015625)"/>
      <path id="ArialMT-68" d="M 422 0 
L 422 4581 
L 984 4581 
L 984 2938 
Q 1378 3394 1978 3394 
Q 2347 3394 2619 3248 
Q 2891 3103 3008 2847 
Q 3125 2591 3125 2103 
L 3125 0 
L 2563 0 
L 2563 2103 
Q 2563 2525 2380 2717 
Q 2197 2909 1863 2909 
Q 1613 2909 1392 2779 
Q 1172 2650 1078 2428 
Q 984 2206 984 1816 
L 984 0 
L 422 0 
z
" transform="scale(0.015625)"/>
      <path id="ArialMT-70" d="M 422 -1272 
L 422 3319 
L 934 3319 
L 934 2888 
Q 1116 3141 1344 3267 
Q 1572 3394 1897 3394 
Q 2322 3394 2647 3175 
Q 2972 2956 3137 2557 
Q 3303 2159 3303 1684 
Q 3303 1175 3120 767 
Q 2938 359 2589 142 
Q 2241 -75 1856 -75 
Q 1575 -75 1351 44 
Q 1128 163 984 344 
L 984 -1272 
L 422 -1272 
z
M 931 1641 
Q 931 1000 1190 694 
Q 1450 388 1819 388 
Q 2194 388 2461 705 
Q 2728 1022 2728 1688 
Q 2728 2322 2467 2637 
Q 2206 2953 1844 2953 
Q 1484 2953 1207 2617 
Q 931 2281 931 1641 
z
" transform="scale(0.015625)"/>
      <path id="ArialMT-79" d="M 397 -1278 
L 334 -750 
Q 519 -800 656 -800 
Q 844 -800 956 -737 
Q 1069 -675 1141 -563 
Q 1194 -478 1313 -144 
Q 1328 -97 1363 -6 
L 103 3319 
L 709 3319 
L 1400 1397 
Q 1534 1031 1641 628 
Q 1738 1016 1872 1384 
L 2581 3319 
L 3144 3319 
L 1881 -56 
Q 1678 -603 1566 -809 
Q 1416 -1088 1222 -1217 
Q 1028 -1347 759 -1347 
Q 597 -1347 397 -1278 
z
" transform="scale(0.015625)"/>
      <path id="ArialMT-3a" d="M 578 2678 
L 578 3319 
L 1219 3319 
L 1219 2678 
L 578 2678 
z
M 578 0 
L 578 641 
L 1219 641 
L 1219 0 
L 578 0 
z
" transform="scale(0.015625)"/>
      <path id="ArialMT-2c" d="M 569 0 
L 569 641 
L 1209 641 
L 1209 0 
Q 1209 -353 1084 -570 
Q 959 -788 688 -906 
L 531 -666 
Q 709 -588 793 -436 
Q 878 -284 888 0 
L 569 0 
z
" transform="scale(0.015625)"/>
     </defs>
     <use xlink:href="#ArialMT-42"/>
     <use xlink:href="#ArialMT-75" x="66.699219"/>
     <use xlink:href="#ArialMT-6c" x="122.314453"/>
     <use xlink:href="#ArialMT-6c" x="144.53125"/>
     <use xlink:href="#ArialMT-69" x="166.748047"/>
     <use xlink:href="#ArialMT-73" x="188.964844"/>
     <use xlink:href="#ArialMT-68" x="238.964844"/>
     <use xlink:href="#ArialMT-20" x="294.580078"/>
     <use xlink:href="#ArialMT-53" x="322.363281"/>
     <use xlink:href="#ArialMT-75" x="389.0625"/>
     <use xlink:href="#ArialMT-70" x="444.677734"/>
     <use xlink:href="#ArialMT-70" x="500.292969"/>
     <use xlink:href="#ArialMT-6c" x="555.908203"/>
     <use xlink:href="#ArialMT-79" x="578.125"/>
     <use xlink:href="#ArialMT-3a" x="628.125"/>
     <use xlink:href="#ArialMT-20" x="655.908203"/>
     <use xlink:href="#ArialMT-32" x="683.691406"/>
     <use xlink:href="#ArialMT-33" x="739.306641"/>
     <use xlink:href="#ArialMT-39" x="794.921875"/>
     <use xlink:href="#ArialMT-2c" x="850.537109"/>
     <use xlink:href="#ArialMT-30" x="878.320312"/>
     <use xlink:href="#ArialMT-38" x="933.935547"/>
     <use xlink:href="#ArialMT-34" x="989.550781"/>
     <use xlink:href="#ArialMT-2c" x="1045.166016"/>
     <use xlink:href="#ArialMT-39" x="1072.949219"/>
     <use xlink:href="#ArialMT-38" x="1128.564453"/>
     <use xlink:href="#ArialMT-34" x="1184.179688"/>
     <use xlink:href="#ArialMT-2e" x="1239.794922"/>
     <use xlink:href="#ArialMT-30" x="1267.578125"/>
     <use xlink:href="#ArialMT-35" x="1323.193359"/>
    </g>
   </g>
   <g id="text_21">
    <g id="patch_8">
     <path d="M 1071.092265 154.215081 
L 1223.959609 154.215081 
Q 1228.359609 154.215081 1228.359609 149.815081 
L 1228.359609 139.755238 
Q 1228.359609 135.355238 1223.959609 135.355238 
L 1071.092265 135.355238 
Q 1066.692265 135.355238 1066.692265 139.755238 
L 1066.692265 149.815081 
Q 1066.692265 154.215081 1071.092265 154.215081 
z
" style="fill: #ffffff; opacity: 0.9; stroke: #008000; stroke-linejoin: miter"/>
    </g>
    <!-- Bullish Borrow: 201,307,740.78 -->
    <g style="fill: #262626" transform="translate(1071.092265 147.628831) scale(0.11 -0.11)">
     <defs>
      <path id="ArialMT-72" d="M 416 0 
L 416 3319 
L 922 3319 
L 922 2816 
Q 1116 3169 1280 3281 
Q 1444 3394 1641 3394 
Q 1925 3394 2219 3213 
L 2025 2691 
Q 1819 2813 1613 2813 
Q 1428 2813 1281 2702 
Q 1134 2591 1072 2394 
Q 978 2094 978 1738 
L 978 0 
L 416 0 
z
" transform="scale(0.015625)"/>
      <path id="ArialMT-77" d="M 1034 0 
L 19 3319 
L 600 3319 
L 1128 1403 
L 1325 691 
Q 1338 744 1497 1375 
L 2025 3319 
L 2603 3319 
L 3100 1394 
L 3266 759 
L 3456 1400 
L 4025 3319 
L 4572 3319 
L 3534 0 
L 2950 0 
L 2422 1988 
L 2294 2553 
L 1622 0 
L 1034 0 
z
" transform="scale(0.015625)"/>
     </defs>
     <use xlink:href="#ArialMT-42"/>
     <use xlink:href="#ArialMT-75" x="66.699219"/>
     <use xlink:href="#ArialMT-6c" x="122.314453"/>
     <use xlink:href="#ArialMT-6c" x="144.53125"/>
     <use xlink:href="#ArialMT-69" x="166.748047"/>
     <use xlink:href="#ArialMT-73" x="188.964844"/>
     <use xlink:href="#ArialMT-68" x="238.964844"/>
     <use xlink:href="#ArialMT-20" x="294.580078"/>
     <use xlink:href="#ArialMT-42" x="322.363281"/>
     <use xlink:href="#ArialMT-6f" x="389.0625"/>
     <use xlink:href="#ArialMT-72" x="444.677734"/>
     <use xlink:href="#ArialMT-72" x="477.978516"/>
     <use xlink:href="#ArialMT-6f" x="511.279297"/>
     <use xlink:href="#ArialMT-77" x="566.894531"/>
     <use xlink:href="#ArialMT-3a" x="639.111328"/>
     <use xlink:href="#ArialMT-20" x="666.894531"/>
     <use xlink:href="#ArialMT-32" x="694.677734"/>
     <use xlink:href="#ArialMT-30" x="750.292969"/>
     <use xlink:href="#ArialMT-31" x="805.908203"/>
     <use xlink:href="#ArialMT-2c" x="861.523438"/>
     <use xlink:href="#ArialMT-33" x="889.306641"/>
     <use xlink:href="#ArialMT-30" x="944.921875"/>
     <use xlink:href="#ArialMT-37" x="1000.537109"/>
     <use xlink:href="#ArialMT-2c" x="1056.152344"/>
     <use xlink:href="#ArialMT-37" x="1083.935547"/>
     <use xlink:href="#ArialMT-34" x="1139.550781"/>
     <use xlink:href="#ArialMT-30" x="1195.166016"/>
     <use xlink:href="#ArialMT-2e" x="1250.78125"/>
     <use xlink:href="#ArialMT-37" x="1278.564453"/>
     <use xlink:href="#ArialMT-38" x="1334.179688"/>
    </g>
   </g>
   <g id="text_22">
    <g id="patch_9">
     <path d="M 1071.092265 431.809104 
L 1223.358046 431.809104 
Q 1227.758046 431.809104 1227.758046 427.409104 
L 1227.758046 417.187698 
Q 1227.758046 412.787698 1223.358046 412.787698 
L 1071.092265 412.787698 
Q 1066.692265 412.787698 1066.692265 417.187698 
L 1066.692265 427.409104 
Q 1066.692265 431.809104 1071.092265 431.809104 
z
" style="fill: #ffffff; opacity: 0.9; stroke: #008000; stroke-linejoin: miter"/>
    </g>
    <!-- Bullish Liquidity: 37,777,243.28 -->
    <g style="fill: #262626" transform="translate(1071.092265 425.093948) scale(0.11 -0.11)">
     <defs>
      <path id="ArialMT-4c" d="M 469 0 
L 469 4581 
L 1075 4581 
L 1075 541 
L 3331 541 
L 3331 0 
L 469 0 
z
" transform="scale(0.015625)"/>
      <path id="ArialMT-71" d="M 2538 -1272 
L 2538 353 
Q 2406 169 2170 47 
Q 1934 -75 1669 -75 
Q 1078 -75 651 397 
Q 225 869 225 1691 
Q 225 2191 398 2587 
Q 572 2984 901 3189 
Q 1231 3394 1625 3394 
Q 2241 3394 2594 2875 
L 2594 3319 
L 3100 3319 
L 3100 -1272 
L 2538 -1272 
z
M 803 1669 
Q 803 1028 1072 708 
Q 1341 388 1716 388 
Q 2075 388 2334 692 
Q 2594 997 2594 1619 
Q 2594 2281 2320 2615 
Q 2047 2950 1678 2950 
Q 1313 2950 1058 2639 
Q 803 2328 803 1669 
z
" transform="scale(0.015625)"/>
      <path id="ArialMT-64" d="M 2575 0 
L 2575 419 
Q 2259 -75 1647 -75 
Q 1250 -75 917 144 
Q 584 363 401 755 
Q 219 1147 219 1656 
Q 219 2153 384 2558 
Q 550 2963 881 3178 
Q 1213 3394 1622 3394 
Q 1922 3394 2156 3267 
Q 2391 3141 2538 2938 
L 2538 4581 
L 3097 4581 
L 3097 0 
L 2575 0 
z
M 797 1656 
Q 797 1019 1065 703 
Q 1334 388 1700 388 
Q 2069 388 2326 689 
Q 2584 991 2584 1609 
Q 2584 2291 2321 2609 
Q 2059 2928 1675 2928 
Q 1300 2928 1048 2622 
Q 797 2316 797 1656 
z
" transform="scale(0.015625)"/>
     </defs>
     <use xlink:href="#ArialMT-42"/>
     <use xlink:href="#ArialMT-75" x="66.699219"/>
     <use xlink:href="#ArialMT-6c" x="122.314453"/>
     <use xlink:href="#ArialMT-6c" x="144.53125"/>
     <use xlink:href="#ArialMT-69" x="166.748047"/>
     <use xlink:href="#ArialMT-73" x="188.964844"/>
     <use xlink:href="#ArialMT-68" x="238.964844"/>
     <use xlink:href="#ArialMT-20" x="294.580078"/>
     <use xlink:href="#ArialMT-4c" x="322.363281"/>
     <use xlink:href="#ArialMT-69" x="377.978516"/>
     <use xlink:href="#ArialMT-71" x="400.195312"/>
     <use xlink:href="#ArialMT-75" x="455.810547"/>
     <use xlink:href="#ArialMT-69" x="511.425781"/>
     <use xlink:href="#ArialMT-64" x="533.642578"/>
     <use xlink:href="#ArialMT-69" x="589.257812"/>
     <use xlink:href="#ArialMT-74" x="611.474609"/>
     <use xlink:href="#ArialMT-79" x="639.257812"/>
     <use xlink:href="#ArialMT-3a" x="689.257812"/>
     <use xlink:href="#ArialMT-20" x="717.041016"/>
     <use xlink:href="#ArialMT-33" x="744.824219"/>
     <use xlink:href="#ArialMT-37" x="800.439453"/>
     <use xlink:href="#ArialMT-2c" x="856.054688"/>
     <use xlink:href="#ArialMT-37" x="883.837891"/>
     <use xlink:href="#ArialMT-37" x="939.453125"/>
     <use xlink:href="#ArialMT-37" x="995.068359"/>
     <use xlink:href="#ArialMT-2c" x="1050.683594"/>
     <use xlink:href="#ArialMT-32" x="1078.466797"/>
     <use xlink:href="#ArialMT-34" x="1134.082031"/>
     <use xlink:href="#ArialMT-33" x="1189.697266"/>
     <use xlink:href="#ArialMT-2e" x="1245.3125"/>
     <use xlink:href="#ArialMT-32" x="1273.095703"/>
     <use xlink:href="#ArialMT-38" x="1328.710938"/>
    </g>
   </g>
   <g id="text_23">
    <g id="patch_10">
     <path d="M 1071.092265 197.870019 
L 1225.805546 197.870019 
Q 1230.205546 197.870019 1230.205546 193.470019 
L 1230.205546 183.147207 
Q 1230.205546 178.747207 1225.805546 178.747207 
L 1071.092265 178.747207 
Q 1066.692265 178.747207 1066.692265 183.147207 
L 1066.692265 193.470019 
Q 1066.692265 197.870019 1071.092265 197.870019 
z
" style="fill: #ffffff; opacity: 0.9; stroke: #ffff00; stroke-linejoin: miter"/>
    </g>
    <!-- Neutral Supply: 196,915,868.53 -->
    <g style="fill: #262626" transform="translate(1071.092265 191.154863) scale(0.11 -0.11)">
     <defs>
      <path id="ArialMT-4e" d="M 488 0 
L 488 4581 
L 1109 4581 
L 3516 984 
L 3516 4581 
L 4097 4581 
L 4097 0 
L 3475 0 
L 1069 3600 
L 1069 0 
L 488 0 
z
" transform="scale(0.015625)"/>
     </defs>
     <use xlink:href="#ArialMT-4e"/>
     <use xlink:href="#ArialMT-65" x="72.216797"/>
     <use xlink:href="#ArialMT-75" x="127.832031"/>
     <use xlink:href="#ArialMT-74" x="183.447266"/>
     <use xlink:href="#ArialMT-72" x="211.230469"/>
     <use xlink:href="#ArialMT-61" x="244.53125"/>
     <use xlink:href="#ArialMT-6c" x="300.146484"/>
     <use xlink:href="#ArialMT-20" x="322.363281"/>
     <use xlink:href="#ArialMT-53" x="350.146484"/>
     <use xlink:href="#ArialMT-75" x="416.845703"/>
     <use xlink:href="#ArialMT-70" x="472.460938"/>
     <use xlink:href="#ArialMT-70" x="528.076172"/>
     <use xlink:href="#ArialMT-6c" x="583.691406"/>
     <use xlink:href="#ArialMT-79" x="605.908203"/>
     <use xlink:href="#ArialMT-3a" x="655.908203"/>
     <use xlink:href="#ArialMT-20" x="683.691406"/>
     <use xlink:href="#ArialMT-31" x="711.474609"/>
     <use xlink:href="#ArialMT-39" x="767.089844"/>
     <use xlink:href="#ArialMT-36" x="822.705078"/>
     <use xlink:href="#ArialMT-2c" x="878.320312"/>
     <use xlink:href="#ArialMT-39" x="906.103516"/>
     <use xlink:href="#ArialMT-31" x="961.71875"/>
     <use xlink:href="#ArialMT-35" x="1017.333984"/>
     <use xlink:href="#ArialMT-2c" x="1072.949219"/>
     <use xlink:href="#ArialMT-38" x="1100.732422"/>
     <use xlink:href="#ArialMT-36" x="1156.347656"/>
     <use xlink:href="#ArialMT-38" x="1211.962891"/>
     <use xlink:href="#ArialMT-2e" x="1267.578125"/>
     <use xlink:href="#ArialMT-35" x="1295.361328"/>
     <use xlink:href="#ArialMT-33" x="1350.976562"/>
    </g>
   </g>
   <g id="text_24">
    <g id="patch_11">
     <path d="M 1071.092265 292.964105 
L 1227.013827 292.964105 
Q 1231.413827 292.964105 1231.413827 288.564105 
L 1231.413827 278.504261 
Q 1231.413827 274.104261 1227.013827 274.104261 
L 1071.092265 274.104261 
Q 1066.692265 274.104261 1066.692265 278.504261 
L 1066.692265 288.564105 
Q 1066.692265 292.964105 1071.092265 292.964105 
z
" style="fill: #ffffff; opacity: 0.9; stroke: #ffff00; stroke-linejoin: miter"/>
    </g>
    <!-- Neutral Borrow: 163,318,639.50 -->
    <g style="fill: #262626" transform="translate(1071.092265 286.377855) scale(0.11 -0.11)">
     <use xlink:href="#ArialMT-4e"/>
     <use xlink:href="#ArialMT-65" x="72.216797"/>
     <use xlink:href="#ArialMT-75" x="127.832031"/>
     <use xlink:href="#ArialMT-74" x="183.447266"/>
     <use xlink:href="#ArialMT-72" x="211.230469"/>
     <use xlink:href="#ArialMT-61" x="244.53125"/>
     <use xlink:href="#ArialMT-6c" x="300.146484"/>
     <use xlink:href="#ArialMT-20" x="322.363281"/>
     <use xlink:href="#ArialMT-42" x="350.146484"/>
     <use xlink:href="#ArialMT-6f" x="416.845703"/>
     <use xlink:href="#ArialMT-72" x="472.460938"/>
     <use xlink:href="#ArialMT-72" x="505.761719"/>
     <use xlink:href="#ArialMT-6f" x="539.0625"/>
     <use xlink:href="#ArialMT-77" x="594.677734"/>
     <use xlink:href="#ArialMT-3a" x="666.894531"/>
     <use xlink:href="#ArialMT-20" x="694.677734"/>
     <use xlink:href="#ArialMT-31" x="722.460938"/>
     <use xlink:href="#ArialMT-36" x="778.076172"/>
     <use xlink:href="#ArialMT-33" x="833.691406"/>
     <use xlink:href="#ArialMT-2c" x="889.306641"/>
     <use xlink:href="#ArialMT-33" x="917.089844"/>
     <use xlink:href="#ArialMT-31" x="972.705078"/>
     <use xlink:href="#ArialMT-38" x="1028.320312"/>
     <use xlink:href="#ArialMT-2c" x="1083.935547"/>
     <use xlink:href="#ArialMT-36" x="1111.71875"/>
     <use xlink:href="#ArialMT-33" x="1167.333984"/>
     <use xlink:href="#ArialMT-39" x="1222.949219"/>
     <use xlink:href="#ArialMT-2e" x="1278.564453"/>
     <use xlink:href="#ArialMT-35" x="1306.347656"/>
     <use xlink:href="#ArialMT-30" x="1361.962891"/>
    </g>
   </g>
   <g id="text_25">
    <g id="patch_12">
     <path d="M 1071.092265 504.923852 
L 1226.412265 504.923852 
Q 1230.812265 504.923852 1230.812265 500.523852 
L 1230.812265 490.302446 
Q 1230.812265 485.902446 1226.412265 485.902446 
L 1071.092265 485.902446 
Q 1066.692265 485.902446 1066.692265 490.302446 
L 1066.692265 500.523852 
Q 1066.692265 504.923852 1071.092265 504.923852 
z
" style="fill: #ffffff; opacity: 0.9; stroke: #ffff00; stroke-linejoin: miter"/>
    </g>
    <!-- Neutral Liquidity: 33,597,229.04 -->
    <g style="fill: #262626" transform="translate(1071.092265 498.208696) scale(0.11 -0.11)">
     <use xlink:href="#ArialMT-4e"/>
     <use xlink:href="#ArialMT-65" x="72.216797"/>
     <use xlink:href="#ArialMT-75" x="127.832031"/>
     <use xlink:href="#ArialMT-74" x="183.447266"/>
     <use xlink:href="#ArialMT-72" x="211.230469"/>
     <use xlink:href="#ArialMT-61" x="244.53125"/>
     <use xlink:href="#ArialMT-6c" x="300.146484"/>
     <use xlink:href="#ArialMT-20" x="322.363281"/>
     <use xlink:href="#ArialMT-4c" x="350.146484"/>
     <use xlink:href="#ArialMT-69" x="405.761719"/>
     <use xlink:href="#ArialMT-71" x="427.978516"/>
     <use xlink:href="#ArialMT-75" x="483.59375"/>
     <use xlink:href="#ArialMT-69" x="539.208984"/>
     <use xlink:href="#ArialMT-64" x="561.425781"/>
     <use xlink:href="#ArialMT-69" x="617.041016"/>
     <use xlink:href="#ArialMT-74" x="639.257812"/>
     <use xlink:href="#ArialMT-79" x="667.041016"/>
     <use xlink:href="#ArialMT-3a" x="717.041016"/>
     <use xlink:href="#ArialMT-20" x="744.824219"/>
     <use xlink:href="#ArialMT-33" x="772.607422"/>
     <use xlink:href="#ArialMT-33" x="828.222656"/>
     <use xlink:href="#ArialMT-2c" x="883.837891"/>
     <use xlink:href="#ArialMT-35" x="911.621094"/>
     <use xlink:href="#ArialMT-39" x="967.236328"/>
     <use xlink:href="#ArialMT-37" x="1022.851562"/>
     <use xlink:href="#ArialMT-2c" x="1078.466797"/>
     <use xlink:href="#ArialMT-32" x="1106.25"/>
     <use xlink:href="#ArialMT-32" x="1161.865234"/>
     <use xlink:href="#ArialMT-39" x="1217.480469"/>
     <use xlink:href="#ArialMT-2e" x="1273.095703"/>
     <use xlink:href="#ArialMT-30" x="1300.878906"/>
     <use xlink:href="#ArialMT-34" x="1356.494141"/>
    </g>
   </g>
   <g id="text_26">
    <g id="patch_13">
     <path d="M 816.092265 143.361036 
L 972.64289 143.361036 
Q 977.04289 143.361036 977.04289 138.961036 
L 977.04289 128.638224 
Q 977.04289 124.238224 972.64289 124.238224 
L 816.092265 124.238224 
Q 811.692265 124.238224 811.692265 128.638224 
L 811.692265 138.961036 
Q 811.692265 143.361036 816.092265 143.361036 
z
" style="fill: #ffffff; opacity: 0.9; stroke: #ff0000; stroke-linejoin: miter"/>
    </g>
    <!-- Bearish Supply: 163,180,576.12 -->
    <g style="fill: #262626" transform="translate(816.092265 136.64588) scale(0.11 -0.11)">
     <use xlink:href="#ArialMT-42"/>
     <use xlink:href="#ArialMT-65" x="66.699219"/>
     <use xlink:href="#ArialMT-61" x="122.314453"/>
     <use xlink:href="#ArialMT-72" x="177.929688"/>
     <use xlink:href="#ArialMT-69" x="211.230469"/>
     <use xlink:href="#ArialMT-73" x="233.447266"/>
     <use xlink:href="#ArialMT-68" x="283.447266"/>
     <use xlink:href="#ArialMT-20" x="339.0625"/>
     <use xlink:href="#ArialMT-53" x="366.845703"/>
     <use xlink:href="#ArialMT-75" x="433.544922"/>
     <use xlink:href="#ArialMT-70" x="489.160156"/>
     <use xlink:href="#ArialMT-70" x="544.775391"/>
     <use xlink:href="#ArialMT-6c" x="600.390625"/>
     <use xlink:href="#ArialMT-79" x="622.607422"/>
     <use xlink:href="#ArialMT-3a" x="672.607422"/>
     <use xlink:href="#ArialMT-20" x="700.390625"/>
     <use xlink:href="#ArialMT-31" x="728.173828"/>
     <use xlink:href="#ArialMT-36" x="783.789062"/>
     <use xlink:href="#ArialMT-33" x="839.404297"/>
     <use xlink:href="#ArialMT-2c" x="895.019531"/>
     <use xlink:href="#ArialMT-31" x="922.802734"/>
     <use xlink:href="#ArialMT-38" x="978.417969"/>
     <use xlink:href="#ArialMT-30" x="1034.033203"/>
     <use xlink:href="#ArialMT-2c" x="1089.648438"/>
     <use xlink:href="#ArialMT-35" x="1117.431641"/>
     <use xlink:href="#ArialMT-37" x="1173.046875"/>
     <use xlink:href="#ArialMT-36" x="1228.662109"/>
     <use xlink:href="#ArialMT-2e" x="1284.277344"/>
     <use xlink:href="#ArialMT-31" x="1312.060547"/>
     <use xlink:href="#ArialMT-32" x="1367.675781"/>
    </g>
   </g>
   <g id="text_27">
    <g id="patch_14">
     <path d="M 1071.092265 221.963323 
L 1228.851171 221.963323 
Q 1233.251171 221.963323 1233.251171 217.563323 
L 1233.251171 207.503479 
Q 1233.251171 203.103479 1228.851171 203.103479 
L 1071.092265 203.103479 
Q 1066.692265 203.103479 1066.692265 207.503479 
L 1066.692265 217.563323 
Q 1066.692265 221.963323 1071.092265 221.963323 
z
" style="fill: #ffffff; opacity: 0.9; stroke: #ff0000; stroke-linejoin: miter"/>
    </g>
    <!-- Bearish Borrow: 132,927,358.47 -->
    <g style="fill: #262626" transform="translate(1071.092265 215.377073) scale(0.11 -0.11)">
     <use xlink:href="#ArialMT-42"/>
     <use xlink:href="#ArialMT-65" x="66.699219"/>
     <use xlink:href="#ArialMT-61" x="122.314453"/>
     <use xlink:href="#ArialMT-72" x="177.929688"/>
     <use xlink:href="#ArialMT-69" x="211.230469"/>
     <use xlink:href="#ArialMT-73" x="233.447266"/>
     <use xlink:href="#ArialMT-68" x="283.447266"/>
     <use xlink:href="#ArialMT-20" x="339.0625"/>
     <use xlink:href="#ArialMT-42" x="366.845703"/>
     <use xlink:href="#ArialMT-6f" x="433.544922"/>
     <use xlink:href="#ArialMT-72" x="489.160156"/>
     <use xlink:href="#ArialMT-72" x="522.460938"/>
     <use xlink:href="#ArialMT-6f" x="555.761719"/>
     <use xlink:href="#ArialMT-77" x="611.376953"/>
     <use xlink:href="#ArialMT-3a" x="683.59375"/>
     <use xlink:href="#ArialMT-20" x="711.376953"/>
     <use xlink:href="#ArialMT-31" x="739.160156"/>
     <use xlink:href="#ArialMT-33" x="794.775391"/>
     <use xlink:href="#ArialMT-32" x="850.390625"/>
     <use xlink:href="#ArialMT-2c" x="906.005859"/>
     <use xlink:href="#ArialMT-39" x="933.789062"/>
     <use xlink:href="#ArialMT-32" x="989.404297"/>
     <use xlink:href="#ArialMT-37" x="1045.019531"/>
     <use xlink:href="#ArialMT-2c" x="1100.634766"/>
     <use xlink:href="#ArialMT-33" x="1128.417969"/>
     <use xlink:href="#ArialMT-35" x="1184.033203"/>
     <use xlink:href="#ArialMT-38" x="1239.648438"/>
     <use xlink:href="#ArialMT-2e" x="1295.263672"/>
     <use xlink:href="#ArialMT-34" x="1323.046875"/>
     <use xlink:href="#ArialMT-37" x="1378.662109"/>
    </g>
   </g>
   <g id="text_28">
    <g id="patch_15">
     <path d="M 1071.092265 381.41565 
L 1228.249609 381.41565 
Q 1232.649609 381.41565 1232.649609 377.01565 
L 1232.649609 366.794244 
Q 1232.649609 362.394244 1228.249609 362.394244 
L 1071.092265 362.394244 
Q 1066.692265 362.394244 1066.692265 366.794244 
L 1066.692265 377.01565 
Q 1066.692265 381.41565 1071.092265 381.41565 
z
" style="fill: #ffffff; opacity: 0.9; stroke: #ff0000; stroke-linejoin: miter"/>
    </g>
    <!-- Bearish Liquidity: 30,253,217.65 -->
    <g style="fill: #262626" transform="translate(1071.092265 374.700494) scale(0.11 -0.11)">
     <use xlink:href="#ArialMT-42"/>
     <use xlink:href="#ArialMT-65" x="66.699219"/>
     <use xlink:href="#ArialMT-61" x="122.314453"/>
     <use xlink:href="#ArialMT-72" x="177.929688"/>
     <use xlink:href="#ArialMT-69" x="211.230469"/>
     <use xlink:href="#ArialMT-73" x="233.447266"/>
     <use xlink:href="#ArialMT-68" x="283.447266"/>
     <use xlink:href="#ArialMT-20" x="339.0625"/>
     <use xlink:href="#ArialMT-4c" x="366.845703"/>
     <use xlink:href="#ArialMT-69" x="422.460938"/>
     <use xlink:href="#ArialMT-71" x="444.677734"/>
     <use xlink:href="#ArialMT-75" x="500.292969"/>
     <use xlink:href="#ArialMT-69" x="555.908203"/>
     <use xlink:href="#ArialMT-64" x="578.125"/>
     <use xlink:href="#ArialMT-69" x="633.740234"/>
     <use xlink:href="#ArialMT-74" x="655.957031"/>
     <use xlink:href="#ArialMT-79" x="683.740234"/>
     <use xlink:href="#ArialMT-3a" x="733.740234"/>
     <use xlink:href="#ArialMT-20" x="761.523438"/>
     <use xlink:href="#ArialMT-33" x="789.306641"/>
     <use xlink:href="#ArialMT-30" x="844.921875"/>
     <use xlink:href="#ArialMT-2c" x="900.537109"/>
     <use xlink:href="#ArialMT-32" x="928.320312"/>
     <use xlink:href="#ArialMT-35" x="983.935547"/>
     <use xlink:href="#ArialMT-33" x="1039.550781"/>
     <use xlink:href="#ArialMT-2c" x="1095.166016"/>
     <use xlink:href="#ArialMT-32" x="1122.949219"/>
     <use xlink:href="#ArialMT-31" x="1178.564453"/>
     <use xlink:href="#ArialMT-37" x="1234.179688"/>
     <use xlink:href="#ArialMT-2e" x="1289.794922"/>
     <use xlink:href="#ArialMT-36" x="1317.578125"/>
     <use xlink:href="#ArialMT-35" x="1373.193359"/>
    </g>
   </g>
   <g id="text_29">
    <!-- cbBTC/USDC Market Growth Scenarios: Bullish, Neutral, and Bearish -->
    <g style="fill: #262626" transform="translate(297.965398 20.084062) scale(0.18 -0.18)">
     <defs>
      <path id="ArialMT-63" d="M 2588 1216 
L 3141 1144 
Q 3050 572 2676 248 
Q 2303 -75 1759 -75 
Q 1078 -75 664 370 
Q 250 816 250 1647 
Q 250 2184 428 2587 
Q 606 2991 970 3192 
Q 1334 3394 1763 3394 
Q 2303 3394 2647 3120 
Q 2991 2847 3088 2344 
L 2541 2259 
Q 2463 2594 2264 2762 
Q 2066 2931 1784 2931 
Q 1359 2931 1093 2626 
Q 828 2322 828 1663 
Q 828 994 1084 691 
Q 1341 388 1753 388 
Q 2084 388 2306 591 
Q 2528 794 2588 1216 
z
" transform="scale(0.015625)"/>
      <path id="ArialMT-62" d="M 941 0 
L 419 0 
L 419 4581 
L 981 4581 
L 981 2947 
Q 1338 3394 1891 3394 
Q 2197 3394 2470 3270 
Q 2744 3147 2920 2923 
Q 3097 2700 3197 2384 
Q 3297 2069 3297 1709 
Q 3297 856 2875 390 
Q 2453 -75 1863 -75 
Q 1275 -75 941 416 
L 941 0 
z
M 934 1684 
Q 934 1088 1097 822 
Q 1363 388 1816 388 
Q 2184 388 2453 708 
Q 2722 1028 2722 1663 
Q 2722 2313 2464 2622 
Q 2206 2931 1841 2931 
Q 1472 2931 1203 2611 
Q 934 2291 934 1684 
z
" transform="scale(0.015625)"/>
      <path id="ArialMT-54" d="M 1659 0 
L 1659 4041 
L 150 4041 
L 150 4581 
L 3781 4581 
L 3781 4041 
L 2266 4041 
L 2266 0 
L 1659 0 
z
" transform="scale(0.015625)"/>
      <path id="ArialMT-2f" d="M 0 -78 
L 1328 4659 
L 1778 4659 
L 453 -78 
L 0 -78 
z
" transform="scale(0.015625)"/>
      <path id="ArialMT-4d" d="M 475 0 
L 475 4581 
L 1388 4581 
L 2472 1338 
Q 2622 884 2691 659 
Q 2769 909 2934 1394 
L 4031 4581 
L 4847 4581 
L 4847 0 
L 4263 0 
L 4263 3834 
L 2931 0 
L 2384 0 
L 1059 3900 
L 1059 0 
L 475 0 
z
" transform="scale(0.015625)"/>
      <path id="ArialMT-6b" d="M 425 0 
L 425 4581 
L 988 4581 
L 988 1969 
L 2319 3319 
L 3047 3319 
L 1778 2088 
L 3175 0 
L 2481 0 
L 1384 1697 
L 988 1316 
L 988 0 
L 425 0 
z
" transform="scale(0.015625)"/>
      <path id="ArialMT-47" d="M 2638 1797 
L 2638 2334 
L 4578 2338 
L 4578 638 
Q 4131 281 3656 101 
Q 3181 -78 2681 -78 
Q 2006 -78 1454 211 
Q 903 500 622 1047 
Q 341 1594 341 2269 
Q 341 2938 620 3517 
Q 900 4097 1425 4378 
Q 1950 4659 2634 4659 
Q 3131 4659 3532 4498 
Q 3934 4338 4162 4050 
Q 4391 3763 4509 3300 
L 3963 3150 
Q 3859 3500 3706 3700 
Q 3553 3900 3268 4020 
Q 2984 4141 2638 4141 
Q 2222 4141 1919 4014 
Q 1616 3888 1430 3681 
Q 1244 3475 1141 3228 
Q 966 2803 966 2306 
Q 966 1694 1177 1281 
Q 1388 869 1791 669 
Q 2194 469 2647 469 
Q 3041 469 3416 620 
Q 3791 772 3984 944 
L 3984 1797 
L 2638 1797 
z
" transform="scale(0.015625)"/>
     </defs>
     <use xlink:href="#ArialMT-63"/>
     <use xlink:href="#ArialMT-62" x="50"/>
     <use xlink:href="#ArialMT-42" x="105.615234"/>
     <use xlink:href="#ArialMT-54" x="172.314453"/>
     <use xlink:href="#ArialMT-43" x="233.398438"/>
     <use xlink:href="#ArialMT-2f" x="305.615234"/>
     <use xlink:href="#ArialMT-55" x="333.398438"/>
     <use xlink:href="#ArialMT-53" x="405.615234"/>
     <use xlink:href="#ArialMT-44" x="472.314453"/>
     <use xlink:href="#ArialMT-43" x="544.53125"/>
     <use xlink:href="#ArialMT-20" x="616.748047"/>
     <use xlink:href="#ArialMT-4d" x="644.53125"/>
     <use xlink:href="#ArialMT-61" x="727.832031"/>
     <use xlink:href="#ArialMT-72" x="783.447266"/>
     <use xlink:href="#ArialMT-6b" x="816.748047"/>
     <use xlink:href="#ArialMT-65" x="866.748047"/>
     <use xlink:href="#ArialMT-74" x="922.363281"/>
     <use xlink:href="#ArialMT-20" x="950.146484"/>
     <use xlink:href="#ArialMT-47" x="977.929688"/>
     <use xlink:href="#ArialMT-72" x="1055.712891"/>
     <use xlink:href="#ArialMT-6f" x="1089.013672"/>
     <use xlink:href="#ArialMT-77" x="1144.628906"/>
     <use xlink:href="#ArialMT-74" x="1216.845703"/>
     <use xlink:href="#ArialMT-68" x="1244.628906"/>
     <use xlink:href="#ArialMT-20" x="1300.244141"/>
     <use xlink:href="#ArialMT-53" x="1328.027344"/>
     <use xlink:href="#ArialMT-63" x="1394.726562"/>
     <use xlink:href="#ArialMT-65" x="1444.726562"/>
     <use xlink:href="#ArialMT-6e" x="1500.341797"/>
     <use xlink:href="#ArialMT-61" x="1555.957031"/>
     <use xlink:href="#ArialMT-72" x="1611.572266"/>
     <use xlink:href="#ArialMT-69" x="1644.873047"/>
     <use xlink:href="#ArialMT-6f" x="1667.089844"/>
     <use xlink:href="#ArialMT-73" x="1722.705078"/>
     <use xlink:href="#ArialMT-3a" x="1772.705078"/>
     <use xlink:href="#ArialMT-20" x="1800.488281"/>
     <use xlink:href="#ArialMT-42" x="1828.271484"/>
     <use xlink:href="#ArialMT-75" x="1894.970703"/>
     <use xlink:href="#ArialMT-6c" x="1950.585938"/>
     <use xlink:href="#ArialMT-6c" x="1972.802734"/>
     <use xlink:href="#ArialMT-69" x="1995.019531"/>
     <use xlink:href="#ArialMT-73" x="2017.236328"/>
     <use xlink:href="#ArialMT-68" x="2067.236328"/>
     <use xlink:href="#ArialMT-2c" x="2122.851562"/>
     <use xlink:href="#ArialMT-20" x="2150.634766"/>
     <use xlink:href="#ArialMT-4e" x="2178.417969"/>
     <use xlink:href="#ArialMT-65" x="2250.634766"/>
     <use xlink:href="#ArialMT-75" x="2306.25"/>
     <use xlink:href="#ArialMT-74" x="2361.865234"/>
     <use xlink:href="#ArialMT-72" x="2389.648438"/>
     <use xlink:href="#ArialMT-61" x="2422.949219"/>
     <use xlink:href="#ArialMT-6c" x="2478.564453"/>
     <use xlink:href="#ArialMT-2c" x="2500.78125"/>
     <use xlink:href="#ArialMT-20" x="2528.564453"/>
     <use xlink:href="#ArialMT-61" x="2556.347656"/>
     <use xlink:href="#ArialMT-6e" x="2611.962891"/>
     <use xlink:href="#ArialMT-64" x="2667.578125"/>
     <use xlink:href="#ArialMT-20" x="2723.193359"/>
     <use xlink:href="#ArialMT-42" x="2750.976562"/>
     <use xlink:href="#ArialMT-65" x="2817.675781"/>
     <use xlink:href="#ArialMT-61" x="2873.291016"/>
     <use xlink:href="#ArialMT-72" x="2928.90625"/>
     <use xlink:href="#ArialMT-69" x="2962.207031"/>
     <use xlink:href="#ArialMT-73" x="2984.423828"/>
     <use xlink:href="#ArialMT-68" x="3034.423828"/>
    </g>
   </g>
   <g id="legend_1">
    <g id="patch_16">
     <path d="M 56.418125 86.607188 
L 135.50375 86.607188 
Q 137.90375 86.607188 137.90375 84.207188 
L 137.90375 34.484063 
Q 137.90375 32.084063 135.50375 32.084063 
L 56.418125 32.084063 
Q 54.018125 32.084063 54.018125 34.484063 
L 54.018125 84.207188 
Q 54.018125 86.607188 56.418125 86.607188 
z
" style="fill: #ffffff; opacity: 0.8; stroke: #cccccc; stroke-linejoin: miter"/>
    </g>
    <g id="line2d_30">
     <path d="M 58.818125 41.273438 
L 70.818125 41.273438 
L 82.818125 41.273438 
" style="fill: none; stroke-dasharray: 9.25,4; stroke-dashoffset: 0; stroke: #008000; stroke-width: 2.5"/>
     <g>
      <use xlink:href="#m575bee8bac" x="70.818125" y="41.273438" style="fill: #008000; stroke: #008000"/>
     </g>
    </g>
    <g id="text_30">
     <!-- Bullish -->
     <g style="fill: #262626" transform="translate(92.418125 45.473438) scale(0.12 -0.12)">
      <use xlink:href="#ArialMT-42"/>
      <use xlink:href="#ArialMT-75" x="66.699219"/>
      <use xlink:href="#ArialMT-6c" x="122.314453"/>
      <use xlink:href="#ArialMT-6c" x="144.53125"/>
      <use xlink:href="#ArialMT-69" x="166.748047"/>
      <use xlink:href="#ArialMT-73" x="188.964844"/>
      <use xlink:href="#ArialMT-68" x="238.964844"/>
     </g>
    </g>
    <g id="line2d_31">
     <path d="M 58.818125 58.247813 
L 70.818125 58.247813 
L 82.818125 58.247813 
" style="fill: none; stroke-dasharray: 9.25,4; stroke-dashoffset: 0; stroke: #bfbf00; stroke-width: 2.5"/>
     <g>
      <use xlink:href="#md2a5d7feac" x="70.818125" y="58.247813" style="fill: #bfbf00; stroke: #bfbf00; stroke-linejoin: miter"/>
     </g>
    </g>
    <g id="text_31">
     <!-- Neutral -->
     <g style="fill: #262626" transform="translate(92.418125 62.447813) scale(0.12 -0.12)">
      <use xlink:href="#ArialMT-4e"/>
      <use xlink:href="#ArialMT-65" x="72.216797"/>
      <use xlink:href="#ArialMT-75" x="127.832031"/>
      <use xlink:href="#ArialMT-74" x="183.447266"/>
      <use xlink:href="#ArialMT-72" x="211.230469"/>
      <use xlink:href="#ArialMT-61" x="244.53125"/>
      <use xlink:href="#ArialMT-6c" x="300.146484"/>
     </g>
    </g>
    <g id="line2d_32">
     <path d="M 58.818125 75.222188 
L 70.818125 75.222188 
L 82.818125 75.222188 
" style="fill: none; stroke-dasharray: 9.25,4; stroke-dashoffset: 0; stroke: #ff0000; stroke-width: 2.5"/>
     <g>
      <use xlink:href="#md2baf8c916" x="70.818125" y="75.222188" style="fill: #ff0000; stroke: #ff0000; stroke-linejoin: miter"/>
     </g>
    </g>
    <g id="text_32">
     <!-- Bearish -->
     <g style="fill: #262626" transform="translate(92.418125 79.422188) scale(0.12 -0.12)">
      <use xlink:href="#ArialMT-42"/>
      <use xlink:href="#ArialMT-65" x="66.699219"/>
      <use xlink:href="#ArialMT-61" x="122.314453"/>
      <use xlink:href="#ArialMT-72" x="177.929688"/>
      <use xlink:href="#ArialMT-69" x="211.230469"/>
      <use xlink:href="#ArialMT-73" x="233.447266"/>
      <use xlink:href="#ArialMT-68" x="283.447266"/>
     </g>
    </g>
   </g>
  </g>
  <g id="text_33">
   <g id="patch_17">
    <path d="M 535.867969 662.111562 
L 702.644531 662.111562 
L 702.644531 642.96625 
L 535.867969 642.96625 
z
" style="fill: #ffffff; opacity: 0.7; stroke: #ffffff; stroke-linejoin: miter"/>
   </g>
   <!-- Generated on 2025-03-18 16:12:26 -->
   <g style="fill: #262626" transform="translate(540.867969 655.124062) scale(0.1 -0.1)">
    <use xlink:href="#ArialMT-47"/>
    <use xlink:href="#ArialMT-65" x="77.783203"/>
    <use xlink:href="#ArialMT-6e" x="133.398438"/>
    <use xlink:href="#ArialMT-65" x="189.013672"/>
    <use xlink:href="#ArialMT-72" x="244.628906"/>
    <use xlink:href="#ArialMT-61" x="277.929688"/>
    <use xlink:href="#ArialMT-74" x="333.544922"/>
    <use xlink:href="#ArialMT-65" x="361.328125"/>
    <use xlink:href="#ArialMT-64" x="416.943359"/>
    <use xlink:href="#ArialMT-20" x="472.558594"/>
    <use xlink:href="#ArialMT-6f" x="500.341797"/>
    <use xlink:href="#ArialMT-6e" x="555.957031"/>
    <use xlink:href="#ArialMT-20" x="611.572266"/>
    <use xlink:href="#ArialMT-32" x="639.355469"/>
    <use xlink:href="#ArialMT-30" x="694.970703"/>
    <use xlink:href="#ArialMT-32" x="750.585938"/>
    <use xlink:href="#ArialMT-35" x="806.201172"/>
    <use xlink:href="#ArialMT-2d" x="861.816406"/>
    <use xlink:href="#ArialMT-30" x="895.117188"/>
    <use xlink:href="#ArialMT-33" x="950.732422"/>
    <use xlink:href="#ArialMT-2d" x="1006.347656"/>
    <use xlink:href="#ArialMT-31" x="1039.648438"/>
    <use xlink:href="#ArialMT-38" x="1095.263672"/>
    <use xlink:href="#ArialMT-20" x="1150.878906"/>
    <use xlink:href="#ArialMT-31" x="1178.662109"/>
    <use xlink:href="#ArialMT-36" x="1234.277344"/>
    <use xlink:href="#ArialMT-3a" x="1289.892578"/>
    <use xlink:href="#ArialMT-31" x="1317.675781"/>
    <use xlink:href="#ArialMT-32" x="1373.291016"/>
    <use xlink:href="#ArialMT-3a" x="1428.90625"/>
    <use xlink:href="#ArialMT-32" x="1456.689453"/>
    <use xlink:href="#ArialMT-36" x="1512.304688"/>
   </g>
  </g>
 </g>
 <defs>
  <clipPath id="p5b30e62bb6">
   <rect x="48.018125" y="26.084062" width="1056.07767" height="510.554654"/>
  </clipPath>
 </defs>
</svg>
