<?xml version="1.0" encoding="utf-8" standalone="no"?>
<!DOCTYPE svg PUBLIC "-//W3C//DTD SVG 1.1//EN"
  "http://www.w3.org/Graphics/SVG/1.1/DTD/svg11.dtd">
<svg xmlns:xlink="http://www.w3.org/1999/xlink" width="1093.419747pt" height="527.895pt" viewBox="0 0 1093.419747 527.895" xmlns="http://www.w3.org/2000/svg" version="1.1">
 <metadata>
  <rdf:RDF xmlns:dc="http://purl.org/dc/elements/1.1/" xmlns:cc="http://creativecommons.org/ns#" xmlns:rdf="http://www.w3.org/1999/02/22-rdf-syntax-ns#">
   <cc:Work>
    <dc:type rdf:resource="http://purl.org/dc/dcmitype/StillImage"/>
    <dc:date>2025-03-18T14:41:20.767051</dc:date>
    <dc:format>image/svg+xml</dc:format>
    <dc:creator>
     <cc:Agent>
      <dc:title>Matplotlib v3.8.2, https://matplotlib.org/</dc:title>
     </cc:Agent>
    </dc:creator>
   </cc:Work>
  </rdf:RDF>
 </metadata>
 <defs>
  <style type="text/css">*{stroke-linejoin: round; stroke-linecap: butt}</style>
 </defs>
 <g id="figure_1">
  <g id="patch_1">
   <path d="M 0 527.895 
L 1093.419747 527.895 
L 1093.419747 0 
L 0 0 
z
" style="fill: #ffffff"/>
  </g>
  <g id="axes_1">
   <g id="patch_2">
    <path d="M 46.14125 403.462154 
L 951.266818 403.462154 
L 951.266818 24.8475 
L 46.14125 24.8475 
z
" style="fill: #ffffff"/>
   </g>
   <g id="matplotlib.axis_1">
    <g id="xtick_1">
     <g id="line2d_1">
      <path d="M 82.142744 403.462154 
L 82.142744 24.8475 
" clip-path="url(#p70c50644e9)" style="fill: none; stroke: #cccccc; stroke-width: 0.8; stroke-linecap: round"/>
     </g>
     <g id="text_1">
      <!-- 2024-09-01 -->
      <g style="fill: #262626" transform="translate(37.056732 459.935322) rotate(-45) scale(0.12 -0.12)">
       <defs>
        <path id="ArialMT-32" d="M 3222 541 
L 3222 0 
L 194 0 
Q 188 203 259 391 
Q 375 700 629 1000 
Q 884 1300 1366 1694 
Q 2113 2306 2375 2664 
Q 2638 3022 2638 3341 
Q 2638 3675 2398 3904 
Q 2159 4134 1775 4134 
Q 1369 4134 1125 3890 
Q 881 3647 878 3216 
L 300 3275 
Q 359 3922 746 4261 
Q 1134 4600 1788 4600 
Q 2447 4600 2831 4234 
Q 3216 3869 3216 3328 
Q 3216 3053 3103 2787 
Q 2991 2522 2730 2228 
Q 2469 1934 1863 1422 
Q 1356 997 1212 845 
Q 1069 694 975 541 
L 3222 541 
z
" transform="scale(0.015625)"/>
        <path id="ArialMT-30" d="M 266 2259 
Q 266 3072 433 3567 
Q 600 4063 929 4331 
Q 1259 4600 1759 4600 
Q 2128 4600 2406 4451 
Q 2684 4303 2865 4023 
Q 3047 3744 3150 3342 
Q 3253 2941 3253 2259 
Q 3253 1453 3087 958 
Q 2922 463 2592 192 
Q 2263 -78 1759 -78 
Q 1097 -78 719 397 
Q 266 969 266 2259 
z
M 844 2259 
Q 844 1131 1108 757 
Q 1372 384 1759 384 
Q 2147 384 2411 759 
Q 2675 1134 2675 2259 
Q 2675 3391 2411 3762 
Q 2147 4134 1753 4134 
Q 1366 4134 1134 3806 
Q 844 3388 844 2259 
z
" transform="scale(0.015625)"/>
        <path id="ArialMT-34" d="M 2069 0 
L 2069 1097 
L 81 1097 
L 81 1613 
L 2172 4581 
L 2631 4581 
L 2631 1613 
L 3250 1613 
L 3250 1097 
L 2631 1097 
L 2631 0 
L 2069 0 
z
M 2069 1613 
L 2069 3678 
L 634 1613 
L 2069 1613 
z
" transform="scale(0.015625)"/>
        <path id="ArialMT-2d" d="M 203 1375 
L 203 1941 
L 1931 1941 
L 1931 1375 
L 203 1375 
z
" transform="scale(0.015625)"/>
        <path id="ArialMT-39" d="M 350 1059 
L 891 1109 
Q 959 728 1153 556 
Q 1347 384 1650 384 
Q 1909 384 2104 503 
Q 2300 622 2425 820 
Q 2550 1019 2634 1356 
Q 2719 1694 2719 2044 
Q 2719 2081 2716 2156 
Q 2547 1888 2255 1720 
Q 1963 1553 1622 1553 
Q 1053 1553 659 1965 
Q 266 2378 266 3053 
Q 266 3750 677 4175 
Q 1088 4600 1706 4600 
Q 2153 4600 2523 4359 
Q 2894 4119 3086 3673 
Q 3278 3228 3278 2384 
Q 3278 1506 3087 986 
Q 2897 466 2520 194 
Q 2144 -78 1638 -78 
Q 1100 -78 759 220 
Q 419 519 350 1059 
z
M 2653 3081 
Q 2653 3566 2395 3850 
Q 2138 4134 1775 4134 
Q 1400 4134 1122 3828 
Q 844 3522 844 3034 
Q 844 2597 1108 2323 
Q 1372 2050 1759 2050 
Q 2150 2050 2401 2323 
Q 2653 2597 2653 3081 
z
" transform="scale(0.015625)"/>
        <path id="ArialMT-31" d="M 2384 0 
L 1822 0 
L 1822 3584 
Q 1619 3391 1289 3197 
Q 959 3003 697 2906 
L 697 3450 
Q 1169 3672 1522 3987 
Q 1875 4303 2022 4600 
L 2384 4600 
L 2384 0 
z
" transform="scale(0.015625)"/>
       </defs>
       <use xlink:href="#ArialMT-32"/>
       <use xlink:href="#ArialMT-30" x="55.615234"/>
       <use xlink:href="#ArialMT-32" x="111.230469"/>
       <use xlink:href="#ArialMT-34" x="166.845703"/>
       <use xlink:href="#ArialMT-2d" x="222.460938"/>
       <use xlink:href="#ArialMT-30" x="255.761719"/>
       <use xlink:href="#ArialMT-39" x="311.376953"/>
       <use xlink:href="#ArialMT-2d" x="366.992188"/>
       <use xlink:href="#ArialMT-30" x="400.292969"/>
       <use xlink:href="#ArialMT-31" x="455.908203"/>
      </g>
     </g>
    </g>
    <g id="xtick_2">
     <g id="line2d_2">
      <path d="M 171.940854 403.462154 
L 171.940854 24.8475 
" clip-path="url(#p70c50644e9)" style="fill: none; stroke: #cccccc; stroke-width: 0.8; stroke-linecap: round"/>
     </g>
     <g id="text_2">
      <!-- 2024-11-01 -->
      <g style="fill: #262626" transform="translate(127.480631 459.309533) rotate(-45) scale(0.12 -0.12)">
       <use xlink:href="#ArialMT-32"/>
       <use xlink:href="#ArialMT-30" x="55.615234"/>
       <use xlink:href="#ArialMT-32" x="111.230469"/>
       <use xlink:href="#ArialMT-34" x="166.845703"/>
       <use xlink:href="#ArialMT-2d" x="222.460938"/>
       <use xlink:href="#ArialMT-31" x="255.761719"/>
       <use xlink:href="#ArialMT-31" x="304.001953"/>
       <use xlink:href="#ArialMT-2d" x="359.617188"/>
       <use xlink:href="#ArialMT-30" x="392.917969"/>
       <use xlink:href="#ArialMT-31" x="448.533203"/>
      </g>
     </g>
    </g>
    <g id="xtick_3">
     <g id="line2d_3">
      <path d="M 261.738964 403.462154 
L 261.738964 24.8475 
" clip-path="url(#p70c50644e9)" style="fill: none; stroke: #cccccc; stroke-width: 0.8; stroke-linecap: round"/>
     </g>
     <g id="text_3">
      <!-- 2025-01-01 -->
      <g style="fill: #262626" transform="translate(216.652951 459.935322) rotate(-45) scale(0.12 -0.12)">
       <defs>
        <path id="ArialMT-35" d="M 266 1200 
L 856 1250 
Q 922 819 1161 601 
Q 1400 384 1738 384 
Q 2144 384 2425 690 
Q 2706 997 2706 1503 
Q 2706 1984 2436 2262 
Q 2166 2541 1728 2541 
Q 1456 2541 1237 2417 
Q 1019 2294 894 2097 
L 366 2166 
L 809 4519 
L 3088 4519 
L 3088 3981 
L 1259 3981 
L 1013 2750 
Q 1425 3038 1878 3038 
Q 2478 3038 2890 2622 
Q 3303 2206 3303 1553 
Q 3303 931 2941 478 
Q 2500 -78 1738 -78 
Q 1113 -78 717 272 
Q 322 622 266 1200 
z
" transform="scale(0.015625)"/>
       </defs>
       <use xlink:href="#ArialMT-32"/>
       <use xlink:href="#ArialMT-30" x="55.615234"/>
       <use xlink:href="#ArialMT-32" x="111.230469"/>
       <use xlink:href="#ArialMT-35" x="166.845703"/>
       <use xlink:href="#ArialMT-2d" x="222.460938"/>
       <use xlink:href="#ArialMT-30" x="255.761719"/>
       <use xlink:href="#ArialMT-31" x="311.376953"/>
       <use xlink:href="#ArialMT-2d" x="366.992188"/>
       <use xlink:href="#ArialMT-30" x="400.292969"/>
       <use xlink:href="#ArialMT-31" x="455.908203"/>
      </g>
     </g>
    </g>
    <g id="xtick_4">
     <g id="line2d_4">
      <path d="M 348.592873 403.462154 
L 348.592873 24.8475 
" clip-path="url(#p70c50644e9)" style="fill: none; stroke: #cccccc; stroke-width: 0.8; stroke-linecap: round"/>
     </g>
     <g id="text_4">
      <!-- 2025-03-01 -->
      <g style="fill: #262626" transform="translate(303.506861 459.935322) rotate(-45) scale(0.12 -0.12)">
       <defs>
        <path id="ArialMT-33" d="M 269 1209 
L 831 1284 
Q 928 806 1161 595 
Q 1394 384 1728 384 
Q 2125 384 2398 659 
Q 2672 934 2672 1341 
Q 2672 1728 2419 1979 
Q 2166 2231 1775 2231 
Q 1616 2231 1378 2169 
L 1441 2663 
Q 1497 2656 1531 2656 
Q 1891 2656 2178 2843 
Q 2466 3031 2466 3422 
Q 2466 3731 2256 3934 
Q 2047 4138 1716 4138 
Q 1388 4138 1169 3931 
Q 950 3725 888 3313 
L 325 3413 
Q 428 3978 793 4289 
Q 1159 4600 1703 4600 
Q 2078 4600 2393 4439 
Q 2709 4278 2876 4000 
Q 3044 3722 3044 3409 
Q 3044 3113 2884 2869 
Q 2725 2625 2413 2481 
Q 2819 2388 3044 2092 
Q 3269 1797 3269 1353 
Q 3269 753 2831 336 
Q 2394 -81 1725 -81 
Q 1122 -81 723 278 
Q 325 638 269 1209 
z
" transform="scale(0.015625)"/>
       </defs>
       <use xlink:href="#ArialMT-32"/>
       <use xlink:href="#ArialMT-30" x="55.615234"/>
       <use xlink:href="#ArialMT-32" x="111.230469"/>
       <use xlink:href="#ArialMT-35" x="166.845703"/>
       <use xlink:href="#ArialMT-2d" x="222.460938"/>
       <use xlink:href="#ArialMT-30" x="255.761719"/>
       <use xlink:href="#ArialMT-33" x="311.376953"/>
       <use xlink:href="#ArialMT-2d" x="366.992188"/>
       <use xlink:href="#ArialMT-30" x="400.292969"/>
       <use xlink:href="#ArialMT-31" x="455.908203"/>
      </g>
     </g>
    </g>
    <g id="xtick_5">
     <g id="line2d_5">
      <path d="M 438.390983 403.462154 
L 438.390983 24.8475 
" clip-path="url(#p70c50644e9)" style="fill: none; stroke: #cccccc; stroke-width: 0.8; stroke-linecap: round"/>
     </g>
     <g id="text_5">
      <!-- 2025-05-01 -->
      <g style="fill: #262626" transform="translate(393.304971 459.935322) rotate(-45) scale(0.12 -0.12)">
       <use xlink:href="#ArialMT-32"/>
       <use xlink:href="#ArialMT-30" x="55.615234"/>
       <use xlink:href="#ArialMT-32" x="111.230469"/>
       <use xlink:href="#ArialMT-35" x="166.845703"/>
       <use xlink:href="#ArialMT-2d" x="222.460938"/>
       <use xlink:href="#ArialMT-30" x="255.761719"/>
       <use xlink:href="#ArialMT-35" x="311.376953"/>
       <use xlink:href="#ArialMT-2d" x="366.992188"/>
       <use xlink:href="#ArialMT-30" x="400.292969"/>
       <use xlink:href="#ArialMT-31" x="455.908203"/>
      </g>
     </g>
    </g>
    <g id="xtick_6">
     <g id="line2d_6">
      <path d="M 528.189093 403.462154 
L 528.189093 24.8475 
" clip-path="url(#p70c50644e9)" style="fill: none; stroke: #cccccc; stroke-width: 0.8; stroke-linecap: round"/>
     </g>
     <g id="text_6">
      <!-- 2025-07-01 -->
      <g style="fill: #262626" transform="translate(483.103081 459.935322) rotate(-45) scale(0.12 -0.12)">
       <defs>
        <path id="ArialMT-37" d="M 303 3981 
L 303 4522 
L 3269 4522 
L 3269 4084 
Q 2831 3619 2401 2847 
Q 1972 2075 1738 1259 
Q 1569 684 1522 0 
L 944 0 
Q 953 541 1156 1306 
Q 1359 2072 1739 2783 
Q 2119 3494 2547 3981 
L 303 3981 
z
" transform="scale(0.015625)"/>
       </defs>
       <use xlink:href="#ArialMT-32"/>
       <use xlink:href="#ArialMT-30" x="55.615234"/>
       <use xlink:href="#ArialMT-32" x="111.230469"/>
       <use xlink:href="#ArialMT-35" x="166.845703"/>
       <use xlink:href="#ArialMT-2d" x="222.460938"/>
       <use xlink:href="#ArialMT-30" x="255.761719"/>
       <use xlink:href="#ArialMT-37" x="311.376953"/>
       <use xlink:href="#ArialMT-2d" x="366.992188"/>
       <use xlink:href="#ArialMT-30" x="400.292969"/>
       <use xlink:href="#ArialMT-31" x="455.908203"/>
      </g>
     </g>
    </g>
    <g id="xtick_7">
     <g id="line2d_7">
      <path d="M 619.459303 403.462154 
L 619.459303 24.8475 
" clip-path="url(#p70c50644e9)" style="fill: none; stroke: #cccccc; stroke-width: 0.8; stroke-linecap: round"/>
     </g>
     <g id="text_7">
      <!-- 2025-09-01 -->
      <g style="fill: #262626" transform="translate(574.373291 459.935322) rotate(-45) scale(0.12 -0.12)">
       <use xlink:href="#ArialMT-32"/>
       <use xlink:href="#ArialMT-30" x="55.615234"/>
       <use xlink:href="#ArialMT-32" x="111.230469"/>
       <use xlink:href="#ArialMT-35" x="166.845703"/>
       <use xlink:href="#ArialMT-2d" x="222.460938"/>
       <use xlink:href="#ArialMT-30" x="255.761719"/>
       <use xlink:href="#ArialMT-39" x="311.376953"/>
       <use xlink:href="#ArialMT-2d" x="366.992188"/>
       <use xlink:href="#ArialMT-30" x="400.292969"/>
       <use xlink:href="#ArialMT-31" x="455.908203"/>
      </g>
     </g>
    </g>
    <g id="xtick_8">
     <g id="line2d_8">
      <path d="M 709.257413 403.462154 
L 709.257413 24.8475 
" clip-path="url(#p70c50644e9)" style="fill: none; stroke: #cccccc; stroke-width: 0.8; stroke-linecap: round"/>
     </g>
     <g id="text_8">
      <!-- 2025-11-01 -->
      <g style="fill: #262626" transform="translate(664.79719 459.309533) rotate(-45) scale(0.12 -0.12)">
       <use xlink:href="#ArialMT-32"/>
       <use xlink:href="#ArialMT-30" x="55.615234"/>
       <use xlink:href="#ArialMT-32" x="111.230469"/>
       <use xlink:href="#ArialMT-35" x="166.845703"/>
       <use xlink:href="#ArialMT-2d" x="222.460938"/>
       <use xlink:href="#ArialMT-31" x="255.761719"/>
       <use xlink:href="#ArialMT-31" x="304.001953"/>
       <use xlink:href="#ArialMT-2d" x="359.617188"/>
       <use xlink:href="#ArialMT-30" x="392.917969"/>
       <use xlink:href="#ArialMT-31" x="448.533203"/>
      </g>
     </g>
    </g>
    <g id="xtick_9">
     <g id="line2d_9">
      <path d="M 799.055522 403.462154 
L 799.055522 24.8475 
" clip-path="url(#p70c50644e9)" style="fill: none; stroke: #cccccc; stroke-width: 0.8; stroke-linecap: round"/>
     </g>
     <g id="text_9">
      <!-- 2026-01-01 -->
      <g style="fill: #262626" transform="translate(753.96951 459.935322) rotate(-45) scale(0.12 -0.12)">
       <defs>
        <path id="ArialMT-36" d="M 3184 3459 
L 2625 3416 
Q 2550 3747 2413 3897 
Q 2184 4138 1850 4138 
Q 1581 4138 1378 3988 
Q 1113 3794 959 3422 
Q 806 3050 800 2363 
Q 1003 2672 1297 2822 
Q 1591 2972 1913 2972 
Q 2475 2972 2870 2558 
Q 3266 2144 3266 1488 
Q 3266 1056 3080 686 
Q 2894 316 2569 119 
Q 2244 -78 1831 -78 
Q 1128 -78 684 439 
Q 241 956 241 2144 
Q 241 3472 731 4075 
Q 1159 4600 1884 4600 
Q 2425 4600 2770 4297 
Q 3116 3994 3184 3459 
z
M 888 1484 
Q 888 1194 1011 928 
Q 1134 663 1356 523 
Q 1578 384 1822 384 
Q 2178 384 2434 671 
Q 2691 959 2691 1453 
Q 2691 1928 2437 2201 
Q 2184 2475 1800 2475 
Q 1419 2475 1153 2201 
Q 888 1928 888 1484 
z
" transform="scale(0.015625)"/>
       </defs>
       <use xlink:href="#ArialMT-32"/>
       <use xlink:href="#ArialMT-30" x="55.615234"/>
       <use xlink:href="#ArialMT-32" x="111.230469"/>
       <use xlink:href="#ArialMT-36" x="166.845703"/>
       <use xlink:href="#ArialMT-2d" x="222.460938"/>
       <use xlink:href="#ArialMT-30" x="255.761719"/>
       <use xlink:href="#ArialMT-31" x="311.376953"/>
       <use xlink:href="#ArialMT-2d" x="366.992188"/>
       <use xlink:href="#ArialMT-30" x="400.292969"/>
       <use xlink:href="#ArialMT-31" x="455.908203"/>
      </g>
     </g>
    </g>
    <g id="xtick_10">
     <g id="line2d_10">
      <path d="M 885.909432 403.462154 
L 885.909432 24.8475 
" clip-path="url(#p70c50644e9)" style="fill: none; stroke: #cccccc; stroke-width: 0.8; stroke-linecap: round"/>
     </g>
     <g id="text_10">
      <!-- 2026-03-01 -->
      <g style="fill: #262626" transform="translate(840.82342 459.935322) rotate(-45) scale(0.12 -0.12)">
       <use xlink:href="#ArialMT-32"/>
       <use xlink:href="#ArialMT-30" x="55.615234"/>
       <use xlink:href="#ArialMT-32" x="111.230469"/>
       <use xlink:href="#ArialMT-36" x="166.845703"/>
       <use xlink:href="#ArialMT-2d" x="222.460938"/>
       <use xlink:href="#ArialMT-30" x="255.761719"/>
       <use xlink:href="#ArialMT-33" x="311.376953"/>
       <use xlink:href="#ArialMT-2d" x="366.992188"/>
       <use xlink:href="#ArialMT-30" x="400.292969"/>
       <use xlink:href="#ArialMT-31" x="455.908203"/>
      </g>
     </g>
    </g>
    <g id="text_11">
     <!-- Date -->
     <g style="fill: #262626" transform="translate(486.030909 474.211147) scale(0.12 -0.12)">
      <defs>
       <path id="ArialMT-44" d="M 494 0 
L 494 4581 
L 2072 4581 
Q 2606 4581 2888 4516 
Q 3281 4425 3559 4188 
Q 3922 3881 4101 3404 
Q 4281 2928 4281 2316 
Q 4281 1794 4159 1391 
Q 4038 988 3847 723 
Q 3656 459 3429 307 
Q 3203 156 2883 78 
Q 2563 0 2147 0 
L 494 0 
z
M 1100 541 
L 2078 541 
Q 2531 541 2789 625 
Q 3047 709 3200 863 
Q 3416 1078 3536 1442 
Q 3656 1806 3656 2325 
Q 3656 3044 3420 3430 
Q 3184 3816 2847 3947 
Q 2603 4041 2063 4041 
L 1100 4041 
L 1100 541 
z
" transform="scale(0.015625)"/>
       <path id="ArialMT-61" d="M 2588 409 
Q 2275 144 1986 34 
Q 1697 -75 1366 -75 
Q 819 -75 525 192 
Q 231 459 231 875 
Q 231 1119 342 1320 
Q 453 1522 633 1644 
Q 813 1766 1038 1828 
Q 1203 1872 1538 1913 
Q 2219 1994 2541 2106 
Q 2544 2222 2544 2253 
Q 2544 2597 2384 2738 
Q 2169 2928 1744 2928 
Q 1347 2928 1158 2789 
Q 969 2650 878 2297 
L 328 2372 
Q 403 2725 575 2942 
Q 747 3159 1072 3276 
Q 1397 3394 1825 3394 
Q 2250 3394 2515 3294 
Q 2781 3194 2906 3042 
Q 3031 2891 3081 2659 
Q 3109 2516 3109 2141 
L 3109 1391 
Q 3109 606 3145 398 
Q 3181 191 3288 0 
L 2700 0 
Q 2613 175 2588 409 
z
M 2541 1666 
Q 2234 1541 1622 1453 
Q 1275 1403 1131 1340 
Q 988 1278 909 1158 
Q 831 1038 831 891 
Q 831 666 1001 516 
Q 1172 366 1500 366 
Q 1825 366 2078 508 
Q 2331 650 2450 897 
Q 2541 1088 2541 1459 
L 2541 1666 
z
" transform="scale(0.015625)"/>
       <path id="ArialMT-74" d="M 1650 503 
L 1731 6 
Q 1494 -44 1306 -44 
Q 1000 -44 831 53 
Q 663 150 594 308 
Q 525 466 525 972 
L 525 2881 
L 113 2881 
L 113 3319 
L 525 3319 
L 525 4141 
L 1084 4478 
L 1084 3319 
L 1650 3319 
L 1650 2881 
L 1084 2881 
L 1084 941 
Q 1084 700 1114 631 
Q 1144 563 1211 522 
Q 1278 481 1403 481 
Q 1497 481 1650 503 
z
" transform="scale(0.015625)"/>
       <path id="ArialMT-65" d="M 2694 1069 
L 3275 997 
Q 3138 488 2766 206 
Q 2394 -75 1816 -75 
Q 1088 -75 661 373 
Q 234 822 234 1631 
Q 234 2469 665 2931 
Q 1097 3394 1784 3394 
Q 2450 3394 2872 2941 
Q 3294 2488 3294 1666 
Q 3294 1616 3291 1516 
L 816 1516 
Q 847 969 1125 678 
Q 1403 388 1819 388 
Q 2128 388 2347 550 
Q 2566 713 2694 1069 
z
M 847 1978 
L 2700 1978 
Q 2663 2397 2488 2606 
Q 2219 2931 1791 2931 
Q 1403 2931 1139 2672 
Q 875 2413 847 1978 
z
" transform="scale(0.015625)"/>
      </defs>
      <use xlink:href="#ArialMT-44"/>
      <use xlink:href="#ArialMT-61" x="72.216797"/>
      <use xlink:href="#ArialMT-74" x="127.832031"/>
      <use xlink:href="#ArialMT-65" x="155.615234"/>
     </g>
    </g>
   </g>
   <g id="matplotlib.axis_2">
    <g id="ytick_1">
     <g id="line2d_11">
      <path d="M 46.14125 386.252397 
L 951.266818 386.252397 
" clip-path="url(#p70c50644e9)" style="fill: none; stroke: #cccccc; stroke-width: 0.8; stroke-linecap: round"/>
     </g>
     <g id="text_12">
      <!-- 0.0 -->
      <g style="fill: #262626" transform="translate(22.46125 390.547085) scale(0.12 -0.12)">
       <defs>
        <path id="ArialMT-2e" d="M 581 0 
L 581 641 
L 1222 641 
L 1222 0 
L 581 0 
z
" transform="scale(0.015625)"/>
       </defs>
       <use xlink:href="#ArialMT-30"/>
       <use xlink:href="#ArialMT-2e" x="55.615234"/>
       <use xlink:href="#ArialMT-30" x="83.398438"/>
      </g>
     </g>
    </g>
    <g id="ytick_2">
     <g id="line2d_12">
      <path d="M 46.14125 340.158809 
L 951.266818 340.158809 
" clip-path="url(#p70c50644e9)" style="fill: none; stroke: #cccccc; stroke-width: 0.8; stroke-linecap: round"/>
     </g>
     <g id="text_13">
      <!-- 0.5 -->
      <g style="fill: #262626" transform="translate(22.46125 344.453496) scale(0.12 -0.12)">
       <use xlink:href="#ArialMT-30"/>
       <use xlink:href="#ArialMT-2e" x="55.615234"/>
       <use xlink:href="#ArialMT-35" x="83.398438"/>
      </g>
     </g>
    </g>
    <g id="ytick_3">
     <g id="line2d_13">
      <path d="M 46.14125 294.065221 
L 951.266818 294.065221 
" clip-path="url(#p70c50644e9)" style="fill: none; stroke: #cccccc; stroke-width: 0.8; stroke-linecap: round"/>
     </g>
     <g id="text_14">
      <!-- 1.0 -->
      <g style="fill: #262626" transform="translate(22.46125 298.359908) scale(0.12 -0.12)">
       <use xlink:href="#ArialMT-31"/>
       <use xlink:href="#ArialMT-2e" x="55.615234"/>
       <use xlink:href="#ArialMT-30" x="83.398438"/>
      </g>
     </g>
    </g>
    <g id="ytick_4">
     <g id="line2d_14">
      <path d="M 46.14125 247.971632 
L 951.266818 247.971632 
" clip-path="url(#p70c50644e9)" style="fill: none; stroke: #cccccc; stroke-width: 0.8; stroke-linecap: round"/>
     </g>
     <g id="text_15">
      <!-- 1.5 -->
      <g style="fill: #262626" transform="translate(22.46125 252.26632) scale(0.12 -0.12)">
       <use xlink:href="#ArialMT-31"/>
       <use xlink:href="#ArialMT-2e" x="55.615234"/>
       <use xlink:href="#ArialMT-35" x="83.398438"/>
      </g>
     </g>
    </g>
    <g id="ytick_5">
     <g id="line2d_15">
      <path d="M 46.14125 201.878044 
L 951.266818 201.878044 
" clip-path="url(#p70c50644e9)" style="fill: none; stroke: #cccccc; stroke-width: 0.8; stroke-linecap: round"/>
     </g>
     <g id="text_16">
      <!-- 2.0 -->
      <g style="fill: #262626" transform="translate(22.46125 206.172731) scale(0.12 -0.12)">
       <use xlink:href="#ArialMT-32"/>
       <use xlink:href="#ArialMT-2e" x="55.615234"/>
       <use xlink:href="#ArialMT-30" x="83.398438"/>
      </g>
     </g>
    </g>
    <g id="ytick_6">
     <g id="line2d_16">
      <path d="M 46.14125 155.784456 
L 951.266818 155.784456 
" clip-path="url(#p70c50644e9)" style="fill: none; stroke: #cccccc; stroke-width: 0.8; stroke-linecap: round"/>
     </g>
     <g id="text_17">
      <!-- 2.5 -->
      <g style="fill: #262626" transform="translate(22.46125 160.079143) scale(0.12 -0.12)">
       <use xlink:href="#ArialMT-32"/>
       <use xlink:href="#ArialMT-2e" x="55.615234"/>
       <use xlink:href="#ArialMT-35" x="83.398438"/>
      </g>
     </g>
    </g>
    <g id="ytick_7">
     <g id="line2d_17">
      <path d="M 46.14125 109.690867 
L 951.266818 109.690867 
" clip-path="url(#p70c50644e9)" style="fill: none; stroke: #cccccc; stroke-width: 0.8; stroke-linecap: round"/>
     </g>
     <g id="text_18">
      <!-- 3.0 -->
      <g style="fill: #262626" transform="translate(22.46125 113.985555) scale(0.12 -0.12)">
       <use xlink:href="#ArialMT-33"/>
       <use xlink:href="#ArialMT-2e" x="55.615234"/>
       <use xlink:href="#ArialMT-30" x="83.398438"/>
      </g>
     </g>
    </g>
    <g id="ytick_8">
     <g id="line2d_18">
      <path d="M 46.14125 63.597279 
L 951.266818 63.597279 
" clip-path="url(#p70c50644e9)" style="fill: none; stroke: #cccccc; stroke-width: 0.8; stroke-linecap: round"/>
     </g>
     <g id="text_19">
      <!-- 3.5 -->
      <g style="fill: #262626" transform="translate(22.46125 67.891967) scale(0.12 -0.12)">
       <use xlink:href="#ArialMT-33"/>
       <use xlink:href="#ArialMT-2e" x="55.615234"/>
       <use xlink:href="#ArialMT-35" x="83.398438"/>
      </g>
     </g>
    </g>
    <g id="text_20">
     <!-- Amount (USDC) -->
     <g style="fill: #262626" transform="translate(15.935625 257.495452) rotate(-90) scale(0.12 -0.12)">
      <defs>
       <path id="ArialMT-41" d="M -9 0 
L 1750 4581 
L 2403 4581 
L 4278 0 
L 3588 0 
L 3053 1388 
L 1138 1388 
L 634 0 
L -9 0 
z
M 1313 1881 
L 2866 1881 
L 2388 3150 
Q 2169 3728 2063 4100 
Q 1975 3659 1816 3225 
L 1313 1881 
z
" transform="scale(0.015625)"/>
       <path id="ArialMT-6d" d="M 422 0 
L 422 3319 
L 925 3319 
L 925 2853 
Q 1081 3097 1340 3245 
Q 1600 3394 1931 3394 
Q 2300 3394 2536 3241 
Q 2772 3088 2869 2813 
Q 3263 3394 3894 3394 
Q 4388 3394 4653 3120 
Q 4919 2847 4919 2278 
L 4919 0 
L 4359 0 
L 4359 2091 
Q 4359 2428 4304 2576 
Q 4250 2725 4106 2815 
Q 3963 2906 3769 2906 
Q 3419 2906 3187 2673 
Q 2956 2441 2956 1928 
L 2956 0 
L 2394 0 
L 2394 2156 
Q 2394 2531 2256 2718 
Q 2119 2906 1806 2906 
Q 1569 2906 1367 2781 
Q 1166 2656 1075 2415 
Q 984 2175 984 1722 
L 984 0 
L 422 0 
z
" transform="scale(0.015625)"/>
       <path id="ArialMT-6f" d="M 213 1659 
Q 213 2581 725 3025 
Q 1153 3394 1769 3394 
Q 2453 3394 2887 2945 
Q 3322 2497 3322 1706 
Q 3322 1066 3130 698 
Q 2938 331 2570 128 
Q 2203 -75 1769 -75 
Q 1072 -75 642 372 
Q 213 819 213 1659 
z
M 791 1659 
Q 791 1022 1069 705 
Q 1347 388 1769 388 
Q 2188 388 2466 706 
Q 2744 1025 2744 1678 
Q 2744 2294 2464 2611 
Q 2184 2928 1769 2928 
Q 1347 2928 1069 2612 
Q 791 2297 791 1659 
z
" transform="scale(0.015625)"/>
       <path id="ArialMT-75" d="M 2597 0 
L 2597 488 
Q 2209 -75 1544 -75 
Q 1250 -75 995 37 
Q 741 150 617 320 
Q 494 491 444 738 
Q 409 903 409 1263 
L 409 3319 
L 972 3319 
L 972 1478 
Q 972 1038 1006 884 
Q 1059 663 1231 536 
Q 1403 409 1656 409 
Q 1909 409 2131 539 
Q 2353 669 2445 892 
Q 2538 1116 2538 1541 
L 2538 3319 
L 3100 3319 
L 3100 0 
L 2597 0 
z
" transform="scale(0.015625)"/>
       <path id="ArialMT-6e" d="M 422 0 
L 422 3319 
L 928 3319 
L 928 2847 
Q 1294 3394 1984 3394 
Q 2284 3394 2536 3286 
Q 2788 3178 2913 3003 
Q 3038 2828 3088 2588 
Q 3119 2431 3119 2041 
L 3119 0 
L 2556 0 
L 2556 2019 
Q 2556 2363 2490 2533 
Q 2425 2703 2258 2804 
Q 2091 2906 1866 2906 
Q 1506 2906 1245 2678 
Q 984 2450 984 1813 
L 984 0 
L 422 0 
z
" transform="scale(0.015625)"/>
       <path id="ArialMT-20" transform="scale(0.015625)"/>
       <path id="ArialMT-28" d="M 1497 -1347 
Q 1031 -759 709 28 
Q 388 816 388 1659 
Q 388 2403 628 3084 
Q 909 3875 1497 4659 
L 1900 4659 
Q 1522 4009 1400 3731 
Q 1209 3300 1100 2831 
Q 966 2247 966 1656 
Q 966 153 1900 -1347 
L 1497 -1347 
z
" transform="scale(0.015625)"/>
       <path id="ArialMT-55" d="M 3500 4581 
L 4106 4581 
L 4106 1934 
Q 4106 1244 3950 837 
Q 3794 431 3386 176 
Q 2978 -78 2316 -78 
Q 1672 -78 1262 144 
Q 853 366 678 786 
Q 503 1206 503 1934 
L 503 4581 
L 1109 4581 
L 1109 1938 
Q 1109 1341 1220 1058 
Q 1331 775 1601 622 
Q 1872 469 2263 469 
Q 2931 469 3215 772 
Q 3500 1075 3500 1938 
L 3500 4581 
z
" transform="scale(0.015625)"/>
       <path id="ArialMT-53" d="M 288 1472 
L 859 1522 
Q 900 1178 1048 958 
Q 1197 738 1509 602 
Q 1822 466 2213 466 
Q 2559 466 2825 569 
Q 3091 672 3220 851 
Q 3350 1031 3350 1244 
Q 3350 1459 3225 1620 
Q 3100 1781 2813 1891 
Q 2628 1963 1997 2114 
Q 1366 2266 1113 2400 
Q 784 2572 623 2826 
Q 463 3081 463 3397 
Q 463 3744 659 4045 
Q 856 4347 1234 4503 
Q 1613 4659 2075 4659 
Q 2584 4659 2973 4495 
Q 3363 4331 3572 4012 
Q 3781 3694 3797 3291 
L 3216 3247 
Q 3169 3681 2898 3903 
Q 2628 4125 2100 4125 
Q 1550 4125 1298 3923 
Q 1047 3722 1047 3438 
Q 1047 3191 1225 3031 
Q 1400 2872 2139 2705 
Q 2878 2538 3153 2413 
Q 3553 2228 3743 1945 
Q 3934 1663 3934 1294 
Q 3934 928 3725 604 
Q 3516 281 3123 101 
Q 2731 -78 2241 -78 
Q 1619 -78 1198 103 
Q 778 284 539 648 
Q 300 1013 288 1472 
z
" transform="scale(0.015625)"/>
       <path id="ArialMT-43" d="M 3763 1606 
L 4369 1453 
Q 4178 706 3683 314 
Q 3188 -78 2472 -78 
Q 1731 -78 1267 223 
Q 803 525 561 1097 
Q 319 1669 319 2325 
Q 319 3041 592 3573 
Q 866 4106 1370 4382 
Q 1875 4659 2481 4659 
Q 3169 4659 3637 4309 
Q 4106 3959 4291 3325 
L 3694 3184 
Q 3534 3684 3231 3912 
Q 2928 4141 2469 4141 
Q 1941 4141 1586 3887 
Q 1231 3634 1087 3207 
Q 944 2781 944 2328 
Q 944 1744 1114 1308 
Q 1284 872 1643 656 
Q 2003 441 2422 441 
Q 2931 441 3284 734 
Q 3638 1028 3763 1606 
z
" transform="scale(0.015625)"/>
       <path id="ArialMT-29" d="M 791 -1347 
L 388 -1347 
Q 1322 153 1322 1656 
Q 1322 2244 1188 2822 
Q 1081 3291 891 3722 
Q 769 4003 388 4659 
L 791 4659 
Q 1378 3875 1659 3084 
Q 1900 2403 1900 1659 
Q 1900 816 1576 28 
Q 1253 -759 791 -1347 
z
" transform="scale(0.015625)"/>
      </defs>
      <use xlink:href="#ArialMT-41"/>
      <use xlink:href="#ArialMT-6d" x="66.699219"/>
      <use xlink:href="#ArialMT-6f" x="150"/>
      <use xlink:href="#ArialMT-75" x="205.615234"/>
      <use xlink:href="#ArialMT-6e" x="261.230469"/>
      <use xlink:href="#ArialMT-74" x="316.845703"/>
      <use xlink:href="#ArialMT-20" x="344.628906"/>
      <use xlink:href="#ArialMT-28" x="372.412109"/>
      <use xlink:href="#ArialMT-55" x="405.712891"/>
      <use xlink:href="#ArialMT-53" x="477.929688"/>
      <use xlink:href="#ArialMT-44" x="544.628906"/>
      <use xlink:href="#ArialMT-43" x="616.845703"/>
      <use xlink:href="#ArialMT-29" x="689.0625"/>
     </g>
    </g>
    <g id="text_21">
     <!-- 1e9 -->
     <g style="fill: #262626" transform="translate(46.14125 21.8475) scale(0.12 -0.12)">
      <use xlink:href="#ArialMT-31"/>
      <use xlink:href="#ArialMT-65" x="55.615234"/>
      <use xlink:href="#ArialMT-39" x="111.230469"/>
     </g>
    </g>
   </g>
   <g id="PolyCollection_1">
    <defs>
     <path id="m46979932b7" d="M 87.283321 -141.642603 
L 87.283321 -141.642603 
L 97.588022 -141.642603 
L 107.892724 -141.660924 
L 118.197425 -141.667658 
L 128.502126 -141.698394 
L 138.806827 -141.707978 
L 149.111528 -141.762533 
L 159.416229 -142.143732 
L 169.659593 -142.267967 
L 179.964294 -142.529049 
L 190.268995 -143.178319 
L 200.573696 -142.533895 
L 210.878397 -142.730326 
L 221.183098 -142.687866 
L 231.4878 -143.154014 
L 241.792501 -144.047897 
L 252.097202 -144.222798 
L 262.401903 -144.254491 
L 272.706604 -143.934328 
L 283.011305 -143.971356 
L 293.316006 -146.493765 
L 303.620707 -147.264049 
L 313.925409 -147.569651 
L 324.23011 -148.191423 
L 334.534811 -151.294318 
L 344.839512 -152.366433 
L 355.144213 -152.726995 
L 365.448914 -153.154936 
L 374.280288 -153.196379 
L 374.280288 -141.642603 
L 374.280288 -141.642603 
L 365.448914 -141.642603 
L 355.144213 -141.642603 
L 344.839512 -141.642603 
L 334.534811 -141.642603 
L 324.23011 -141.642603 
L 313.925409 -141.642603 
L 303.620707 -141.642603 
L 293.316006 -141.642603 
L 283.011305 -141.642603 
L 272.706604 -141.642603 
L 262.401903 -141.642603 
L 252.097202 -141.642603 
L 241.792501 -141.642603 
L 231.4878 -141.642603 
L 221.183098 -141.642603 
L 210.878397 -141.642603 
L 200.573696 -141.642603 
L 190.268995 -141.642603 
L 179.964294 -141.642603 
L 169.659593 -141.642603 
L 159.416229 -141.642603 
L 149.111528 -141.642603 
L 138.806827 -141.642603 
L 128.502126 -141.642603 
L 118.197425 -141.642603 
L 107.892724 -141.642603 
L 97.588022 -141.642603 
L 87.283321 -141.642603 
z
" style="stroke: #ff0000; stroke-opacity: 0.2"/>
    </defs>
    <g clip-path="url(#p70c50644e9)">
     <use xlink:href="#m46979932b7" x="0" y="527.895" style="fill: #ff0000; fill-opacity: 0.2; stroke: #ff0000; stroke-opacity: 0.2"/>
    </g>
   </g>
   <g id="PolyCollection_2">
    <defs>
     <path id="m2ef0fc6cf0" d="M 87.283321 -141.642603 
L 87.283321 -141.642603 
L 97.588022 -141.642603 
L 107.892724 -141.662328 
L 118.197425 -141.670011 
L 128.502126 -141.702079 
L 138.806827 -141.790297 
L 149.111528 -141.766145 
L 159.416229 -142.169433 
L 169.659593 -142.301912 
L 179.964294 -142.542026 
L 190.268995 -143.190515 
L 200.573696 -142.597608 
L 210.878397 -142.916121 
L 221.183098 -142.779766 
L 231.4878 -143.477517 
L 241.792501 -144.312556 
L 252.097202 -144.931463 
L 262.401903 -144.604197 
L 272.706604 -144.370009 
L 283.011305 -144.914935 
L 293.316006 -147.759168 
L 303.620707 -148.872503 
L 313.925409 -148.980073 
L 324.23011 -150.221893 
L 334.534811 -152.27424 
L 344.839512 -154.145562 
L 355.144213 -154.023963 
L 365.448914 -156.059984 
L 374.280288 -155.908269 
L 374.280288 -153.196379 
L 374.280288 -153.196379 
L 365.448914 -153.154936 
L 355.144213 -152.726995 
L 344.839512 -152.366433 
L 334.534811 -151.294318 
L 324.23011 -148.191423 
L 313.925409 -147.569651 
L 303.620707 -147.264049 
L 293.316006 -146.493765 
L 283.011305 -143.971356 
L 272.706604 -143.934328 
L 262.401903 -144.254491 
L 252.097202 -144.222798 
L 241.792501 -144.047897 
L 231.4878 -143.154014 
L 221.183098 -142.687866 
L 210.878397 -142.730326 
L 200.573696 -142.533895 
L 190.268995 -143.178319 
L 179.964294 -142.529049 
L 169.659593 -142.267967 
L 159.416229 -142.143732 
L 149.111528 -141.762533 
L 138.806827 -141.707978 
L 128.502126 -141.698394 
L 118.197425 -141.667658 
L 107.892724 -141.660924 
L 97.588022 -141.642603 
L 87.283321 -141.642603 
z
" style="stroke: #008000; stroke-opacity: 0.2"/>
    </defs>
    <g clip-path="url(#p70c50644e9)">
     <use xlink:href="#m2ef0fc6cf0" x="0" y="527.895" style="fill: #008000; fill-opacity: 0.2; stroke: #008000; stroke-opacity: 0.2"/>
    </g>
   </g>
   <g id="line2d_19">
    <path d="M 87.283321 386.252397 
L 97.588022 386.252397 
L 107.892724 386.232672 
L 118.197425 386.224989 
L 128.502126 386.192921 
L 138.806827 386.104703 
L 149.111528 386.128855 
L 159.416229 385.725567 
L 169.659593 385.593088 
L 179.964294 385.352974 
L 190.268995 384.704485 
L 200.573696 385.297392 
L 210.878397 384.978879 
L 221.183098 385.115234 
L 231.4878 384.417483 
L 241.792501 383.582444 
L 252.097202 382.963537 
L 262.401903 383.290803 
L 272.706604 383.524991 
L 283.011305 382.980065 
L 293.316006 380.135832 
L 303.620707 379.022497 
L 313.925409 378.914927 
L 324.23011 377.673107 
L 334.534811 375.62076 
L 344.839512 373.749438 
L 355.144213 373.871037 
L 365.448914 371.835016 
L 374.280288 371.986731 
" clip-path="url(#p70c50644e9)" style="fill: none; stroke: #0000ff; stroke-width: 2.5; stroke-linecap: round"/>
   </g>
   <g id="line2d_20">
    <path d="M 87.283321 386.252397 
L 97.588022 386.252397 
L 107.892724 386.234076 
L 118.197425 386.227342 
L 128.502126 386.196606 
L 138.806827 386.187022 
L 149.111528 386.132467 
L 159.416229 385.751268 
L 169.659593 385.627033 
L 179.964294 385.365951 
L 190.268995 384.716681 
L 200.573696 385.361105 
L 210.878397 385.164674 
L 221.183098 385.207134 
L 231.4878 384.740986 
L 241.792501 383.847103 
L 252.097202 383.672202 
L 262.401903 383.640509 
L 272.706604 383.960672 
L 283.011305 383.923644 
L 293.316006 381.401235 
L 303.620707 380.630951 
L 313.925409 380.325349 
L 324.23011 379.703577 
L 334.534811 376.600682 
L 344.839512 375.528567 
L 355.144213 375.168005 
L 365.448914 374.740064 
L 374.280288 374.698621 
" clip-path="url(#p70c50644e9)" style="fill: none; stroke: #ff0000; stroke-width: 2.5; stroke-linecap: round"/>
   </g>
   <g id="line2d_21">
    <path d="M 87.283321 386.252397 
L 97.588022 386.252397 
L 107.892724 386.250993 
L 118.197425 386.250044 
L 128.502126 386.248713 
L 138.806827 386.170078 
L 149.111528 386.248786 
L 159.416229 386.226696 
L 169.659593 386.218452 
L 179.964294 386.239421 
L 190.268995 386.240202 
L 200.573696 386.188685 
L 210.878397 386.066602 
L 221.183098 386.160497 
L 231.4878 385.928894 
L 241.792501 385.987738 
L 252.097202 385.543732 
L 262.401903 385.902691 
L 272.706604 385.816716 
L 283.011305 385.308819 
L 293.316006 384.986994 
L 303.620707 384.643943 
L 313.925409 384.841975 
L 324.23011 384.221928 
L 334.534811 385.272476 
L 344.839512 384.473268 
L 355.144213 384.955429 
L 365.448914 383.34735 
L 374.280288 383.540507 
" clip-path="url(#p70c50644e9)" style="fill: none; stroke: #008000; stroke-opacity: 0.7; stroke-width: 2; stroke-linecap: round"/>
   </g>
   <g id="line2d_22">
    <path d="M 374.280288 403.462154 
L 374.280288 24.8475 
" clip-path="url(#p70c50644e9)" style="fill: none; stroke-dasharray: 5.55,2.4; stroke-dashoffset: 0; stroke: #808080; stroke-opacity: 0.7; stroke-width: 1.5"/>
   </g>
   <g id="line2d_23">
    <path d="M 394.889691 370.128663 
L 415.499093 368.028587 
L 436.108495 365.654981 
L 456.717897 362.972218 
L 477.3273 359.940032 
L 497.936702 356.512912 
L 518.546104 352.639418 
L 539.155506 348.26141 
L 559.764909 343.313178 
L 580.374311 337.720452 
L 600.983713 331.399286 
L 621.593115 324.254804 
L 642.202518 316.179771 
L 662.81192 307.052985 
L 683.421322 296.737457 
L 704.030724 285.078358 
L 724.640127 271.90069 
L 745.249529 257.006663 
L 765.858931 240.172726 
L 786.468333 221.14621 
L 807.077736 199.641538 
L 827.687138 175.335936 
L 848.29654 147.864589 
L 868.905942 116.815167 
L 889.515345 81.721635 
L 910.124747 42.057257 
" clip-path="url(#p70c50644e9)" style="fill: none; stroke-dasharray: 7.4,3.2; stroke-dashoffset: 0; stroke: #0000ff; stroke-width: 2"/>
   </g>
   <g id="line2d_24">
    <path d="M 394.889691 373.19377 
L 415.499093 371.492916 
L 436.108495 369.570531 
L 456.717897 367.397759 
L 477.3273 364.941989 
L 497.936702 362.166361 
L 518.546104 359.029214 
L 539.155506 355.483462 
L 559.764909 351.475884 
L 580.374311 346.94633 
L 600.983713 341.826812 
L 621.593115 336.040489 
L 642.202518 329.500512 
L 662.81192 322.10872 
L 683.421322 313.754165 
L 704.030724 304.311449 
L 724.640127 293.638844 
L 745.249529 281.576158 
L 765.858931 267.942336 
L 786.468333 252.532744 
L 807.077736 235.11609 
L 827.687138 215.43096 
L 848.29654 193.181891 
L 868.905942 168.034936 
L 889.515345 139.612651 
L 910.124747 107.488435 
" clip-path="url(#p70c50644e9)" style="fill: none; stroke-dasharray: 7.4,3.2; stroke-dashoffset: 0; stroke: #ff0000; stroke-width: 2"/>
   </g>
   <g id="line2d_25">
    <path d="M 394.889691 383.18729 
L 415.499093 382.788068 
L 436.108495 382.336847 
L 456.717897 381.826857 
L 477.3273 381.250441 
L 497.936702 380.598949 
L 518.546104 379.862601 
L 539.155506 379.030346 
L 559.764909 378.089691 
L 580.374311 377.026519 
L 600.983713 375.824871 
L 621.593115 374.466712 
L 642.202518 372.931656 
L 662.81192 371.196662 
L 683.421322 369.23569 
L 704.030724 367.019306 
L 724.640127 364.514243 
L 745.249529 361.682903 
L 765.858931 358.482787 
L 786.468333 354.865864 
L 807.077736 350.777845 
L 827.687138 346.157373 
L 848.29654 340.935095 
L 868.905942 335.032629 
L 889.515345 328.361381 
L 910.124747 320.821219 
" clip-path="url(#p70c50644e9)" style="fill: none; stroke-dasharray: 5.55,2.4; stroke-dashoffset: 0; stroke: #008000; stroke-opacity: 0.7; stroke-width: 1.5"/>
   </g>
   <g id="patch_3">
    <path d="M 46.14125 403.462154 
L 46.14125 24.8475 
" style="fill: none; stroke: #cccccc; stroke-width: 0.8; stroke-linejoin: miter; stroke-linecap: square"/>
   </g>
   <g id="patch_4">
    <path d="M 951.266818 403.462154 
L 951.266818 24.8475 
" style="fill: none; stroke: #cccccc; stroke-width: 0.8; stroke-linejoin: miter; stroke-linecap: square"/>
   </g>
   <g id="patch_5">
    <path d="M 46.14125 403.462154 
L 951.266818 403.462154 
" style="fill: none; stroke: #cccccc; stroke-width: 0.8; stroke-linejoin: miter; stroke-linecap: square"/>
   </g>
   <g id="patch_6">
    <path d="M 46.14125 24.8475 
L 951.266818 24.8475 
" style="fill: none; stroke: #cccccc; stroke-width: 0.8; stroke-linejoin: miter; stroke-linecap: square"/>
   </g>
   <g id="text_22">
    <g id="patch_7">
     <path d="M 920.124747 38.182882 
L 1084.901622 38.182882 
Q 1088.501622 38.182882 1088.501622 34.582882 
L 1088.501622 23.321632 
Q 1088.501622 19.721632 1084.901622 19.721632 
L 920.124747 19.721632 
Q 916.524747 19.721632 916.524747 23.321632 
L 916.524747 34.582882 
Q 916.524747 38.182882 920.124747 38.182882 
z
" style="fill: #ffffff; opacity: 0.8; stroke: #0000ff; stroke-linejoin: miter"/>
    </g>
    <!-- Proj. Supply: 3,733,655,295.40 -->
    <g style="fill: #262626" transform="translate(920.124747 32.057257) scale(0.12 -0.12)">
     <defs>
      <path id="ArialMT-50" d="M 494 0 
L 494 4581 
L 2222 4581 
Q 2678 4581 2919 4538 
Q 3256 4481 3484 4323 
Q 3713 4166 3852 3881 
Q 3991 3597 3991 3256 
Q 3991 2672 3619 2267 
Q 3247 1863 2275 1863 
L 1100 1863 
L 1100 0 
L 494 0 
z
M 1100 2403 
L 2284 2403 
Q 2872 2403 3119 2622 
Q 3366 2841 3366 3238 
Q 3366 3525 3220 3729 
Q 3075 3934 2838 4000 
Q 2684 4041 2272 4041 
L 1100 4041 
L 1100 2403 
z
" transform="scale(0.015625)"/>
      <path id="ArialMT-72" d="M 416 0 
L 416 3319 
L 922 3319 
L 922 2816 
Q 1116 3169 1280 3281 
Q 1444 3394 1641 3394 
Q 1925 3394 2219 3213 
L 2025 2691 
Q 1819 2813 1613 2813 
Q 1428 2813 1281 2702 
Q 1134 2591 1072 2394 
Q 978 2094 978 1738 
L 978 0 
L 416 0 
z
" transform="scale(0.015625)"/>
      <path id="ArialMT-6a" d="M 419 3928 
L 419 4581 
L 981 4581 
L 981 3928 
L 419 3928 
z
M -294 -1288 
L -188 -809 
Q -19 -853 78 -853 
Q 250 -853 334 -739 
Q 419 -625 419 -169 
L 419 3319 
L 981 3319 
L 981 -181 
Q 981 -794 822 -1034 
Q 619 -1347 147 -1347 
Q -81 -1347 -294 -1288 
z
" transform="scale(0.015625)"/>
      <path id="ArialMT-70" d="M 422 -1272 
L 422 3319 
L 934 3319 
L 934 2888 
Q 1116 3141 1344 3267 
Q 1572 3394 1897 3394 
Q 2322 3394 2647 3175 
Q 2972 2956 3137 2557 
Q 3303 2159 3303 1684 
Q 3303 1175 3120 767 
Q 2938 359 2589 142 
Q 2241 -75 1856 -75 
Q 1575 -75 1351 44 
Q 1128 163 984 344 
L 984 -1272 
L 422 -1272 
z
M 931 1641 
Q 931 1000 1190 694 
Q 1450 388 1819 388 
Q 2194 388 2461 705 
Q 2728 1022 2728 1688 
Q 2728 2322 2467 2637 
Q 2206 2953 1844 2953 
Q 1484 2953 1207 2617 
Q 931 2281 931 1641 
z
" transform="scale(0.015625)"/>
      <path id="ArialMT-6c" d="M 409 0 
L 409 4581 
L 972 4581 
L 972 0 
L 409 0 
z
" transform="scale(0.015625)"/>
      <path id="ArialMT-79" d="M 397 -1278 
L 334 -750 
Q 519 -800 656 -800 
Q 844 -800 956 -737 
Q 1069 -675 1141 -563 
Q 1194 -478 1313 -144 
Q 1328 -97 1363 -6 
L 103 3319 
L 709 3319 
L 1400 1397 
Q 1534 1031 1641 628 
Q 1738 1016 1872 1384 
L 2581 3319 
L 3144 3319 
L 1881 -56 
Q 1678 -603 1566 -809 
Q 1416 -1088 1222 -1217 
Q 1028 -1347 759 -1347 
Q 597 -1347 397 -1278 
z
" transform="scale(0.015625)"/>
      <path id="ArialMT-3a" d="M 578 2678 
L 578 3319 
L 1219 3319 
L 1219 2678 
L 578 2678 
z
M 578 0 
L 578 641 
L 1219 641 
L 1219 0 
L 578 0 
z
" transform="scale(0.015625)"/>
      <path id="ArialMT-2c" d="M 569 0 
L 569 641 
L 1209 641 
L 1209 0 
Q 1209 -353 1084 -570 
Q 959 -788 688 -906 
L 531 -666 
Q 709 -588 793 -436 
Q 878 -284 888 0 
L 569 0 
z
" transform="scale(0.015625)"/>
     </defs>
     <use xlink:href="#ArialMT-50"/>
     <use xlink:href="#ArialMT-72" x="66.699219"/>
     <use xlink:href="#ArialMT-6f" x="100"/>
     <use xlink:href="#ArialMT-6a" x="155.615234"/>
     <use xlink:href="#ArialMT-2e" x="177.832031"/>
     <use xlink:href="#ArialMT-20" x="205.615234"/>
     <use xlink:href="#ArialMT-53" x="233.398438"/>
     <use xlink:href="#ArialMT-75" x="300.097656"/>
     <use xlink:href="#ArialMT-70" x="355.712891"/>
     <use xlink:href="#ArialMT-70" x="411.328125"/>
     <use xlink:href="#ArialMT-6c" x="466.943359"/>
     <use xlink:href="#ArialMT-79" x="489.160156"/>
     <use xlink:href="#ArialMT-3a" x="539.160156"/>
     <use xlink:href="#ArialMT-20" x="566.943359"/>
     <use xlink:href="#ArialMT-33" x="594.726562"/>
     <use xlink:href="#ArialMT-2c" x="650.341797"/>
     <use xlink:href="#ArialMT-37" x="678.125"/>
     <use xlink:href="#ArialMT-33" x="733.740234"/>
     <use xlink:href="#ArialMT-33" x="789.355469"/>
     <use xlink:href="#ArialMT-2c" x="844.970703"/>
     <use xlink:href="#ArialMT-36" x="872.753906"/>
     <use xlink:href="#ArialMT-35" x="928.369141"/>
     <use xlink:href="#ArialMT-35" x="983.984375"/>
     <use xlink:href="#ArialMT-2c" x="1039.599609"/>
     <use xlink:href="#ArialMT-32" x="1067.382812"/>
     <use xlink:href="#ArialMT-39" x="1122.998047"/>
     <use xlink:href="#ArialMT-35" x="1178.613281"/>
     <use xlink:href="#ArialMT-2e" x="1234.228516"/>
     <use xlink:href="#ArialMT-34" x="1262.011719"/>
     <use xlink:href="#ArialMT-30" x="1317.626953"/>
    </g>
   </g>
   <g id="text_23">
    <g id="patch_8">
     <path d="M 920.124747 133.61406 
L 1086.219747 133.61406 
Q 1089.819747 133.61406 1089.819747 130.01406 
L 1089.819747 118.863435 
Q 1089.819747 115.263435 1086.219747 115.263435 
L 920.124747 115.263435 
Q 916.524747 115.263435 916.524747 118.863435 
L 916.524747 130.01406 
Q 916.524747 133.61406 920.124747 133.61406 
z
" style="fill: #ffffff; opacity: 0.8; stroke: #ff0000; stroke-linejoin: miter"/>
    </g>
    <!-- Proj. Borrow: 3,023,890,872.78 -->
    <g style="fill: #262626" transform="translate(920.124747 127.488435) scale(0.12 -0.12)">
     <defs>
      <path id="ArialMT-42" d="M 469 0 
L 469 4581 
L 2188 4581 
Q 2713 4581 3030 4442 
Q 3347 4303 3526 4014 
Q 3706 3725 3706 3409 
Q 3706 3116 3547 2856 
Q 3388 2597 3066 2438 
Q 3481 2316 3704 2022 
Q 3928 1728 3928 1328 
Q 3928 1006 3792 729 
Q 3656 453 3456 303 
Q 3256 153 2954 76 
Q 2653 0 2216 0 
L 469 0 
z
M 1075 2656 
L 2066 2656 
Q 2469 2656 2644 2709 
Q 2875 2778 2992 2937 
Q 3109 3097 3109 3338 
Q 3109 3566 3000 3739 
Q 2891 3913 2687 3977 
Q 2484 4041 1991 4041 
L 1075 4041 
L 1075 2656 
z
M 1075 541 
L 2216 541 
Q 2509 541 2628 563 
Q 2838 600 2978 687 
Q 3119 775 3209 942 
Q 3300 1109 3300 1328 
Q 3300 1584 3169 1773 
Q 3038 1963 2805 2039 
Q 2572 2116 2134 2116 
L 1075 2116 
L 1075 541 
z
" transform="scale(0.015625)"/>
      <path id="ArialMT-77" d="M 1034 0 
L 19 3319 
L 600 3319 
L 1128 1403 
L 1325 691 
Q 1338 744 1497 1375 
L 2025 3319 
L 2603 3319 
L 3100 1394 
L 3266 759 
L 3456 1400 
L 4025 3319 
L 4572 3319 
L 3534 0 
L 2950 0 
L 2422 1988 
L 2294 2553 
L 1622 0 
L 1034 0 
z
" transform="scale(0.015625)"/>
      <path id="ArialMT-38" d="M 1131 2484 
Q 781 2613 612 2850 
Q 444 3088 444 3419 
Q 444 3919 803 4259 
Q 1163 4600 1759 4600 
Q 2359 4600 2725 4251 
Q 3091 3903 3091 3403 
Q 3091 3084 2923 2848 
Q 2756 2613 2416 2484 
Q 2838 2347 3058 2040 
Q 3278 1734 3278 1309 
Q 3278 722 2862 322 
Q 2447 -78 1769 -78 
Q 1091 -78 675 323 
Q 259 725 259 1325 
Q 259 1772 486 2073 
Q 713 2375 1131 2484 
z
M 1019 3438 
Q 1019 3113 1228 2906 
Q 1438 2700 1772 2700 
Q 2097 2700 2305 2904 
Q 2513 3109 2513 3406 
Q 2513 3716 2298 3927 
Q 2084 4138 1766 4138 
Q 1444 4138 1231 3931 
Q 1019 3725 1019 3438 
z
M 838 1322 
Q 838 1081 952 856 
Q 1066 631 1291 507 
Q 1516 384 1775 384 
Q 2178 384 2440 643 
Q 2703 903 2703 1303 
Q 2703 1709 2433 1975 
Q 2163 2241 1756 2241 
Q 1359 2241 1098 1978 
Q 838 1716 838 1322 
z
" transform="scale(0.015625)"/>
     </defs>
     <use xlink:href="#ArialMT-50"/>
     <use xlink:href="#ArialMT-72" x="66.699219"/>
     <use xlink:href="#ArialMT-6f" x="100"/>
     <use xlink:href="#ArialMT-6a" x="155.615234"/>
     <use xlink:href="#ArialMT-2e" x="177.832031"/>
     <use xlink:href="#ArialMT-20" x="205.615234"/>
     <use xlink:href="#ArialMT-42" x="233.398438"/>
     <use xlink:href="#ArialMT-6f" x="300.097656"/>
     <use xlink:href="#ArialMT-72" x="355.712891"/>
     <use xlink:href="#ArialMT-72" x="389.013672"/>
     <use xlink:href="#ArialMT-6f" x="422.314453"/>
     <use xlink:href="#ArialMT-77" x="477.929688"/>
     <use xlink:href="#ArialMT-3a" x="550.146484"/>
     <use xlink:href="#ArialMT-20" x="577.929688"/>
     <use xlink:href="#ArialMT-33" x="605.712891"/>
     <use xlink:href="#ArialMT-2c" x="661.328125"/>
     <use xlink:href="#ArialMT-30" x="689.111328"/>
     <use xlink:href="#ArialMT-32" x="744.726562"/>
     <use xlink:href="#ArialMT-33" x="800.341797"/>
     <use xlink:href="#ArialMT-2c" x="855.957031"/>
     <use xlink:href="#ArialMT-38" x="883.740234"/>
     <use xlink:href="#ArialMT-39" x="939.355469"/>
     <use xlink:href="#ArialMT-30" x="994.970703"/>
     <use xlink:href="#ArialMT-2c" x="1050.585938"/>
     <use xlink:href="#ArialMT-38" x="1078.369141"/>
     <use xlink:href="#ArialMT-37" x="1133.984375"/>
     <use xlink:href="#ArialMT-32" x="1189.599609"/>
     <use xlink:href="#ArialMT-2e" x="1245.214844"/>
     <use xlink:href="#ArialMT-37" x="1272.998047"/>
     <use xlink:href="#ArialMT-38" x="1328.613281"/>
    </g>
   </g>
   <g id="text_24">
    <g id="patch_9">
     <path d="M 920.124747 316.946844 
L 1086.030372 316.946844 
Q 1089.630372 316.946844 1089.630372 313.346844 
L 1089.630372 302.196219 
Q 1089.630372 298.596219 1086.030372 298.596219 
L 920.124747 298.596219 
Q 916.524747 298.596219 916.524747 302.196219 
L 916.524747 313.346844 
Q 916.524747 316.946844 920.124747 316.946844 
z
" style="fill: #ffffff; opacity: 0.8; stroke: #008000; stroke-linejoin: miter"/>
    </g>
    <!-- Proj. Available: 709,764,422.62 -->
    <g style="fill: #262626" transform="translate(920.124747 310.821219) scale(0.12 -0.12)">
     <defs>
      <path id="ArialMT-76" d="M 1344 0 
L 81 3319 
L 675 3319 
L 1388 1331 
Q 1503 1009 1600 663 
Q 1675 925 1809 1294 
L 2547 3319 
L 3125 3319 
L 1869 0 
L 1344 0 
z
" transform="scale(0.015625)"/>
      <path id="ArialMT-69" d="M 425 3934 
L 425 4581 
L 988 4581 
L 988 3934 
L 425 3934 
z
M 425 0 
L 425 3319 
L 988 3319 
L 988 0 
L 425 0 
z
" transform="scale(0.015625)"/>
      <path id="ArialMT-62" d="M 941 0 
L 419 0 
L 419 4581 
L 981 4581 
L 981 2947 
Q 1338 3394 1891 3394 
Q 2197 3394 2470 3270 
Q 2744 3147 2920 2923 
Q 3097 2700 3197 2384 
Q 3297 2069 3297 1709 
Q 3297 856 2875 390 
Q 2453 -75 1863 -75 
Q 1275 -75 941 416 
L 941 0 
z
M 934 1684 
Q 934 1088 1097 822 
Q 1363 388 1816 388 
Q 2184 388 2453 708 
Q 2722 1028 2722 1663 
Q 2722 2313 2464 2622 
Q 2206 2931 1841 2931 
Q 1472 2931 1203 2611 
Q 934 2291 934 1684 
z
" transform="scale(0.015625)"/>
     </defs>
     <use xlink:href="#ArialMT-50"/>
     <use xlink:href="#ArialMT-72" x="66.699219"/>
     <use xlink:href="#ArialMT-6f" x="100"/>
     <use xlink:href="#ArialMT-6a" x="155.615234"/>
     <use xlink:href="#ArialMT-2e" x="177.832031"/>
     <use xlink:href="#ArialMT-20" x="205.615234"/>
     <use xlink:href="#ArialMT-41" x="227.898438"/>
     <use xlink:href="#ArialMT-76" x="292.847656"/>
     <use xlink:href="#ArialMT-61" x="342.847656"/>
     <use xlink:href="#ArialMT-69" x="398.462891"/>
     <use xlink:href="#ArialMT-6c" x="420.679688"/>
     <use xlink:href="#ArialMT-61" x="442.896484"/>
     <use xlink:href="#ArialMT-62" x="498.511719"/>
     <use xlink:href="#ArialMT-6c" x="554.126953"/>
     <use xlink:href="#ArialMT-65" x="576.34375"/>
     <use xlink:href="#ArialMT-3a" x="631.958984"/>
     <use xlink:href="#ArialMT-20" x="659.742188"/>
     <use xlink:href="#ArialMT-37" x="687.525391"/>
     <use xlink:href="#ArialMT-30" x="743.140625"/>
     <use xlink:href="#ArialMT-39" x="798.755859"/>
     <use xlink:href="#ArialMT-2c" x="854.371094"/>
     <use xlink:href="#ArialMT-37" x="882.154297"/>
     <use xlink:href="#ArialMT-36" x="937.769531"/>
     <use xlink:href="#ArialMT-34" x="993.384766"/>
     <use xlink:href="#ArialMT-2c" x="1049"/>
     <use xlink:href="#ArialMT-34" x="1076.783203"/>
     <use xlink:href="#ArialMT-32" x="1132.398438"/>
     <use xlink:href="#ArialMT-32" x="1188.013672"/>
     <use xlink:href="#ArialMT-2e" x="1243.628906"/>
     <use xlink:href="#ArialMT-36" x="1271.412109"/>
     <use xlink:href="#ArialMT-32" x="1327.027344"/>
    </g>
   </g>
   <g id="text_25">
    <!-- cbBTC/USDC Market - Supply, Borrow and Projections -->
    <g style="fill: #262626" transform="translate(304.567784 18.8475) scale(0.16 -0.16)">
     <defs>
      <path id="ArialMT-63" d="M 2588 1216 
L 3141 1144 
Q 3050 572 2676 248 
Q 2303 -75 1759 -75 
Q 1078 -75 664 370 
Q 250 816 250 1647 
Q 250 2184 428 2587 
Q 606 2991 970 3192 
Q 1334 3394 1763 3394 
Q 2303 3394 2647 3120 
Q 2991 2847 3088 2344 
L 2541 2259 
Q 2463 2594 2264 2762 
Q 2066 2931 1784 2931 
Q 1359 2931 1093 2626 
Q 828 2322 828 1663 
Q 828 994 1084 691 
Q 1341 388 1753 388 
Q 2084 388 2306 591 
Q 2528 794 2588 1216 
z
" transform="scale(0.015625)"/>
      <path id="ArialMT-54" d="M 1659 0 
L 1659 4041 
L 150 4041 
L 150 4581 
L 3781 4581 
L 3781 4041 
L 2266 4041 
L 2266 0 
L 1659 0 
z
" transform="scale(0.015625)"/>
      <path id="ArialMT-2f" d="M 0 -78 
L 1328 4659 
L 1778 4659 
L 453 -78 
L 0 -78 
z
" transform="scale(0.015625)"/>
      <path id="ArialMT-4d" d="M 475 0 
L 475 4581 
L 1388 4581 
L 2472 1338 
Q 2622 884 2691 659 
Q 2769 909 2934 1394 
L 4031 4581 
L 4847 4581 
L 4847 0 
L 4263 0 
L 4263 3834 
L 2931 0 
L 2384 0 
L 1059 3900 
L 1059 0 
L 475 0 
z
" transform="scale(0.015625)"/>
      <path id="ArialMT-6b" d="M 425 0 
L 425 4581 
L 988 4581 
L 988 1969 
L 2319 3319 
L 3047 3319 
L 1778 2088 
L 3175 0 
L 2481 0 
L 1384 1697 
L 988 1316 
L 988 0 
L 425 0 
z
" transform="scale(0.015625)"/>
      <path id="ArialMT-64" d="M 2575 0 
L 2575 419 
Q 2259 -75 1647 -75 
Q 1250 -75 917 144 
Q 584 363 401 755 
Q 219 1147 219 1656 
Q 219 2153 384 2558 
Q 550 2963 881 3178 
Q 1213 3394 1622 3394 
Q 1922 3394 2156 3267 
Q 2391 3141 2538 2938 
L 2538 4581 
L 3097 4581 
L 3097 0 
L 2575 0 
z
M 797 1656 
Q 797 1019 1065 703 
Q 1334 388 1700 388 
Q 2069 388 2326 689 
Q 2584 991 2584 1609 
Q 2584 2291 2321 2609 
Q 2059 2928 1675 2928 
Q 1300 2928 1048 2622 
Q 797 2316 797 1656 
z
" transform="scale(0.015625)"/>
      <path id="ArialMT-73" d="M 197 991 
L 753 1078 
Q 800 744 1014 566 
Q 1228 388 1613 388 
Q 2000 388 2187 545 
Q 2375 703 2375 916 
Q 2375 1106 2209 1216 
Q 2094 1291 1634 1406 
Q 1016 1563 777 1677 
Q 538 1791 414 1992 
Q 291 2194 291 2438 
Q 291 2659 392 2848 
Q 494 3038 669 3163 
Q 800 3259 1026 3326 
Q 1253 3394 1513 3394 
Q 1903 3394 2198 3281 
Q 2494 3169 2634 2976 
Q 2775 2784 2828 2463 
L 2278 2388 
Q 2241 2644 2061 2787 
Q 1881 2931 1553 2931 
Q 1166 2931 1000 2803 
Q 834 2675 834 2503 
Q 834 2394 903 2306 
Q 972 2216 1119 2156 
Q 1203 2125 1616 2013 
Q 2213 1853 2448 1751 
Q 2684 1650 2818 1456 
Q 2953 1263 2953 975 
Q 2953 694 2789 445 
Q 2625 197 2315 61 
Q 2006 -75 1616 -75 
Q 969 -75 630 194 
Q 291 463 197 991 
z
" transform="scale(0.015625)"/>
     </defs>
     <use xlink:href="#ArialMT-63"/>
     <use xlink:href="#ArialMT-62" x="50"/>
     <use xlink:href="#ArialMT-42" x="105.615234"/>
     <use xlink:href="#ArialMT-54" x="172.314453"/>
     <use xlink:href="#ArialMT-43" x="233.398438"/>
     <use xlink:href="#ArialMT-2f" x="305.615234"/>
     <use xlink:href="#ArialMT-55" x="333.398438"/>
     <use xlink:href="#ArialMT-53" x="405.615234"/>
     <use xlink:href="#ArialMT-44" x="472.314453"/>
     <use xlink:href="#ArialMT-43" x="544.53125"/>
     <use xlink:href="#ArialMT-20" x="616.748047"/>
     <use xlink:href="#ArialMT-4d" x="644.53125"/>
     <use xlink:href="#ArialMT-61" x="727.832031"/>
     <use xlink:href="#ArialMT-72" x="783.447266"/>
     <use xlink:href="#ArialMT-6b" x="816.748047"/>
     <use xlink:href="#ArialMT-65" x="866.748047"/>
     <use xlink:href="#ArialMT-74" x="922.363281"/>
     <use xlink:href="#ArialMT-20" x="950.146484"/>
     <use xlink:href="#ArialMT-2d" x="977.929688"/>
     <use xlink:href="#ArialMT-20" x="1011.230469"/>
     <use xlink:href="#ArialMT-53" x="1039.013672"/>
     <use xlink:href="#ArialMT-75" x="1105.712891"/>
     <use xlink:href="#ArialMT-70" x="1161.328125"/>
     <use xlink:href="#ArialMT-70" x="1216.943359"/>
     <use xlink:href="#ArialMT-6c" x="1272.558594"/>
     <use xlink:href="#ArialMT-79" x="1294.775391"/>
     <use xlink:href="#ArialMT-2c" x="1337.400391"/>
     <use xlink:href="#ArialMT-20" x="1365.183594"/>
     <use xlink:href="#ArialMT-42" x="1392.966797"/>
     <use xlink:href="#ArialMT-6f" x="1459.666016"/>
     <use xlink:href="#ArialMT-72" x="1515.28125"/>
     <use xlink:href="#ArialMT-72" x="1548.582031"/>
     <use xlink:href="#ArialMT-6f" x="1581.882812"/>
     <use xlink:href="#ArialMT-77" x="1637.498047"/>
     <use xlink:href="#ArialMT-20" x="1709.714844"/>
     <use xlink:href="#ArialMT-61" x="1737.498047"/>
     <use xlink:href="#ArialMT-6e" x="1793.113281"/>
     <use xlink:href="#ArialMT-64" x="1848.728516"/>
     <use xlink:href="#ArialMT-20" x="1904.34375"/>
     <use xlink:href="#ArialMT-50" x="1932.126953"/>
     <use xlink:href="#ArialMT-72" x="1998.826172"/>
     <use xlink:href="#ArialMT-6f" x="2032.126953"/>
     <use xlink:href="#ArialMT-6a" x="2087.742188"/>
     <use xlink:href="#ArialMT-65" x="2109.958984"/>
     <use xlink:href="#ArialMT-63" x="2165.574219"/>
     <use xlink:href="#ArialMT-74" x="2215.574219"/>
     <use xlink:href="#ArialMT-69" x="2243.357422"/>
     <use xlink:href="#ArialMT-6f" x="2265.574219"/>
     <use xlink:href="#ArialMT-6e" x="2321.189453"/>
     <use xlink:href="#ArialMT-73" x="2376.804688"/>
    </g>
   </g>
   <g id="legend_1">
    <g id="patch_10">
     <path d="M 54.54125 138.015 
L 236.320625 138.015 
Q 238.720625 138.015 238.720625 135.615 
L 238.720625 33.2475 
Q 238.720625 30.8475 236.320625 30.8475 
L 54.54125 30.8475 
Q 52.14125 30.8475 52.14125 33.2475 
L 52.14125 135.615 
Q 52.14125 138.015 54.54125 138.015 
z
" style="fill: #ffffff; opacity: 0.8; stroke: #cccccc; stroke-linejoin: miter"/>
    </g>
    <g id="line2d_26">
     <path d="M 56.94125 40.183125 
L 68.94125 40.183125 
L 80.94125 40.183125 
" style="fill: none; stroke: #0000ff; stroke-width: 2.5; stroke-linecap: round"/>
    </g>
    <g id="text_26">
     <!-- Total Supply (USDC) -->
     <g style="fill: #262626" transform="translate(90.54125 44.383125) scale(0.12 -0.12)">
      <use xlink:href="#ArialMT-54"/>
      <use xlink:href="#ArialMT-6f" x="49.958984"/>
      <use xlink:href="#ArialMT-74" x="105.574219"/>
      <use xlink:href="#ArialMT-61" x="133.357422"/>
      <use xlink:href="#ArialMT-6c" x="188.972656"/>
      <use xlink:href="#ArialMT-20" x="211.189453"/>
      <use xlink:href="#ArialMT-53" x="238.972656"/>
      <use xlink:href="#ArialMT-75" x="305.671875"/>
      <use xlink:href="#ArialMT-70" x="361.287109"/>
      <use xlink:href="#ArialMT-70" x="416.902344"/>
      <use xlink:href="#ArialMT-6c" x="472.517578"/>
      <use xlink:href="#ArialMT-79" x="494.734375"/>
      <use xlink:href="#ArialMT-20" x="544.734375"/>
      <use xlink:href="#ArialMT-28" x="572.517578"/>
      <use xlink:href="#ArialMT-55" x="605.818359"/>
      <use xlink:href="#ArialMT-53" x="678.035156"/>
      <use xlink:href="#ArialMT-44" x="744.734375"/>
      <use xlink:href="#ArialMT-43" x="816.951172"/>
      <use xlink:href="#ArialMT-29" x="889.167969"/>
     </g>
    </g>
    <g id="line2d_27">
     <path d="M 56.94125 57.444375 
L 68.94125 57.444375 
L 80.94125 57.444375 
" style="fill: none; stroke: #ff0000; stroke-width: 2.5; stroke-linecap: round"/>
    </g>
    <g id="text_27">
     <!-- Total Borrow (USDC) -->
     <g style="fill: #262626" transform="translate(90.54125 61.644375) scale(0.12 -0.12)">
      <use xlink:href="#ArialMT-54"/>
      <use xlink:href="#ArialMT-6f" x="49.958984"/>
      <use xlink:href="#ArialMT-74" x="105.574219"/>
      <use xlink:href="#ArialMT-61" x="133.357422"/>
      <use xlink:href="#ArialMT-6c" x="188.972656"/>
      <use xlink:href="#ArialMT-20" x="211.189453"/>
      <use xlink:href="#ArialMT-42" x="238.972656"/>
      <use xlink:href="#ArialMT-6f" x="305.671875"/>
      <use xlink:href="#ArialMT-72" x="361.287109"/>
      <use xlink:href="#ArialMT-72" x="394.587891"/>
      <use xlink:href="#ArialMT-6f" x="427.888672"/>
      <use xlink:href="#ArialMT-77" x="483.503906"/>
      <use xlink:href="#ArialMT-20" x="555.720703"/>
      <use xlink:href="#ArialMT-28" x="583.503906"/>
      <use xlink:href="#ArialMT-55" x="616.804688"/>
      <use xlink:href="#ArialMT-53" x="689.021484"/>
      <use xlink:href="#ArialMT-44" x="755.720703"/>
      <use xlink:href="#ArialMT-43" x="827.9375"/>
      <use xlink:href="#ArialMT-29" x="900.154297"/>
     </g>
    </g>
    <g id="line2d_28">
     <path d="M 56.94125 74.705625 
L 68.94125 74.705625 
L 80.94125 74.705625 
" style="fill: none; stroke: #008000; stroke-opacity: 0.7; stroke-width: 2; stroke-linecap: round"/>
    </g>
    <g id="text_28">
     <!-- Available Liquidity (USDC) -->
     <g style="fill: #262626" transform="translate(90.54125 78.905625) scale(0.12 -0.12)">
      <defs>
       <path id="ArialMT-4c" d="M 469 0 
L 469 4581 
L 1075 4581 
L 1075 541 
L 3331 541 
L 3331 0 
L 469 0 
z
" transform="scale(0.015625)"/>
       <path id="ArialMT-71" d="M 2538 -1272 
L 2538 353 
Q 2406 169 2170 47 
Q 1934 -75 1669 -75 
Q 1078 -75 651 397 
Q 225 869 225 1691 
Q 225 2191 398 2587 
Q 572 2984 901 3189 
Q 1231 3394 1625 3394 
Q 2241 3394 2594 2875 
L 2594 3319 
L 3100 3319 
L 3100 -1272 
L 2538 -1272 
z
M 803 1669 
Q 803 1028 1072 708 
Q 1341 388 1716 388 
Q 2075 388 2334 692 
Q 2594 997 2594 1619 
Q 2594 2281 2320 2615 
Q 2047 2950 1678 2950 
Q 1313 2950 1058 2639 
Q 803 2328 803 1669 
z
" transform="scale(0.015625)"/>
      </defs>
      <use xlink:href="#ArialMT-41"/>
      <use xlink:href="#ArialMT-76" x="64.949219"/>
      <use xlink:href="#ArialMT-61" x="114.949219"/>
      <use xlink:href="#ArialMT-69" x="170.564453"/>
      <use xlink:href="#ArialMT-6c" x="192.78125"/>
      <use xlink:href="#ArialMT-61" x="214.998047"/>
      <use xlink:href="#ArialMT-62" x="270.613281"/>
      <use xlink:href="#ArialMT-6c" x="326.228516"/>
      <use xlink:href="#ArialMT-65" x="348.445312"/>
      <use xlink:href="#ArialMT-20" x="404.060547"/>
      <use xlink:href="#ArialMT-4c" x="431.84375"/>
      <use xlink:href="#ArialMT-69" x="487.458984"/>
      <use xlink:href="#ArialMT-71" x="509.675781"/>
      <use xlink:href="#ArialMT-75" x="565.291016"/>
      <use xlink:href="#ArialMT-69" x="620.90625"/>
      <use xlink:href="#ArialMT-64" x="643.123047"/>
      <use xlink:href="#ArialMT-69" x="698.738281"/>
      <use xlink:href="#ArialMT-74" x="720.955078"/>
      <use xlink:href="#ArialMT-79" x="748.738281"/>
      <use xlink:href="#ArialMT-20" x="798.738281"/>
      <use xlink:href="#ArialMT-28" x="826.521484"/>
      <use xlink:href="#ArialMT-55" x="859.822266"/>
      <use xlink:href="#ArialMT-53" x="932.039062"/>
      <use xlink:href="#ArialMT-44" x="998.738281"/>
      <use xlink:href="#ArialMT-43" x="1070.955078"/>
      <use xlink:href="#ArialMT-29" x="1143.171875"/>
     </g>
    </g>
    <g id="line2d_29">
     <path d="M 56.94125 91.966875 
L 68.94125 91.966875 
L 80.94125 91.966875 
" style="fill: none; stroke-dasharray: 7.4,3.2; stroke-dashoffset: 0; stroke: #0000ff; stroke-width: 2"/>
    </g>
    <g id="text_29">
     <!-- Projected Supply (USDC) -->
     <g style="fill: #262626" transform="translate(90.54125 96.166875) scale(0.12 -0.12)">
      <use xlink:href="#ArialMT-50"/>
      <use xlink:href="#ArialMT-72" x="66.699219"/>
      <use xlink:href="#ArialMT-6f" x="100"/>
      <use xlink:href="#ArialMT-6a" x="155.615234"/>
      <use xlink:href="#ArialMT-65" x="177.832031"/>
      <use xlink:href="#ArialMT-63" x="233.447266"/>
      <use xlink:href="#ArialMT-74" x="283.447266"/>
      <use xlink:href="#ArialMT-65" x="311.230469"/>
      <use xlink:href="#ArialMT-64" x="366.845703"/>
      <use xlink:href="#ArialMT-20" x="422.460938"/>
      <use xlink:href="#ArialMT-53" x="450.244141"/>
      <use xlink:href="#ArialMT-75" x="516.943359"/>
      <use xlink:href="#ArialMT-70" x="572.558594"/>
      <use xlink:href="#ArialMT-70" x="628.173828"/>
      <use xlink:href="#ArialMT-6c" x="683.789062"/>
      <use xlink:href="#ArialMT-79" x="706.005859"/>
      <use xlink:href="#ArialMT-20" x="756.005859"/>
      <use xlink:href="#ArialMT-28" x="783.789062"/>
      <use xlink:href="#ArialMT-55" x="817.089844"/>
      <use xlink:href="#ArialMT-53" x="889.306641"/>
      <use xlink:href="#ArialMT-44" x="956.005859"/>
      <use xlink:href="#ArialMT-43" x="1028.222656"/>
      <use xlink:href="#ArialMT-29" x="1100.439453"/>
     </g>
    </g>
    <g id="line2d_30">
     <path d="M 56.94125 109.228125 
L 68.94125 109.228125 
L 80.94125 109.228125 
" style="fill: none; stroke-dasharray: 7.4,3.2; stroke-dashoffset: 0; stroke: #ff0000; stroke-width: 2"/>
    </g>
    <g id="text_30">
     <!-- Projected Borrow (USDC) -->
     <g style="fill: #262626" transform="translate(90.54125 113.428125) scale(0.12 -0.12)">
      <use xlink:href="#ArialMT-50"/>
      <use xlink:href="#ArialMT-72" x="66.699219"/>
      <use xlink:href="#ArialMT-6f" x="100"/>
      <use xlink:href="#ArialMT-6a" x="155.615234"/>
      <use xlink:href="#ArialMT-65" x="177.832031"/>
      <use xlink:href="#ArialMT-63" x="233.447266"/>
      <use xlink:href="#ArialMT-74" x="283.447266"/>
      <use xlink:href="#ArialMT-65" x="311.230469"/>
      <use xlink:href="#ArialMT-64" x="366.845703"/>
      <use xlink:href="#ArialMT-20" x="422.460938"/>
      <use xlink:href="#ArialMT-42" x="450.244141"/>
      <use xlink:href="#ArialMT-6f" x="516.943359"/>
      <use xlink:href="#ArialMT-72" x="572.558594"/>
      <use xlink:href="#ArialMT-72" x="605.859375"/>
      <use xlink:href="#ArialMT-6f" x="639.160156"/>
      <use xlink:href="#ArialMT-77" x="694.775391"/>
      <use xlink:href="#ArialMT-20" x="766.992188"/>
      <use xlink:href="#ArialMT-28" x="794.775391"/>
      <use xlink:href="#ArialMT-55" x="828.076172"/>
      <use xlink:href="#ArialMT-53" x="900.292969"/>
      <use xlink:href="#ArialMT-44" x="966.992188"/>
      <use xlink:href="#ArialMT-43" x="1039.208984"/>
      <use xlink:href="#ArialMT-29" x="1111.425781"/>
     </g>
    </g>
    <g id="line2d_31">
     <path d="M 56.94125 126.489375 
L 68.94125 126.489375 
L 80.94125 126.489375 
" style="fill: none; stroke-dasharray: 5.55,2.4; stroke-dashoffset: 0; stroke: #008000; stroke-opacity: 0.7; stroke-width: 1.5"/>
    </g>
    <g id="text_31">
     <!-- Projected Liquidity (USDC) -->
     <g style="fill: #262626" transform="translate(90.54125 130.689375) scale(0.12 -0.12)">
      <use xlink:href="#ArialMT-50"/>
      <use xlink:href="#ArialMT-72" x="66.699219"/>
      <use xlink:href="#ArialMT-6f" x="100"/>
      <use xlink:href="#ArialMT-6a" x="155.615234"/>
      <use xlink:href="#ArialMT-65" x="177.832031"/>
      <use xlink:href="#ArialMT-63" x="233.447266"/>
      <use xlink:href="#ArialMT-74" x="283.447266"/>
      <use xlink:href="#ArialMT-65" x="311.230469"/>
      <use xlink:href="#ArialMT-64" x="366.845703"/>
      <use xlink:href="#ArialMT-20" x="422.460938"/>
      <use xlink:href="#ArialMT-4c" x="450.244141"/>
      <use xlink:href="#ArialMT-69" x="505.859375"/>
      <use xlink:href="#ArialMT-71" x="528.076172"/>
      <use xlink:href="#ArialMT-75" x="583.691406"/>
      <use xlink:href="#ArialMT-69" x="639.306641"/>
      <use xlink:href="#ArialMT-64" x="661.523438"/>
      <use xlink:href="#ArialMT-69" x="717.138672"/>
      <use xlink:href="#ArialMT-74" x="739.355469"/>
      <use xlink:href="#ArialMT-79" x="767.138672"/>
      <use xlink:href="#ArialMT-20" x="817.138672"/>
      <use xlink:href="#ArialMT-28" x="844.921875"/>
      <use xlink:href="#ArialMT-55" x="878.222656"/>
      <use xlink:href="#ArialMT-53" x="950.439453"/>
      <use xlink:href="#ArialMT-44" x="1017.138672"/>
      <use xlink:href="#ArialMT-43" x="1089.355469"/>
      <use xlink:href="#ArialMT-29" x="1161.572266"/>
     </g>
    </g>
   </g>
  </g>
  <g id="text_32">
   <g id="patch_11">
    <path d="M 463.796719 525.695 
L 630.573281 525.695 
L 630.573281 506.549687 
L 463.796719 506.549687 
z
" style="fill: #ffffff; opacity: 0.7; stroke: #ffffff; stroke-linejoin: miter"/>
   </g>
   <!-- Generated on 2025-03-18 14:41:20 -->
   <g style="fill: #262626" transform="translate(468.796719 518.7075) scale(0.1 -0.1)">
    <defs>
     <path id="ArialMT-47" d="M 2638 1797 
L 2638 2334 
L 4578 2338 
L 4578 638 
Q 4131 281 3656 101 
Q 3181 -78 2681 -78 
Q 2006 -78 1454 211 
Q 903 500 622 1047 
Q 341 1594 341 2269 
Q 341 2938 620 3517 
Q 900 4097 1425 4378 
Q 1950 4659 2634 4659 
Q 3131 4659 3532 4498 
Q 3934 4338 4162 4050 
Q 4391 3763 4509 3300 
L 3963 3150 
Q 3859 3500 3706 3700 
Q 3553 3900 3268 4020 
Q 2984 4141 2638 4141 
Q 2222 4141 1919 4014 
Q 1616 3888 1430 3681 
Q 1244 3475 1141 3228 
Q 966 2803 966 2306 
Q 966 1694 1177 1281 
Q 1388 869 1791 669 
Q 2194 469 2647 469 
Q 3041 469 3416 620 
Q 3791 772 3984 944 
L 3984 1797 
L 2638 1797 
z
" transform="scale(0.015625)"/>
    </defs>
    <use xlink:href="#ArialMT-47"/>
    <use xlink:href="#ArialMT-65" x="77.783203"/>
    <use xlink:href="#ArialMT-6e" x="133.398438"/>
    <use xlink:href="#ArialMT-65" x="189.013672"/>
    <use xlink:href="#ArialMT-72" x="244.628906"/>
    <use xlink:href="#ArialMT-61" x="277.929688"/>
    <use xlink:href="#ArialMT-74" x="333.544922"/>
    <use xlink:href="#ArialMT-65" x="361.328125"/>
    <use xlink:href="#ArialMT-64" x="416.943359"/>
    <use xlink:href="#ArialMT-20" x="472.558594"/>
    <use xlink:href="#ArialMT-6f" x="500.341797"/>
    <use xlink:href="#ArialMT-6e" x="555.957031"/>
    <use xlink:href="#ArialMT-20" x="611.572266"/>
    <use xlink:href="#ArialMT-32" x="639.355469"/>
    <use xlink:href="#ArialMT-30" x="694.970703"/>
    <use xlink:href="#ArialMT-32" x="750.585938"/>
    <use xlink:href="#ArialMT-35" x="806.201172"/>
    <use xlink:href="#ArialMT-2d" x="861.816406"/>
    <use xlink:href="#ArialMT-30" x="895.117188"/>
    <use xlink:href="#ArialMT-33" x="950.732422"/>
    <use xlink:href="#ArialMT-2d" x="1006.347656"/>
    <use xlink:href="#ArialMT-31" x="1039.648438"/>
    <use xlink:href="#ArialMT-38" x="1095.263672"/>
    <use xlink:href="#ArialMT-20" x="1150.878906"/>
    <use xlink:href="#ArialMT-31" x="1178.662109"/>
    <use xlink:href="#ArialMT-34" x="1234.277344"/>
    <use xlink:href="#ArialMT-3a" x="1289.892578"/>
    <use xlink:href="#ArialMT-34" x="1317.675781"/>
    <use xlink:href="#ArialMT-31" x="1373.291016"/>
    <use xlink:href="#ArialMT-3a" x="1428.90625"/>
    <use xlink:href="#ArialMT-32" x="1456.689453"/>
    <use xlink:href="#ArialMT-30" x="1512.304688"/>
   </g>
  </g>
 </g>
 <defs>
  <clipPath id="p70c50644e9">
   <rect x="46.14125" y="24.8475" width="905.125568" height="378.614654"/>
  </clipPath>
 </defs>
</svg>
